<svg width="175" height="135" viewBox="0 0 175 135" fill="none" xmlns="http://www.w3.org/2000/svg">
<defs>
<filter id="filter0_d_5_2543" x="0" y="0.658081" width="174.794" height="133.67" filterUnits="userSpaceOnUse" color-interpolation-filters="sRGB">
<feFlood flood-opacity="0" result="BackgroundImageFix"/>
<feColorMatrix in="SourceAlpha" type="matrix" values="0 0 0 0 0 0 0 0 0 0 0 0 0 0 0 0 0 0 127 0" result="hardAlpha"/>
<feOffset/>
<feGaussianBlur stdDeviation="11"/>
<feComposite in2="hardAlpha" operator="out"/>
<feColorMatrix type="matrix" values="0 0 0 0 0.104167 0 0 0 0 0.104167 0 0 0 0 0.104167 0 0 0 0.67 0"/>
<feBlend mode="normal" in2="BackgroundImageFix" result="effect1_dropShadow_5_2543"/>
<feBlend mode="normal" in="SourceGraphic" in2="effect1_dropShadow_5_2543" result="shape"/>
</filter>
<linearGradient id="paint0_linear_5_2543" x1="12.8635" y1="81.2614" x2="152.303" y2="90.1044" gradientUnits="userSpaceOnUse">
<stop stop-color="white"/>
<stop offset="1" stop-color="#7B7B7B"/>
</linearGradient>
<linearGradient id="paint1_linear_5_2543" x1="12.8635" y1="81.2614" x2="152.303" y2="90.1044" gradientUnits="userSpaceOnUse">
<stop stop-color="white"/>
<stop offset="1" stop-color="#7B7B7B"/>
</linearGradient>
</defs>
<g filter="url(#filter0_d_5_2543)">
<path d="M46.4 63.5281C46.888 61.2508 47.5387 58.6481 48.352 55.7201C49.2467 52.7921 50.1007 50.3114 50.914 48.2781C49.7753 49.3354 48.4333 50.4741 46.888 51.6941C45.3427 52.8327 44.082 53.7274 43.106 54.3781L31.028 61.8201L22 46.8141L58.966 24.0001H77.51L59.21 111.108H36.03L46.4 63.5281Z" fill="url(#paint0_linear_5_2543)"/>
<path d="M113.022 112.328C105.051 112.328 98.8289 109.929 94.3555 105.13C89.8822 100.25 87.6455 93.0114 87.6455 83.4141C87.6455 77.4767 88.1335 71.6207 89.1095 65.8461C90.0855 59.9901 91.5902 54.5001 93.6235 49.3761C95.6569 44.1707 98.2189 39.5754 101.31 35.5901C104.482 31.5234 108.223 28.3514 112.534 26.0741C116.844 23.7967 121.806 22.6581 127.418 22.6581C132.054 22.6581 135.998 23.5121 139.252 25.2201C142.505 26.9281 145.108 29.2054 147.06 32.0521C149.093 34.8987 150.557 38.1114 151.452 41.6901C152.346 45.1874 152.794 48.8067 152.794 52.5481C152.794 60.4374 151.98 67.9607 150.354 75.1181C148.727 82.2754 146.246 88.6601 142.912 94.2721C139.658 99.8841 135.551 104.317 130.59 107.57C125.628 110.742 119.772 112.328 113.022 112.328ZM115.34 93.5401C117.373 93.5401 119.244 92.1981 120.952 89.5141C122.741 86.8301 124.246 83.3734 125.466 79.1441C126.767 74.9147 127.784 70.4007 128.516 65.6021C129.248 60.8034 129.614 56.2894 129.614 52.0601C129.614 48.7254 129.248 46.1227 128.516 44.2521C127.784 42.3814 126.523 41.4461 124.734 41.4461C122.944 41.4461 121.196 42.8287 119.488 45.5941C117.861 48.2781 116.397 51.7754 115.096 56.0861C113.794 60.3967 112.737 65.0327 111.924 69.9941C111.192 74.8741 110.826 79.5101 110.826 83.9021C110.826 87.1554 111.11 89.5954 111.68 91.2221C112.33 92.7674 113.55 93.5401 115.34 93.5401Z" fill="url(#paint1_linear_5_2543)"/>
</g>
</svg>
