<svg width="114" height="132" viewBox="0 0 114 132" fill="none" xmlns="http://www.w3.org/2000/svg">
<defs>
<filter id="filter0_d_5_2537" x="0" y="0" width="113.906" height="131.108" filterUnits="userSpaceOnUse" color-interpolation-filters="sRGB">
<feFlood flood-opacity="0" result="BackgroundImageFix"/>
<feColorMatrix in="SourceAlpha" type="matrix" values="0 0 0 0 0 0 0 0 0 0 0 0 0 0 0 0 0 0 127 0" result="hardAlpha"/>
<feOffset/>
<feGaussianBlur stdDeviation="11"/>
<feComposite in2="hardAlpha" operator="out"/>
<feColorMatrix type="matrix" values="0 0 0 0 0.104167 0 0 0 0 0.104167 0 0 0 0 0.104167 0 0 0 0.67 0"/>
<feBlend mode="normal" in2="BackgroundImageFix" result="effect1_dropShadow_5_2537"/>
<feBlend mode="normal" in="SourceGraphic" in2="effect1_dropShadow_5_2537" result="shape"/>
</filter>
<linearGradient id="paint0_linear_5_2537" x1="22.4948" y1="79.2613" x2="92.4247" y2="81.4788" gradientUnits="userSpaceOnUse">
<stop stop-color="white"/>
<stop offset="1" stop-color="#7B7B7B"/>
</linearGradient>
</defs>
<g filter="url(#filter0_d_5_2537)">
<path d="M51.158 109.108L54.696 92.272H22L25.05 77.022L70.434 22H91.906L80.804 74.704H89.71L86.05 92.272H77.144L73.606 109.108H51.158ZM45.912 74.704H58.356L61.284 63.114C61.6907 61.7313 62.138 60.186 62.626 58.478C63.114 56.6887 63.5613 55.062 63.968 53.598C64.3747 52.0527 64.6593 51.036 64.822 50.548H64.334C63.602 51.8493 62.5853 53.5573 61.284 55.672C59.9827 57.7053 58.722 59.4133 57.502 60.796L45.912 74.704Z" fill="url(#paint0_linear_5_2537)"/>
</g>
</svg>
