<svg width="111" height="135" viewBox="0 0 111 135" fill="none" xmlns="http://www.w3.org/2000/svg">
<defs>
<filter id="filter0_d_5_2539" x="0" y="0.779999" width="110.978" height="133.548" filterUnits="userSpaceOnUse" color-interpolation-filters="sRGB">
<feFlood flood-opacity="0" result="BackgroundImageFix"/>
<feColorMatrix in="SourceAlpha" type="matrix" values="0 0 0 0 0 0 0 0 0 0 0 0 0 0 0 0 0 0 127 0" result="hardAlpha"/>
<feOffset/>
<feGaussianBlur stdDeviation="11"/>
<feComposite in2="hardAlpha" operator="out"/>
<feColorMatrix type="matrix" values="0 0 0 0 0.104167 0 0 0 0 0.104167 0 0 0 0 0.104167 0 0 0 0.67 0"/>
<feBlend mode="normal" in2="BackgroundImageFix" result="effect1_dropShadow_5_2539"/>
<feBlend mode="normal" in="SourceGraphic" in2="effect1_dropShadow_5_2539" result="shape"/>
</filter>
<linearGradient id="paint0_linear_5_2539" x1="17.1267" y1="81.2613" x2="87.0566" y2="83.4788" gradientUnits="userSpaceOnUse">
<stop stop-color="white"/>
<stop offset="1" stop-color="#7B7B7B"/>
</linearGradient>
</defs>
<g filter="url(#filter0_d_5_2539)">
<path d="M50.426 112.328C43.838 112.328 38.4293 111.027 34.2 108.424C30.052 105.74 26.9613 102.039 24.928 97.322C22.976 92.5233 22 86.9927 22 80.73C22 75.118 22.6507 69.384 23.952 63.528C25.2533 57.672 27.124 52.182 29.564 47.058C32.0853 41.934 35.1353 37.7453 38.714 34.492C42.2113 31.2387 45.7087 28.7987 49.206 27.172C52.7033 25.464 56.526 24.3253 60.674 23.756C64.9033 23.1053 69.702 22.78 75.07 22.78C77.3473 22.78 79.6653 22.9427 82.024 23.268C84.3827 23.5933 86.7007 24.0407 88.978 24.61L85.196 42.666C83.6507 42.2593 81.8613 41.934 79.828 41.69C77.7947 41.3647 75.9647 41.202 74.338 41.202C68.0753 41.202 63.0733 41.9747 59.332 43.52C55.5907 45.0653 52.622 47.4647 50.426 50.718C48.3113 53.89 46.4407 57.9973 44.814 63.04H45.302C46.9287 60.4373 49.1247 58.1193 51.89 56.086C54.7367 53.9713 58.6407 52.914 63.602 52.914C69.6207 52.914 74.3787 54.866 77.876 58.77C81.3733 62.5927 83.122 68.6113 83.122 76.826C83.122 83.5767 81.8207 89.636 79.218 95.004C76.6967 100.372 72.996 104.601 68.116 107.692C63.3173 110.783 57.4207 112.328 50.426 112.328ZM50.67 94.028C52.7033 94.028 54.3707 93.296 55.672 91.832C56.9733 90.2867 57.9493 88.3347 58.6 85.976C59.332 83.6173 59.698 81.1773 59.698 78.656C59.698 76.2973 59.2507 74.4267 58.356 73.044C57.4613 71.6613 56.0787 70.97 54.208 70.97C52.3373 70.97 50.67 71.702 49.206 73.166C47.742 74.63 46.6033 76.582 45.79 79.022C45.1393 81.218 44.814 83.5767 44.814 86.098C44.814 88.7007 45.3427 90.6933 46.4 92.076C47.4573 93.3773 48.8807 94.028 50.67 94.028Z" fill="url(#paint0_linear_5_2539)"/>
</g>
</svg>
