<svg width="111" height="135" viewBox="0 0 111 135" fill="none" xmlns="http://www.w3.org/2000/svg">
<defs>
<filter id="filter0_d_5_2541" x="0" y="0.657959" width="110.002" height="133.67" filterUnits="userSpaceOnUse" color-interpolation-filters="sRGB">
<feFlood flood-opacity="0" result="BackgroundImageFix"/>
<feColorMatrix in="SourceAlpha" type="matrix" values="0 0 0 0 0 0 0 0 0 0 0 0 0 0 0 0 0 0 127 0" result="hardAlpha"/>
<feOffset/>
<feGaussianBlur stdDeviation="11"/>
<feComposite in2="hardAlpha" operator="out"/>
<feColorMatrix type="matrix" values="0 0 0 0 0.104167 0 0 0 0 0.104167 0 0 0 0 0.104167 0 0 0 0.67 0"/>
<feBlend mode="normal" in2="BackgroundImageFix" result="effect1_dropShadow_5_2541"/>
<feBlend mode="normal" in="SourceGraphic" in2="effect1_dropShadow_5_2541" result="shape"/>
</filter>
<linearGradient id="paint0_linear_5_2541" x1="18.9568" y1="81.2613" x2="88.8867" y2="83.4787" gradientUnits="userSpaceOnUse">
<stop stop-color="white"/>
<stop offset="1" stop-color="#7B7B7B"/>
</linearGradient>
</defs>
<g filter="url(#filter0_d_5_2541)">
<path d="M51.036 112.328C44.692 112.328 39.3647 111.352 35.054 109.4C30.7433 107.448 27.49 104.886 25.294 101.714C23.098 98.4606 22 94.882 22 90.978C22 84.9593 23.6673 79.876 27.002 75.728C30.418 71.58 35.3387 68.3673 41.764 66.09C39.324 64.138 37.1687 61.7793 35.298 59.014C33.4273 56.1673 32.492 52.3853 32.492 47.668C32.492 43.1946 33.59 39.0873 35.786 35.346C38.0633 31.5233 41.398 28.4733 45.79 26.196C50.2633 23.8373 55.7533 22.658 62.26 22.658C70.556 22.658 76.9 24.5693 81.292 28.392C85.7653 32.1333 88.002 36.8506 88.002 42.544C88.002 47.18 86.5787 51.572 83.732 55.72C80.8853 59.7866 76.7373 62.7146 71.288 64.504C74.948 67.2693 77.7133 70.4006 79.584 73.898C81.536 77.3953 82.512 81.462 82.512 86.098C82.512 94.3126 79.706 100.738 74.094 105.374C68.482 110.01 60.796 112.328 51.036 112.328ZM59.21 55.72C61.8127 54.744 63.724 53.2393 64.944 51.206C66.164 49.1726 66.774 47.2206 66.774 45.35C66.774 43.398 66.2047 41.934 65.066 40.958C63.9273 39.982 62.626 39.494 61.162 39.494C59.2913 39.494 57.624 40.2666 56.16 41.812C54.7773 43.3573 54.086 45.3093 54.086 47.668C54.086 49.2133 54.5333 50.7586 55.428 52.304C56.404 53.8493 57.6647 54.988 59.21 55.72ZM51.646 95.492C54.2487 95.492 56.4447 94.7193 58.234 93.174C60.0233 91.5473 60.918 89.3106 60.918 86.464C60.918 84.1053 60.2673 81.95 58.966 79.998C57.746 78.046 56.038 76.338 53.842 74.874C50.9953 76.4193 48.596 78.29 46.644 80.486C44.692 82.682 43.716 85.244 43.716 88.172C43.716 90.612 44.5293 92.442 46.156 93.662C47.864 94.882 49.694 95.492 51.646 95.492Z" fill="url(#paint0_linear_5_2541)"/>
</g>
</svg>
