<svg width="106" height="135" viewBox="0 0 106 135" fill="none" xmlns="http://www.w3.org/2000/svg">
<defs>
<filter id="filter0_d_5_2542" x="0" y="0.780029" width="105.366" height="133.548" filterUnits="userSpaceOnUse" color-interpolation-filters="sRGB">
<feFlood flood-opacity="0" result="BackgroundImageFix"/>
<feColorMatrix in="SourceAlpha" type="matrix" values="0 0 0 0 0 0 0 0 0 0 0 0 0 0 0 0 0 0 127 0" result="hardAlpha"/>
<feOffset/>
<feGaussianBlur stdDeviation="11"/>
<feComposite in2="hardAlpha" operator="out"/>
<feColorMatrix type="matrix" values="0 0 0 0 0.104167 0 0 0 0 0.104167 0 0 0 0 0.104167 0 0 0 0.67 0"/>
<feBlend mode="normal" in2="BackgroundImageFix" result="effect1_dropShadow_5_2542"/>
<feBlend mode="normal" in="SourceGraphic" in2="effect1_dropShadow_5_2542" result="shape"/>
</filter>
<linearGradient id="paint0_linear_5_2542" x1="15.5408" y1="81.2614" x2="85.4707" y2="83.4788" gradientUnits="userSpaceOnUse">
<stop stop-color="white"/>
<stop offset="1" stop-color="#7B7B7B"/>
</linearGradient>
</defs>
<g filter="url(#filter0_d_5_2542)">
<path d="M34.566 112.328C32.0447 112.328 29.7673 112.165 27.734 111.84C25.7007 111.515 23.7893 111.067 22 110.498V91.832C23.952 92.6454 25.8633 93.2554 27.734 93.662C29.686 93.9874 31.8007 94.1094 34.078 94.028C41.5607 93.6214 47.376 91.6694 51.524 88.172C55.672 84.6747 58.5187 79.3067 60.064 72.068H59.576C58.0307 74.5894 55.916 76.948 53.232 79.144C50.548 81.34 46.6847 82.438 41.642 82.438C35.542 82.438 30.7433 80.242 27.246 75.85C23.83 71.458 22.122 65.602 22.122 58.282C22.122 52.0194 23.2607 46.204 25.538 40.836C27.8967 35.3867 31.516 31.0354 36.396 27.782C41.276 24.4474 47.498 22.78 55.062 22.78C61.7313 22.78 67.14 24.1627 71.288 26.928C75.436 29.612 78.486 33.3127 80.438 38.03C82.39 42.7474 83.366 48.1967 83.366 54.378C83.366 59.9087 82.7967 65.5207 81.658 71.214C80.6007 76.826 78.852 82.194 76.412 87.318C73.972 92.3607 70.7187 96.7934 66.652 100.616C62.9107 104.195 58.356 107.041 52.988 109.156C47.7013 111.271 41.5607 112.328 34.566 112.328ZM51.036 64.138C52.9067 64.138 54.5333 63.4467 55.916 62.064C57.38 60.6814 58.5187 58.892 59.332 56.696C59.7387 55.6387 60.0233 54.5407 60.186 53.402C60.43 52.2634 60.552 51.0434 60.552 49.742C60.552 47.302 60.0233 45.2687 58.966 43.642C57.99 41.934 56.5667 41.08 54.696 41.08C52.0933 41.08 49.8973 42.544 48.108 45.472C46.4 48.3187 45.546 51.694 45.546 55.598C45.546 61.2914 47.376 64.138 51.036 64.138Z" fill="url(#paint0_linear_5_2542)"/>
</g>
</svg>
