<svg width="37" height="37" viewBox="0 0 37 37" fill="none" xmlns="http://www.w3.org/2000/svg">
<rect width="36.055" height="36.055" rx="4.20642" fill="#FEFDEB"/>
<path d="M18.0275 0H31.8486C34.1718 0 36.055 1.88328 36.055 4.20642V31.8486C36.055 34.1718 34.1718 36.055 31.8486 36.055H18.0275V0Z" fill="#E9E1CA"/>
<circle cx="9.61466" cy="9.61469" r="3.6055" fill="#716D6E"/>
<circle cx="26.4403" cy="26.4404" r="3.6055" fill="#716D6E"/>
<circle cx="26.4404" cy="26.4404" r="3.6055" transform="rotate(90 26.4404 26.4404)" fill="#423C3E"/>
<circle cx="26.4403" cy="18.0275" r="3.6055" fill="#716D6E"/>
<circle cx="26.4404" cy="18.0276" r="3.6055" transform="rotate(90 26.4404 18.0276)" fill="#423C3E"/>
<circle r="3.6055" transform="matrix(-1 0 0 1 26.4404 9.61469)" fill="#423C3E"/>
<circle r="3.6055" transform="matrix(-1 0 0 1 9.61465 26.4404)" fill="#716D6E"/>
<circle r="3.6055" transform="matrix(4.37114e-08 1 1 -4.37114e-08 9.61466 26.4404)" fill="#716D6E"/>
<circle r="3.6055" transform="matrix(-1 0 0 1 9.61465 18.0275)" fill="#716D6E"/>
<circle r="3.6055" transform="matrix(4.37114e-08 1 1 -4.37114e-08 9.61466 18.0276)" fill="#716D6E"/>
</svg>
