<svg width="37" height="37" viewBox="0 0 37 37" fill="none" xmlns="http://www.w3.org/2000/svg">
<rect width="36.055" height="36.055" rx="4.20642" fill="#716D6E"/>
<path d="M18.0275 0H31.8486C34.1718 0 36.055 1.88328 36.055 4.20642V31.8486C36.055 34.1718 34.1718 36.055 31.8486 36.055H18.0275V0Z" fill="#423C3E"/>
<circle cx="9.61466" cy="9.61469" r="3.6055" fill="#FEFCED"/>
<circle cx="26.4403" cy="26.4404" r="3.6055" fill="#FEFCED"/>
<circle cx="26.4403" cy="26.4404" r="3.6055" transform="rotate(90 26.4403 26.4404)" fill="#E9E1CB"/>
<circle cx="18.0275" cy="18.0275" r="3.6055" fill="#FEFCED"/>
<path d="M18.0275 21.633C18.9837 21.633 19.9008 21.2532 20.577 20.577C21.2531 19.9008 21.633 18.9838 21.633 18.0275C21.633 17.0713 21.2531 16.1542 20.577 15.478C19.9008 14.8019 18.9837 14.422 18.0275 14.422L18.0275 18.0275L18.0275 21.633Z" fill="#E9E1CB"/>
</svg>
