<svg width="120" height="126" viewBox="0 0 120 126" fill="none" xmlns="http://www.w3.org/2000/svg">
<defs>
<linearGradient id="paint0_linear_4_303" x1="-45.8592" y1="-25.5826" x2="75.6079" y2="117.805" gradientUnits="userSpaceOnUse">
<stop stop-color="#2D2F34"/>
<stop offset="0.29" stop-color="#282A2F"/>
<stop offset="0.65" stop-color="#181B1F"/>
<stop offset="1" stop-color="#020509"/>
</linearGradient>
<linearGradient id="paint1_linear_4_303" x1="72.9416" y1="91.939" x2="16841.4" y2="26803.5" gradientUnits="userSpaceOnUse">
<stop stop-color="#2D2F34"/>
<stop offset="0.29" stop-color="#282A2F"/>
<stop offset="0.65" stop-color="#181B1F"/>
<stop offset="1" stop-color="#020509"/>
</linearGradient>
<linearGradient id="paint2_linear_4_303" x1="-14722.6" y1="10737.2" x2="14937.9" y2="19426.2" gradientUnits="userSpaceOnUse">
<stop stop-color="#2D2F34"/>
<stop offset="0.29" stop-color="#282A2F"/>
<stop offset="0.65" stop-color="#181B1F"/>
<stop offset="1" stop-color="#020509"/>
</linearGradient>
<linearGradient id="paint3_linear_4_303" x1="-32.6785" y1="1.07362" x2="133.355" y2="277.196" gradientUnits="userSpaceOnUse">
<stop stop-color="#191C20"/>
<stop offset="0.2" stop-color="#101317"/>
<stop offset="0.56" stop-color="#05080C"/>
<stop offset="1" stop-color="#020509"/>
</linearGradient>
<linearGradient id="paint4_linear_4_303" x1="-765.496" y1="-663.716" x2="6994.81" y2="6918.07" gradientUnits="userSpaceOnUse">
<stop stop-color="#191C20"/>
<stop offset="0.2" stop-color="#101317"/>
<stop offset="0.56" stop-color="#05080C"/>
<stop offset="1" stop-color="#020509"/>
</linearGradient>
<linearGradient id="paint5_linear_4_303" x1="62.8417" y1="-80.4971" x2="-60.131" y2="860.496" gradientUnits="userSpaceOnUse">
<stop stop-color="#191C20"/>
<stop offset="0.2" stop-color="#101317"/>
<stop offset="0.56" stop-color="#05080C"/>
<stop offset="1" stop-color="#020509"/>
</linearGradient>
<linearGradient id="paint6_linear_4_303" x1="-556.013" y1="134.678" x2="1345.15" y2="2597.68" gradientUnits="userSpaceOnUse">
<stop stop-color="#191C20"/>
<stop offset="0.2" stop-color="#101317"/>
<stop offset="0.56" stop-color="#05080C"/>
<stop offset="1" stop-color="#020509"/>
</linearGradient>
<linearGradient id="paint7_linear_4_303" x1="97.6245" y1="-75.2315" x2="-25.3552" y2="865.8" gradientUnits="userSpaceOnUse">
<stop stop-color="#191C20"/>
<stop offset="0.2" stop-color="#101317"/>
<stop offset="0.56" stop-color="#05080C"/>
<stop offset="1" stop-color="#020509"/>
</linearGradient>
<linearGradient id="paint8_linear_4_303" x1="-5.85878" y1="-202.347" x2="1895.32" y2="2255.12" gradientUnits="userSpaceOnUse">
<stop stop-color="#191C20"/>
<stop offset="0.2" stop-color="#101317"/>
<stop offset="0.56" stop-color="#05080C"/>
<stop offset="1" stop-color="#020509"/>
</linearGradient>
<linearGradient id="paint9_linear_4_303" x1="-1089.87" y1="-1177.92" x2="6527.71" y2="13833.8" gradientUnits="userSpaceOnUse">
<stop stop-color="#191C20"/>
<stop offset="0.2" stop-color="#101317"/>
<stop offset="0.56" stop-color="#05080C"/>
<stop offset="1" stop-color="#020509"/>
</linearGradient>
<linearGradient id="paint10_linear_4_303" x1="-2751.35" y1="-479.758" x2="-1144.13" y2="9849.25" gradientUnits="userSpaceOnUse">
<stop stop-color="#191C20"/>
<stop offset="0.2" stop-color="#101317"/>
<stop offset="0.56" stop-color="#05080C"/>
<stop offset="1" stop-color="#020509"/>
</linearGradient>
<linearGradient id="paint11_linear_4_303" x1="108.178" y1="-269.453" x2="1845.97" y2="1017.81" gradientUnits="userSpaceOnUse">
<stop stop-color="#191C20"/>
<stop offset="0.2" stop-color="#101317"/>
<stop offset="0.56" stop-color="#05080C"/>
<stop offset="1" stop-color="#020509"/>
</linearGradient>
<linearGradient id="paint12_linear_4_303" x1="906.843" y1="-2269.74" x2="8667.19" y2="5312.18" gradientUnits="userSpaceOnUse">
<stop stop-color="#191C20"/>
<stop offset="0.2" stop-color="#101317"/>
<stop offset="0.56" stop-color="#05080C"/>
<stop offset="1" stop-color="#020509"/>
</linearGradient>
<linearGradient id="paint13_linear_4_303" x1="17.1508" y1="-8.64923" x2="105.07" y2="137.099" gradientUnits="userSpaceOnUse">
<stop stop-color="white"/>
<stop offset="1" stop-color="#020509"/>
</linearGradient>
<clipPath id="clip0_4_303">
<rect width="93.8811" height="103.66" fill="white" transform="translate(29.1423) rotate(16.3278)"/>
</clipPath>
</defs>
<g clip-path="url(#clip0_4_303)">
<path fill-rule="evenodd" clip-rule="evenodd" d="M19.5305 34.274L21.3281 30.2145L23.6646 28.4335L26.5547 28.9284L29.9823 31.6946L52.2134 55.1275L55.2615 59.1893L57.0091 63.584L57.445 68.2909L56.5782 73.3266L47.4482 104.493L45.6524 108.546L43.3149 110.33L40.4249 109.835L36.9972 107.069L14.7653 83.6393L11.719 79.571L9.96954 75.1827L9.53549 70.4694L10.4004 65.4402L19.5305 34.274Z" fill="url(#paint0_linear_4_303)"/>
<path fill-rule="evenodd" clip-rule="evenodd" d="M28.9194 22.9212L33.0254 21.3069L64.3865 13.5737L69.421 12.9313L74.0774 13.5919L78.3541 15.5482L82.2463 18.8056L104.474 42.2376L107.06 45.8123L107.416 48.7374L105.538 51.0077L101.431 52.6253L70.0732 60.3595L65.0395 60.9986L60.3823 60.3412L56.1065 58.3817L52.2134 55.1275L29.9824 31.6946L27.3974 28.1167L27.0378 25.1907L28.9194 22.9212Z" fill="url(#paint1_linear_4_303)"/>
<path fill-rule="evenodd" clip-rule="evenodd" d="M56.5783 73.3266L58.5625 68.6183L61.4725 64.8915L65.3088 62.1326L70.0732 60.3595L101.431 52.6253L105.816 52.1478L108.51 53.2887L109.519 56.0498L108.839 60.4367L99.7089 91.6029L97.7266 96.3048L94.8147 100.038L90.9802 102.79L86.214 104.57L54.8571 112.301L50.4723 112.778L47.7784 111.638L46.7699 108.873L47.4482 104.493L56.5783 73.3266Z" fill="url(#paint2_linear_4_303)"/>
<path fill-rule="evenodd" clip-rule="evenodd" d="M9.53522 72.0398L9.96957 75.1827L9.53552 70.4694L9.53522 72.0398Z" fill="url(#paint3_linear_4_303)"/>
<path fill-rule="evenodd" clip-rule="evenodd" d="M33.0254 21.3069L28.2665 23.0851L26.9156 23.8734L24.4257 25.8358L22.3641 28.2475L21.5179 29.5666L19.5305 34.274L21.3281 30.2144L23.6647 28.4335L26.5547 28.9284L29.9824 31.6946L27.3974 28.1167L27.0378 25.1907L28.9194 22.9212L33.0254 21.3069Z" fill="url(#paint4_linear_4_303)"/>
<path fill-rule="evenodd" clip-rule="evenodd" d="M70.9761 13.0038L69.4211 12.9313L74.0774 13.5919L70.9761 13.0038Z" fill="url(#paint5_linear_4_303)"/>
<path fill-rule="evenodd" clip-rule="evenodd" d="M11.007 78.1785L11.719 79.571L9.96954 75.1827L11.007 78.1785Z" fill="url(#paint6_linear_4_303)"/>
<path fill-rule="evenodd" clip-rule="evenodd" d="M77.0025 14.7693L74.0773 13.5919L78.3541 15.5482L77.0025 14.7693Z" fill="url(#paint7_linear_4_303)"/>
<path fill-rule="evenodd" clip-rule="evenodd" d="M92.3247 102L94.8147 100.038L90.9802 102.79L92.3247 102Z" fill="url(#paint8_linear_4_303)"/>
<path fill-rule="evenodd" clip-rule="evenodd" d="M60.3823 60.3412L56.1065 58.3817L52.2134 55.1275L55.2615 59.1893L57.0091 63.584L57.445 68.2909L56.5782 73.3266L58.5625 68.6183L61.4725 64.8915L65.3088 62.1326L70.0732 60.3595L65.0395 60.9986L60.3823 60.3412Z" fill="url(#paint9_linear_4_303)"/>
<path fill-rule="evenodd" clip-rule="evenodd" d="M47.7783 111.638L46.7699 108.873L47.4482 104.493L45.6525 108.546L43.315 110.33L40.4249 109.835L36.9973 107.069L40.8894 110.326L42.2378 111.104L45.1662 112.283L48.2643 112.87L49.8225 112.943L54.857 112.301L50.4723 112.778L47.7783 111.638Z" fill="url(#paint10_linear_4_303)"/>
<path fill-rule="evenodd" clip-rule="evenodd" d="M96.8762 97.6262L97.7265 96.3048L94.8147 100.038L96.8762 97.6262Z" fill="url(#paint11_linear_4_303)"/>
<path fill-rule="evenodd" clip-rule="evenodd" d="M109.709 55.402L109.705 53.8338L109.271 50.6909L108.233 47.6952L107.528 46.3045L104.474 42.2376L107.06 45.8123L107.416 48.7374L105.538 51.0077L101.431 52.6253L105.816 52.1477L108.51 53.2886L109.519 56.0498L108.839 60.4367L109.709 55.402Z" fill="url(#paint12_linear_4_303)"/>
<g style="mix-blend-mode:overlay">
<path d="M109.237 60.529L109.23 60.5514L100.089 91.6864L100.082 91.7088L100.076 91.7313L98.0925 96.4363L98.0831 96.4684L98.0728 96.5037L97.2202 97.8209C97.2145 97.8402 97.2014 97.8259 97.1986 97.8355L97.1892 97.8676L95.1387 100.265L95.1181 100.277C95.0921 100.283 95.0845 100.308 95.0845 100.308L92.5946 102.271L92.5692 102.263L92.5607 102.292L91.2162 103.082C91.2035 103.079 91.184 103.062 91.1811 103.072L91.1717 103.104L86.4055 104.884L86.3832 104.877C86.3654 104.879 86.3608 104.895 86.3608 104.895L55.006 112.63L54.9806 112.623L54.9647 112.618L49.9364 113.262C49.9237 113.259 49.9198 113.236 49.9014 113.252C49.883 113.268 49.8831 113.268 49.8672 113.263L48.3089 113.189L48.2802 113.181L48.2579 113.174L45.1598 112.587L45.1217 112.576L45.0834 112.565L42.1519 111.386L42.1265 111.378L42.0978 111.37L40.7526 110.593C40.7455 110.57 40.7391 110.568 40.7295 110.565L40.6946 110.555L36.8219 107.314L36.8028 107.308L36.7869 107.303L36.7645 107.297L14.5336 83.8639C14.5195 83.8528 14.5242 83.8368 14.5242 83.8368L14.502 83.8303L11.4557 79.762C11.4395 79.7468 11.4514 79.7294 11.4451 79.7276L11.4132 79.7182L10.7012 78.3257C10.704 78.316 10.7151 78.3019 10.7087 78.3L10.6833 78.2926L9.65291 75.3198C9.65667 75.307 9.66679 75.296 9.66418 75.2813C9.66158 75.2666 9.63926 75.2601 9.64396 75.2441L9.21442 72.12C9.21724 72.1104 9.23447 72.1224 9.22288 72.0911C9.21129 72.0599 9.21135 72.0599 9.21135 72.0599L9.21069 70.4927L9.22102 70.4574L9.22947 70.4285L10.0953 65.3961L10.1019 65.3736L10.1085 65.3512L19.2385 34.185L19.2451 34.1626L19.2517 34.1401L19.2648 34.0952L21.228 29.4469L21.2365 29.4181L21.2477 29.3796L22.093 28.0636C22.1196 28.0435 22.1168 28.0532 22.1197 28.0436L22.1272 28.0179L24.1897 25.603C24.2035 25.5792 24.222 25.5985 24.2258 25.5857L24.238 25.544L26.7279 23.5816C26.7343 23.5835 26.7515 23.5955 26.7534 23.5891L26.7609 23.5634L28.1118 22.7752C28.1214 22.778 28.1227 22.7853 28.1437 22.7845C28.1647 22.7837 28.1712 22.7612 28.1712 22.7612L32.9301 20.983C32.9365 20.9849 32.9309 21.0041 32.9524 20.9895C32.974 20.975 32.974 20.975 32.974 20.975L64.3351 13.2417L64.3574 13.2482L64.3733 13.2529L69.4015 12.6087C69.4142 12.6124 69.4069 12.6138 69.4365 12.6189C69.4661 12.6241 69.4717 12.6049 69.4717 12.6049L71.0227 12.6797L71.0513 12.688L71.0768 12.6955L74.1821 13.2814L74.2204 13.2926L74.2585 13.3038L77.1828 14.4843L77.2083 14.4917L77.2338 14.4992L78.5862 15.2749C78.6139 15.2865 78.6083 15.3058 78.6083 15.3058L78.6434 15.3161L82.5292 18.5716L82.5482 18.5772L82.5705 18.5837L104.795 42.0148C104.805 42.0387 104.783 42.0322 104.805 42.0387L104.828 42.0452L107.881 46.1121C107.898 46.1241 107.882 46.1438 107.892 46.1466L107.924 46.1559L108.629 47.5466C108.627 47.5562 108.618 47.5745 108.621 47.5755L108.643 47.582L109.681 50.5777C109.677 50.5906 109.666 50.591 109.668 50.6194C109.671 50.6479 109.693 50.6544 109.693 50.6544L110.126 53.8005C110.124 53.8069 110.109 53.799 110.119 53.8262C110.128 53.8533 110.128 53.8533 110.128 53.8533L110.135 55.4223L110.125 55.4576L110.115 55.4897L109.257 60.4616L109.244 60.5065L109.237 60.529Z" fill="#3E3E3E"/>
</g>
<path style="mix-blend-mode:overlay" opacity="0.56" d="M109.237 60.529L109.23 60.5514L100.089 91.6864L100.082 91.7088L100.076 91.7313L98.0925 96.4363L98.0831 96.4684L98.0728 96.5037L97.2202 97.8209C97.2145 97.8402 97.2014 97.8259 97.1986 97.8355L97.1892 97.8676L95.1387 100.265L95.1181 100.277C95.0921 100.283 95.0845 100.308 95.0845 100.308L92.5946 102.271L92.5692 102.263L92.5607 102.292L91.2162 103.082C91.2035 103.079 91.184 103.062 91.1811 103.072L91.1717 103.104L86.4055 104.884L86.3832 104.877C86.3654 104.879 86.3608 104.895 86.3608 104.895L55.006 112.63L54.9806 112.623L54.9647 112.618L49.9364 113.262C49.9237 113.259 49.9198 113.236 49.9014 113.252C49.883 113.268 49.8831 113.268 49.8672 113.263L48.3089 113.189L48.2802 113.181L48.2579 113.174L45.1598 112.587L45.1217 112.576L45.0834 112.565L42.1519 111.386L42.1265 111.378L42.0978 111.37L40.7526 110.593C40.7455 110.57 40.7391 110.568 40.7295 110.565L40.6946 110.555L36.8219 107.314L36.8028 107.308L36.7869 107.303L36.7645 107.297L14.5336 83.8639C14.5195 83.8528 14.5242 83.8368 14.5242 83.8368L14.502 83.8303L11.4557 79.762C11.4395 79.7468 11.4514 79.7294 11.4451 79.7276L11.4132 79.7182L10.7012 78.3257C10.704 78.316 10.7151 78.3019 10.7087 78.3L10.6833 78.2926L9.65291 75.3198C9.65667 75.307 9.66679 75.296 9.66418 75.2813C9.66158 75.2666 9.63926 75.2601 9.64396 75.2441L9.21442 72.12C9.21724 72.1104 9.23447 72.1224 9.22288 72.0911C9.21129 72.0599 9.21135 72.0599 9.21135 72.0599L9.21069 70.4927L9.22102 70.4574L9.22947 70.4285L10.0953 65.3961L10.1019 65.3736L10.1085 65.3512L19.2385 34.185L19.2451 34.1626L19.2517 34.1401L19.2648 34.0952L21.228 29.4469L21.2365 29.4181L21.2477 29.3796L22.093 28.0636C22.1196 28.0435 22.1168 28.0532 22.1197 28.0436L22.1272 28.0179L24.1897 25.603C24.2035 25.5792 24.222 25.5985 24.2258 25.5857L24.238 25.544L26.7279 23.5816C26.7343 23.5835 26.7515 23.5955 26.7534 23.5891L26.7609 23.5634L28.1118 22.7752C28.1214 22.778 28.1227 22.7853 28.1437 22.7845C28.1647 22.7837 28.1712 22.7612 28.1712 22.7612L32.9301 20.983C32.9365 20.9849 32.9309 21.0041 32.9524 20.9895C32.974 20.975 32.974 20.975 32.974 20.975L64.3351 13.2417L64.3574 13.2482L64.3733 13.2529L69.4015 12.6087C69.4142 12.6124 69.4069 12.6138 69.4365 12.6189C69.4661 12.6241 69.4717 12.6049 69.4717 12.6049L71.0227 12.6797L71.0513 12.688L71.0768 12.6955L74.1821 13.2814L74.2204 13.2926L74.2585 13.3038L77.1828 14.4843L77.2083 14.4917L77.2338 14.4992L78.5862 15.2749C78.6139 15.2865 78.6083 15.3058 78.6083 15.3058L78.6434 15.3161L82.5292 18.5716L82.5482 18.5772L82.5705 18.5837L104.795 42.0148C104.805 42.0387 104.783 42.0322 104.805 42.0387L104.828 42.0452L107.881 46.1121C107.898 46.1241 107.882 46.1438 107.892 46.1466L107.924 46.1559L108.629 47.5466C108.627 47.5562 108.618 47.5745 108.621 47.5755L108.643 47.582L109.681 50.5777C109.677 50.5906 109.666 50.591 109.668 50.6194C109.671 50.6479 109.693 50.6544 109.693 50.6544L110.126 53.8005C110.124 53.8069 110.109 53.799 110.119 53.8262C110.128 53.8533 110.128 53.8533 110.128 53.8533L110.135 55.4223L110.125 55.4576L110.115 55.4897L109.257 60.4616L109.244 60.5065L109.237 60.529Z" fill="url(#paint13_linear_4_303)"/>
<path d="M71.4368 70.868C71.1681 70.9355 71.0125 70.782 71.0896 70.519C71.7031 68.4248 70.4758 67.139 68.3648 67.6663C68.0961 67.7338 67.9406 67.5803 68.0176 67.3173C68.0666 67.1748 68.1486 67.0459 68.2568 66.9414C68.365 66.8368 68.4962 66.7596 68.6397 66.7161C71.2798 66.0583 72.8048 67.6611 72.0478 70.2809C72.0001 70.4208 71.9197 70.5472 71.8133 70.6494C71.7069 70.7516 71.5778 70.8266 71.4368 70.868ZM68.9099 65.7819C65.7366 66.5725 62.4135 69.7743 61.5014 72.9232C60.5893 76.0721 62.4372 77.9889 65.6009 77.1955C68.7647 76.4021 72.0973 73.2031 73.0094 70.0542C73.9215 66.9052 72.0737 64.9884 68.9099 65.7819Z" fill="#C4C4C4"/>
<path d="M68.6396 66.7161C68.4962 66.7596 68.3649 66.8368 68.2567 66.9414C68.1486 67.0459 68.0666 67.1748 68.0176 67.3173C67.9405 67.5803 68.0961 67.7338 68.3647 67.6663C70.4757 67.139 71.6966 68.423 71.0895 70.519C71.0125 70.782 71.168 70.9355 71.4367 70.868C71.5778 70.8266 71.7069 70.7516 71.8132 70.6494C71.9196 70.5472 72.0001 70.4208 72.0477 70.2809C72.8143 67.6639 71.2797 66.0583 68.6396 66.7161Z" fill="black"/>
<path d="M82.3624 82.2589C82.0969 82.3274 81.9432 82.1675 82.0152 81.91C82.6287 79.8158 81.4046 78.5309 79.2904 79.0572C79.0218 79.1248 78.8681 78.9649 78.9433 78.7083C78.9927 78.566 79.0748 78.4374 79.183 78.3329C79.2911 78.2284 79.4221 78.151 79.5653 78.107C82.2054 77.4492 83.7355 79.0466 82.9734 81.6718C82.9241 81.8108 82.8431 81.9363 82.737 82.0383C82.6309 82.1402 82.5026 82.2158 82.3624 82.2589ZM79.8393 77.16C76.654 77.968 73.3489 81.1437 72.4318 84.2981C71.5146 87.4525 73.3525 89.356 76.5331 88.564C79.7138 87.772 83.0194 84.5826 83.9315 81.4337C84.8436 78.2847 83.0168 76.3671 79.8393 77.16Z" fill="#C4C4C4"/>
<path d="M79.5662 78.1038C79.423 78.1478 79.292 78.2252 79.1839 78.3297C79.0758 78.4342 78.9936 78.5628 78.9442 78.7051C78.869 78.9616 79.0227 79.1216 79.2913 79.054C81.4055 78.5277 82.6232 79.8107 82.0161 81.9068C81.941 82.1634 82.0978 82.3242 82.3633 82.2557C82.5035 82.2126 82.6318 82.137 82.7379 82.035C82.844 81.9331 82.925 81.8076 82.9743 81.6686C83.7428 79.0452 82.2063 77.446 79.5662 78.1038Z" fill="black"/>
<path d="M102.1 63.2264C101.843 63.2903 101.687 63.14 101.765 62.8738C102.378 60.7796 101.143 59.4983 99.0284 60.0247C98.7711 60.0886 98.6147 59.9383 98.6926 59.6721C98.7405 59.5312 98.8208 59.4036 98.927 59.2998C99.0331 59.1959 99.162 59.1187 99.3033 59.0744C101.951 58.4153 103.479 60.0191 102.723 62.6356C102.673 62.7765 102.59 62.9036 102.482 63.0063C102.374 63.109 102.243 63.1844 102.1 63.2264ZM99.5782 58.1242C96.4049 58.9148 93.0923 62.1162 92.1811 65.2619C91.27 68.4077 93.0959 70.3285 96.2724 69.5388C99.4489 68.7491 102.766 65.5455 103.678 62.3965C104.59 59.2476 102.763 57.33 99.5782 58.1242Z" fill="#C4C4C4"/>
<path d="M99.3032 59.0745C99.162 59.1187 99.033 59.1959 98.9269 59.2998C98.8208 59.4037 98.7405 59.5313 98.6926 59.6721C98.6146 59.9383 98.7711 60.0886 99.0283 60.0247C101.142 59.4983 102.372 60.7777 101.765 62.8738C101.687 63.14 101.843 63.2903 102.1 63.2264C102.243 63.1844 102.374 63.109 102.482 63.0063C102.59 62.9036 102.673 62.7765 102.723 62.6356C103.488 60.0219 101.951 58.4153 99.3032 59.0745Z" fill="black"/>
<path d="M62.6181 101.29C62.3495 101.357 62.1958 101.197 62.2738 100.931C62.8873 98.8369 61.6572 97.5607 59.5462 98.0879C59.2775 98.1555 59.1238 97.9955 59.1986 97.7284C59.2495 97.5881 59.3324 97.4615 59.4405 97.359C59.5486 97.2564 59.6789 97.1806 59.8211 97.1377C62.4612 96.4799 63.9881 98.0764 63.232 100.693C63.1844 100.834 63.1038 100.962 62.997 101.066C62.8901 101.17 62.7603 101.247 62.6181 101.29ZM60.0951 96.1907C56.9217 96.9813 53.6015 100.173 52.6903 103.319C51.7792 106.465 53.6251 108.388 56.7898 107.591C59.9545 106.795 63.2825 103.612 64.1974 100.453C65.1123 97.2948 63.2598 95.394 60.0951 96.1907Z" fill="#C4C4C4"/>
<path d="M59.8211 97.1377C59.6789 97.1805 59.5485 97.2564 59.4404 97.359C59.3324 97.4615 59.2495 97.5881 59.1986 97.7284C59.1206 97.9946 59.2775 98.1555 59.5462 98.0879C61.6572 97.5606 62.8809 98.835 62.2738 100.931C62.1958 101.197 62.3494 101.357 62.6181 101.29C62.7602 101.247 62.8901 101.17 62.9969 101.066C63.1037 100.962 63.1844 100.834 63.232 100.693C63.9976 98.0791 62.4612 96.4798 59.8211 97.1377Z" fill="black"/>
<path d="M93.2817 93.648C93.0235 93.7152 92.8699 93.5553 92.9478 93.2891C93.5613 91.1949 92.3239 89.92 90.2097 90.4463C89.9525 90.5103 89.7988 90.3503 89.8727 90.0864C89.923 89.9476 90.0044 89.8221 90.1105 89.7197C90.2166 89.6173 90.3447 89.5408 90.4846 89.4961C93.1321 88.8369 94.6631 90.4312 93.9028 93.05C93.8545 93.1924 93.7728 93.321 93.6647 93.4251C93.5565 93.5292 93.4252 93.6057 93.2817 93.648ZM90.7586 88.5491C87.5796 89.359 84.2755 92.5314 83.3634 95.6804C82.4513 98.8293 84.2782 100.747 87.4524 99.9531C90.6267 99.1593 93.946 95.9703 94.86 92.815C95.774 89.6597 93.9424 87.7581 90.7586 88.5491Z" fill="#C4C4C4"/>
<path d="M90.4799 89.5121C90.3399 89.5568 90.2119 89.6334 90.1058 89.7357C89.9997 89.8381 89.9183 89.9636 89.868 90.1024C89.7909 90.3654 89.9478 90.5263 90.205 90.4623C92.3192 89.936 93.5503 91.209 92.9431 93.3051C92.8652 93.5713 93.0188 93.7312 93.277 93.664C93.4205 93.6217 93.5518 93.5453 93.6599 93.4412C93.7681 93.3371 93.8498 93.2084 93.8981 93.066C94.6648 90.449 93.1273 88.853 90.4799 89.5121Z" fill="black"/>
<path d="M47.06 70.7367C46.9651 70.6255 46.8977 70.4932 46.8632 70.3506C46.8287 70.208 46.828 70.0591 46.8614 69.9159C46.9394 69.6497 47.1528 69.5939 47.3371 69.7906C48.8318 71.3672 50.5465 70.9537 51.1536 68.8576C51.2316 68.5914 51.4441 68.5387 51.6262 68.7314C51.7239 68.8448 51.7933 68.9801 51.8286 69.1261C51.864 69.2721 51.8643 69.4246 51.8296 69.571C51.0639 72.1848 48.9351 72.7138 47.06 70.7367ZM50.0913 60.283C47.8466 57.9156 45.2846 58.5545 44.3725 61.7034C43.4604 64.8523 44.5375 69.3292 46.7822 71.6965C49.027 74.0639 51.5935 73.4333 52.5087 70.2853C53.424 67.1373 52.3437 62.6596 50.0913 60.283Z" fill="#C4C4C4"/>
<path d="M51.6271 68.7282C51.445 68.5355 51.2293 68.5873 51.1546 68.8544C50.5411 70.9486 48.8327 71.364 47.338 69.7874C47.1537 69.5907 46.9403 69.6465 46.8623 69.9127C46.829 70.0559 46.8296 70.2048 46.8641 70.3474C46.8986 70.49 46.966 70.6222 47.0609 70.7335C48.936 72.7105 51.0712 72.1834 51.8305 69.5678C51.8653 69.4214 51.8649 69.2689 51.8295 69.1229C51.7942 68.9769 51.7248 68.8416 51.6271 68.7282Z" fill="black"/>
<path d="M31.8068 74.5074C31.7113 74.3946 31.6429 74.261 31.6072 74.117C31.5714 73.9731 31.5691 73.8226 31.6006 73.6774C31.6786 73.4112 31.8942 73.3595 32.0849 73.5581C33.5787 75.1379 35.2857 74.7151 35.8928 72.6191C35.9708 72.3529 36.1865 72.3012 36.373 72.5021C36.4682 72.6153 36.5358 72.7494 36.5703 72.8937C36.6049 73.038 36.6054 73.1886 36.572 73.3334C35.8053 75.9504 33.6734 76.4784 31.8068 74.5074ZM34.8381 64.0536C32.5857 61.677 30.0326 62.2976 29.1149 65.4658C28.1971 68.6339 29.2795 73.081 31.5319 75.4576C33.7843 77.8342 36.3311 77.2118 37.247 74.05C38.1629 70.8883 37.0851 66.4251 34.8381 64.0536Z" fill="#C4C4C4"/>
<path d="M36.373 72.5021C36.1864 72.3011 35.9708 72.3529 35.8928 72.6191C35.2793 74.7133 33.5786 75.1379 32.0849 73.5581C31.8942 73.3595 31.6785 73.4112 31.6005 73.6774C31.5691 73.8226 31.5713 73.9731 31.6071 74.117C31.6429 74.261 31.7112 74.3946 31.8068 74.5074C33.6733 76.4784 35.8117 75.9522 36.5719 73.3334C36.6054 73.1885 36.6048 73.038 36.5703 72.8937C36.5357 72.7494 36.4682 72.6153 36.373 72.5021Z" fill="black"/>
<path d="M16.5482 78.273C16.4508 78.1595 16.3815 78.0241 16.3462 77.8782C16.3108 77.7322 16.3103 77.5798 16.3448 77.4334C16.42 77.1768 16.6324 77.1241 16.8231 77.3228C18.3178 78.8993 20.0299 78.4712 20.637 76.3751C20.7122 76.1185 20.9247 76.0659 21.1154 76.2645C21.2101 76.3765 21.2774 76.5093 21.3117 76.6524C21.346 76.7955 21.3465 76.9449 21.313 77.0885C20.5445 79.7118 18.4147 80.2441 16.5482 78.273ZM19.5795 67.8192C17.3325 65.4477 14.7708 66.0623 13.8559 69.2208C12.941 72.3794 14.0391 76.8554 16.2733 79.2232C18.5076 81.591 21.0788 80.9792 21.9966 77.8111C22.9143 74.6429 21.8115 70.1829 19.5795 67.8192Z" fill="#C4C4C4"/>
<path d="M21.1153 76.2645C20.9246 76.0658 20.709 76.1176 20.637 76.3751C20.0235 78.4693 18.3178 78.8993 16.8231 77.3228C16.6324 77.1241 16.4199 77.1768 16.3448 77.4334C16.3103 77.5798 16.3108 77.7322 16.3461 77.8782C16.3815 78.0241 16.4507 78.1594 16.5482 78.273C18.4147 80.244 20.5508 79.7137 21.313 77.0885C21.3465 76.9449 21.346 76.7955 21.3117 76.6524C21.2774 76.5093 21.2101 76.3764 21.1153 76.2645Z" fill="black"/>
<path d="M43.773 34.8987C43.6652 34.7968 43.5349 34.722 43.3927 34.6803C43.2505 34.6387 43.1005 34.6314 42.9548 34.659C40.8406 35.1854 37.9025 34.3351 36.4125 32.7425C36.3047 32.6406 36.1745 32.5658 36.0323 32.5241C35.8902 32.4825 35.7401 32.4752 35.5943 32.5028C35.3257 32.5704 35.2627 32.7852 35.4534 32.9839C37.3199 34.9549 40.9966 36.0216 43.632 35.3798C43.8975 35.3113 43.9608 35.107 43.7711 34.9051L43.773 34.8987ZM34.4925 33.2317C32.2478 30.8643 33.0035 28.2964 36.1704 27.5039C39.3374 26.7114 43.7522 27.9838 45.9885 30.3801C48.2248 32.7763 47.4807 35.3163 44.3105 36.1079C41.1404 36.8994 36.7288 35.6279 34.4893 33.2308" fill="#C4C4C4"/>
<path d="M35.4497 32.9967C35.259 32.7981 35.3219 32.5832 35.5906 32.5157C35.7364 32.488 35.8865 32.4953 36.0286 32.5369C36.1708 32.5786 36.301 32.6534 36.4088 32.7554C37.9035 34.3319 40.8416 35.1822 42.951 34.6719C43.0968 34.6442 43.2468 34.6515 43.389 34.6931C43.5311 34.7348 43.6614 34.8096 43.7692 34.9116C43.959 35.1134 43.8957 35.3177 43.6302 35.3862C40.9901 36.044 37.3134 34.9774 35.4516 32.9903" fill="black"/>
<path d="M65.4652 57.7873C65.3591 57.6859 65.2303 57.6116 65.0897 57.5704C64.9491 57.5292 64.8006 57.5223 64.6566 57.5504C62.5424 58.0767 59.5967 57.2173 58.1048 55.6311C57.9983 55.5304 57.8695 55.4565 57.729 55.4153C57.5885 55.3742 57.4403 55.3669 57.2962 55.3942C57.0275 55.4617 56.9646 55.6766 57.1562 55.8721C59.0313 57.8491 62.708 58.9157 65.3443 58.2708C65.6098 58.2023 65.6645 57.9919 65.4843 57.7929L65.4652 57.7873ZM56.2089 56.1203C53.961 53.752 54.7221 51.1892 57.8859 50.3958C61.0497 49.6023 65.4582 50.8729 67.7033 53.2509C69.9484 55.6288 69.1923 58.1862 66.0253 58.9787C62.8584 59.7712 58.4531 58.5015 56.2072 56.1025" fill="#C4C4C4"/>
<path d="M57.1429 55.8821C56.9608 55.6894 57.0238 55.4746 57.2829 55.4042C57.4269 55.377 57.5752 55.3842 57.7157 55.4254C57.8562 55.4665 57.9849 55.5404 58.0915 55.6411C59.5862 57.2177 62.5319 58.0771 64.6432 57.5604C64.7873 57.5324 64.9358 57.5392 65.0764 57.5804C65.217 57.6216 65.3457 57.696 65.4519 57.7973C65.6416 57.9992 65.5869 58.2095 65.3119 58.2752C62.6718 58.933 58.9952 57.8663 57.1238 55.8765" fill="black"/>
<path d="M59.1095 31.0793C59.0022 30.9767 58.872 30.9014 58.7297 30.8597C58.5874 30.8181 58.4371 30.8112 58.2913 30.8396C56.1771 31.366 53.2391 30.5157 51.7492 28.9231C51.6409 28.8219 51.5106 28.7475 51.3686 28.7059C51.2265 28.6643 51.0767 28.6566 50.931 28.6834C50.6623 28.751 50.5993 28.9659 50.79 29.1645C52.6566 31.1355 56.3227 32.2026 58.9686 31.5604C59.022 31.5572 59.0732 31.5376 59.1152 31.504C59.1571 31.4705 59.1877 31.4247 59.2029 31.3731C59.218 31.3214 59.2169 31.2664 59.1997 31.2155C59.1825 31.1646 59.15 31.1204 59.1067 31.089L59.1095 31.0793ZM49.8281 29.4155C47.5843 27.0449 48.3295 24.4774 51.507 23.6845C54.6844 22.8916 59.0793 24.1616 61.3187 26.5588C63.5582 28.956 62.8182 31.4937 59.6408 32.2866C56.4633 33.0795 52.0589 31.8067 49.8195 29.4095" fill="#C4C4C4"/>
<path d="M50.7882 29.1709C50.5975 28.9723 50.6605 28.7574 50.9291 28.6899C51.0749 28.663 51.2247 28.6707 51.3667 28.7123C51.5087 28.7539 51.6391 28.8283 51.7473 28.9296C53.2411 30.5093 56.1791 31.3596 58.2895 30.8461C58.4352 30.8176 58.5856 30.8245 58.7279 30.8662C58.8701 30.9079 59.0003 30.9831 59.1077 31.0858C59.151 31.1172 59.1835 31.1614 59.2007 31.2123C59.2179 31.2632 59.219 31.3182 59.2039 31.3699C59.1887 31.4215 59.1581 31.4673 59.1162 31.5008C59.0742 31.5344 59.023 31.5541 58.9696 31.5572C56.319 32.2154 52.6529 31.1484 50.791 29.1613" fill="black"/>
<path d="M80.8028 53.9648C80.6958 53.8648 80.567 53.7913 80.4266 53.7502C80.2863 53.709 80.1382 53.7014 79.9942 53.7279C77.88 54.2542 74.9342 53.3947 73.4424 51.8085C73.3358 51.7079 73.207 51.6339 73.0666 51.5928C72.9261 51.5516 72.7778 51.5444 72.6337 51.5716C72.366 51.636 72.303 51.8509 72.4947 52.0463C74.3698 54.0233 78.036 55.0904 80.6796 54.444C80.94 54.381 81.003 54.1662 80.8196 53.9662L80.8028 53.9648ZM71.5442 52.2937C69.2963 49.9253 70.0492 47.367 73.2212 46.569C76.3932 45.7711 80.7871 47.0443 83.0234 49.4406C85.2597 51.8368 84.5229 54.3755 81.3464 55.1652C78.1699 55.9549 73.771 54.6871 71.5283 52.289" fill="#C4C4C4"/>
<path d="M72.4804 52.0595C72.2983 51.8668 72.3612 51.652 72.6194 51.5848C72.7635 51.5576 72.9117 51.5648 73.0522 51.606C73.1927 51.6471 73.3215 51.721 73.428 51.8217C74.9227 53.3983 77.8685 54.2577 79.9798 53.741C80.1239 53.7146 80.272 53.7222 80.4123 53.7633C80.5527 53.8044 80.6815 53.8779 80.7885 53.9779C80.9782 54.1798 80.9153 54.3946 80.6485 54.4558C78.0011 55.1149 74.3349 54.0479 72.4636 52.058" fill="black"/>
<path d="M74.4471 27.2567C74.3382 27.1544 74.2068 27.0793 74.0637 27.0373C73.9205 26.9954 73.7694 26.9878 73.6225 27.0152C71.5083 27.5415 68.5776 26.6899 67.0867 25.1005C66.9787 24.9968 66.8475 24.9208 66.704 24.8787C66.5605 24.8367 66.409 24.8299 66.2622 24.859C66.0017 24.922 65.9388 25.1368 66.1222 25.3368C67.9896 27.3047 71.6558 28.3717 74.2912 27.7299C74.5598 27.6624 74.6282 27.4526 74.4312 27.2521L74.4471 27.2567ZM65.1526 25.5786C62.9088 23.208 63.653 20.6437 66.8296 19.854C70.0061 19.0643 74.4114 20.334 76.6556 22.7151C78.8997 25.0963 78.1551 27.65 74.9776 28.4429C71.8002 29.2358 67.4053 27.9658 65.1659 25.5686" fill="#C4C4C4"/>
<path d="M66.1247 25.3515C65.935 25.1497 65.9979 24.9348 66.2647 24.8737C66.4116 24.8447 66.5632 24.8514 66.7066 24.8935C66.8501 24.9355 66.9813 25.0115 67.0893 25.1152C68.584 26.6918 71.5147 27.5434 73.6251 27.0299C73.772 27.0025 73.9231 27.0101 74.0663 27.052C74.2095 27.094 74.3408 27.1691 74.4497 27.2715C74.6372 27.4692 74.5688 27.679 74.3097 27.7493C71.6706 28.4039 68.0044 27.3369 66.1406 25.3562" fill="black"/>
<path d="M96.1393 50.1453C96.0321 50.0436 95.9023 49.9689 95.7607 49.9274C95.619 49.8859 95.4695 49.8788 95.3243 49.9066C93.2101 50.4329 90.2718 49.5721 88.779 47.9891C88.6708 47.8879 88.5404 47.8135 88.3984 47.7719C88.2563 47.7303 88.1065 47.7226 87.9608 47.7494C87.9074 47.7526 87.8562 47.7722 87.8142 47.8058C87.7723 47.8393 87.7416 47.8851 87.7265 47.9368C87.7113 47.9884 87.7125 48.0435 87.7297 48.0944C87.7469 48.1452 87.7794 48.1894 87.8227 48.2209C89.6978 50.1979 93.363 51.2682 96.0012 50.6168C96.2699 50.5492 96.3328 50.3344 96.1421 50.1357L96.1393 50.1453ZM86.8667 48.4632C84.6188 46.0949 85.3717 43.5365 88.5419 42.745C91.712 41.9534 96.1173 43.2231 98.3602 45.5969C100.603 47.9707 99.8597 50.5318 96.6813 51.3279C93.5029 52.124 89.1154 50.8526 86.8727 48.4545" fill="#C4C4C4"/>
<path d="M87.8052 48.2332C87.7619 48.2017 87.7294 48.1575 87.7122 48.1066C87.695 48.0557 87.694 48.0007 87.7091 47.9491C87.7242 47.8974 87.7548 47.8516 87.7967 47.8181C87.8387 47.7845 87.8899 47.7649 87.9433 47.7617C88.0891 47.7349 88.2389 47.7426 88.3809 47.7842C88.5229 47.8258 88.6533 47.9002 88.7615 48.0014C90.2552 49.5812 93.1936 50.442 95.3068 49.9189C95.452 49.8911 95.6016 49.8982 95.7432 49.9397C95.8849 49.9812 96.0146 50.0559 96.1218 50.1576C96.3125 50.3562 96.2496 50.5711 95.9809 50.6387C93.3408 51.2965 89.6756 50.2262 87.8024 48.2428" fill="black"/>
</g>
</svg>
