<svg width="231" height="243" viewBox="0 0 231 243" fill="none" xmlns="http://www.w3.org/2000/svg">
<defs>
<linearGradient id="paint0_linear_4_423" x1="-151.643" y1="81.2719" x2="196.882" y2="198.339" gradientUnits="userSpaceOnUse">
<stop stop-color="#2D2F34"/>
<stop offset="0.29" stop-color="#282A2F"/>
<stop offset="0.65" stop-color="#181B1F"/>
<stop offset="1" stop-color="#020509"/>
</linearGradient>
<linearGradient id="paint1_linear_4_423" x1="166.799" y1="156.043" x2="55230.6" y2="27885.9" gradientUnits="userSpaceOnUse">
<stop stop-color="#2D2F34"/>
<stop offset="0.29" stop-color="#282A2F"/>
<stop offset="0.65" stop-color="#181B1F"/>
<stop offset="1" stop-color="#020509"/>
</linearGradient>
<linearGradient id="paint2_linear_4_423" x1="-13802.5" y1="32891.2" x2="44716" y2="17211.2" gradientUnits="userSpaceOnUse">
<stop stop-color="#2D2F34"/>
<stop offset="0.29" stop-color="#282A2F"/>
<stop offset="0.65" stop-color="#181B1F"/>
<stop offset="1" stop-color="#020509"/>
</linearGradient>
<linearGradient id="paint3_linear_4_423" x1="-102.475" y1="112.216" x2="454.441" y2="406.23" gradientUnits="userSpaceOnUse">
<stop stop-color="#191C20"/>
<stop offset="0.2" stop-color="#101317"/>
<stop offset="0.56" stop-color="#05080C"/>
<stop offset="1" stop-color="#020509"/>
</linearGradient>
<linearGradient id="paint4_linear_4_423" x1="-2005.66" y1="-248.99" x2="18674.3" y2="4583.54" gradientUnits="userSpaceOnUse">
<stop stop-color="#191C20"/>
<stop offset="0.2" stop-color="#101317"/>
<stop offset="0.56" stop-color="#05080C"/>
<stop offset="1" stop-color="#020509"/>
</linearGradient>
<linearGradient id="paint5_linear_4_423" x1="-25.3412" y1="-120.485" x2="721.643" y2="1570.89" gradientUnits="userSpaceOnUse">
<stop stop-color="#191C20"/>
<stop offset="0.2" stop-color="#101317"/>
<stop offset="0.56" stop-color="#05080C"/>
<stop offset="1" stop-color="#020509"/>
</linearGradient>
<linearGradient id="paint6_linear_4_423" x1="-843.437" y1="866.061" x2="4831.34" y2="3064.53" gradientUnits="userSpaceOnUse">
<stop stop-color="#191C20"/>
<stop offset="0.2" stop-color="#101317"/>
<stop offset="0.56" stop-color="#05080C"/>
<stop offset="1" stop-color="#020509"/>
</linearGradient>
<linearGradient id="paint7_linear_4_423" x1="38.1912" y1="-147.038" x2="785.223" y2="1544.44" gradientUnits="userSpaceOnUse">
<stop stop-color="#191C20"/>
<stop offset="0.2" stop-color="#101317"/>
<stop offset="0.56" stop-color="#05080C"/>
<stop offset="1" stop-color="#020509"/>
</linearGradient>
<linearGradient id="paint8_linear_4_423" x1="-263.685" y1="-252.98" x2="5404.26" y2="1935.8" gradientUnits="userSpaceOnUse">
<stop stop-color="#191C20"/>
<stop offset="0.2" stop-color="#101317"/>
<stop offset="0.56" stop-color="#05080C"/>
<stop offset="1" stop-color="#020509"/>
</linearGradient>
<linearGradient id="paint9_linear_4_423" x1="-3071.58" y1="-774.663" x2="24836.4" y2="16626.4" gradientUnits="userSpaceOnUse">
<stop stop-color="#191C20"/>
<stop offset="0.2" stop-color="#101317"/>
<stop offset="0.56" stop-color="#05080C"/>
<stop offset="1" stop-color="#020509"/>
</linearGradient>
<linearGradient id="paint10_linear_4_423" x1="-5145.57" y1="2074.33" x2="7968.34" y2="17683" gradientUnits="userSpaceOnUse">
<stop stop-color="#191C20"/>
<stop offset="0.2" stop-color="#101317"/>
<stop offset="0.56" stop-color="#05080C"/>
<stop offset="1" stop-color="#020509"/>
</linearGradient>
<linearGradient id="paint11_linear_4_423" x1="-141.395" y1="-480.804" x2="4076.29" y2="-88.3256" gradientUnits="userSpaceOnUse">
<stop stop-color="#191C20"/>
<stop offset="0.2" stop-color="#101317"/>
<stop offset="0.56" stop-color="#05080C"/>
<stop offset="1" stop-color="#020509"/>
</linearGradient>
<linearGradient id="paint12_linear_4_423" x1="-836.006" y1="-4618.93" x2="19844.1" y2="213.769" gradientUnits="userSpaceOnUse">
<stop stop-color="#191C20"/>
<stop offset="0.2" stop-color="#101317"/>
<stop offset="0.56" stop-color="#05080C"/>
<stop offset="1" stop-color="#020509"/>
</linearGradient>
<linearGradient id="paint13_linear_4_423" x1="-28.8796" y1="45.4189" x2="265.561" y2="200.33" gradientUnits="userSpaceOnUse">
<stop stop-color="white"/>
<stop offset="1" stop-color="#020509"/>
</linearGradient>
<clipPath id="clip0_4_423">
<rect width="184.022" height="201.936" fill="white" transform="translate(0 47.6284) rotate(-15)"/>
</clipPath>
</defs>
<g clip-path="url(#clip0_4_423)">
<path fill-rule="evenodd" clip-rule="evenodd" d="M18.725 114.396L17.6114 105.818L19.716 100.482L25.0606 98.3696L33.6136 99.4881L94.6677 115.877L103.901 119.536L111.295 125.07L116.808 132.455L120.473 141.711L136.847 202.82L137.957 211.385L135.854 216.727L130.51 218.84L121.957 217.721L60.9044 201.339L51.6673 197.667L44.2772 192.146L38.7607 184.748L35.0992 175.505L18.725 114.396Z" fill="url(#paint0_linear_4_423)"/>
<path fill-rule="evenodd" clip-rule="evenodd" d="M22.9179 85.9765L28.1561 79.1205L72.8361 34.4002L80.6176 28.2174L89.0894 24.586L98.242 23.495L108.072 24.9587L169.12 41.3493L177.085 44.6676L180.654 49.1704L179.814 54.8546L174.578 61.7169L129.904 106.435L122.121 112.612L113.651 116.25L104.496 117.334L94.6677 115.877L33.6136 99.4881L25.6475 96.1634L22.0718 91.6624L22.9179 85.9765Z" fill="url(#paint1_linear_4_423)"/>
<path fill-rule="evenodd" clip-rule="evenodd" d="M120.473 141.711L119.013 131.864L120.101 122.71L123.724 114.224L129.904 106.435L174.578 61.7169L181.438 56.4683L187.11 55.6291L191.607 59.196L194.925 67.1831L211.3 128.292L212.756 138.126L211.672 147.293L208.045 155.766L201.868 163.568L157.193 208.28L150.333 213.528L144.66 214.368L140.162 210.794L136.847 202.82L120.473 141.711Z" fill="url(#paint2_linear_4_423)"/>
<path fill-rule="evenodd" clip-rule="evenodd" d="M40.356 187.36L44.2772 192.146L38.7607 184.748L40.356 187.36Z" fill="url(#paint3_linear_4_423)"/>
<path fill-rule="evenodd" clip-rule="evenodd" d="M28.1561 79.1205L21.9906 86.9124L20.5284 89.5957L18.3512 95.3889L17.3482 101.494L17.2711 104.548L18.725 114.396L17.6114 105.818L19.716 100.482L25.0605 98.3696L33.6136 99.4881L25.6475 96.1634L22.0718 91.6624L22.9179 85.9765L28.1561 79.1205Z" fill="url(#paint4_linear_4_423)"/>
<path fill-rule="evenodd" clip-rule="evenodd" d="M83.2963 26.7583L80.6176 28.2174L89.0894 24.586L83.2963 26.7583Z" fill="url(#paint5_linear_4_423)"/>
<path fill-rule="evenodd" clip-rule="evenodd" d="M49.0577 196.068L51.6673 197.667L44.2772 192.146L49.0577 196.068Z" fill="url(#paint6_linear_4_423)"/>
<path fill-rule="evenodd" clip-rule="evenodd" d="M95.1862 23.5724L89.0894 24.586L98.242 23.495L95.1862 23.5724Z" fill="url(#paint7_linear_4_423)"/>
<path fill-rule="evenodd" clip-rule="evenodd" d="M209.493 153.08L211.672 147.293L208.045 155.766L209.493 153.08Z" fill="url(#paint8_linear_4_423)"/>
<path fill-rule="evenodd" clip-rule="evenodd" d="M113.651 116.25L104.496 117.334L94.6677 115.877L103.901 119.536L111.295 125.07L116.808 132.455L120.473 141.711L119.013 131.864L120.101 122.71L123.724 114.224L129.904 106.435L122.121 112.612L113.651 116.25Z" fill="url(#paint9_linear_4_423)"/>
<path fill-rule="evenodd" clip-rule="evenodd" d="M144.66 214.368L140.162 210.794L136.847 202.82L137.957 211.385L135.854 216.727L130.51 218.84L121.957 217.721L131.787 219.185L134.837 219.109L140.94 218.094L146.727 215.923L149.412 214.463L157.193 208.28L150.333 213.528L144.66 214.368Z" fill="url(#paint10_linear_4_423)"/>
<path fill-rule="evenodd" clip-rule="evenodd" d="M212.675 141.188L212.756 138.126L211.672 147.293L212.675 141.188Z" fill="url(#paint11_linear_4_423)"/>
<path fill-rule="evenodd" clip-rule="evenodd" d="M191.267 57.9258L189.667 55.3216L185.746 50.5357L180.963 46.6073L178.368 45.0112L169.12 41.3493L177.085 44.6677L180.654 49.1704L179.814 54.8546L174.578 61.7169L181.438 56.4684L187.11 55.6292L191.607 59.196L194.925 67.1831L191.267 57.9258Z" fill="url(#paint12_linear_4_423)"/>
<g style="mix-blend-mode:overlay">
<path d="M195.698 66.9761C195.698 66.9761 195.69 66.9446 195.686 66.9321C195.683 66.9195 195.686 66.932 195.674 66.888L195.649 66.7937L192.035 57.6525C192.035 57.6525 192.025 57.6148 192.018 57.5896C192.011 57.5645 192.005 57.5393 191.998 57.5142L190.394 54.9179C190.394 54.9179 190.394 54.9179 190.382 54.8739C190.37 54.8299 190.372 54.8362 190.367 54.8173L186.445 50.0314C186.437 50 186.401 50.0432 186.375 49.9963C186.349 49.9493 186.36 49.9397 186.353 49.9145L181.578 45.9844C181.578 45.9844 181.54 45.9945 181.527 45.9979C181.515 46.0012 181.517 45.9601 181.514 45.9475L178.912 44.3532C178.912 44.3532 178.868 44.365 178.849 44.37C178.831 44.3751 178.838 44.326 178.795 44.3172L169.42 40.6085C169.42 40.6085 169.388 40.6169 169.37 40.6219C169.351 40.627 169.37 40.622 169.361 40.5905L108.313 24.1999C108.313 24.1999 108.313 24.1999 108.269 24.2117C108.225 24.2235 108.269 24.2117 108.228 24.1824L98.4117 22.7216C98.4117 22.7216 98.3678 22.7334 98.3426 22.7401C98.3175 22.7468 98.3325 22.7024 98.2743 22.7112L95.1645 22.7627C95.1645 22.7627 95.1268 22.7728 95.108 22.7779C95.0891 22.7829 95.108 22.7778 95.0577 22.7913L88.9655 23.7969C88.9278 23.807 88.9215 23.8087 88.8901 23.8171C88.8587 23.8255 88.8399 23.8306 88.8085 23.839L83.0171 26.0176C83.0171 26.0176 83.0171 26.0176 82.9668 26.0311C82.9166 26.0445 82.9291 26.0412 82.9103 26.0462L80.2361 27.4974C80.2361 27.4974 80.2047 27.5058 80.1914 27.5565C80.178 27.6073 80.1474 27.5683 80.1223 27.575L72.3517 33.7482C72.3517 33.7482 72.3517 33.7482 72.3304 33.7943C72.3091 33.8405 72.3304 33.7943 72.2801 33.8078L27.6002 78.5281C27.6002 78.5281 27.6002 78.5281 27.6103 78.5658C27.6204 78.6035 27.6103 78.5658 27.56 78.5793L21.3945 86.3712C21.3945 86.3712 21.4063 86.4152 21.4114 86.4341C21.4164 86.4529 21.3674 86.4459 21.3486 86.4509L19.8881 89.1405C19.8881 89.1405 19.8982 89.1782 19.9016 89.1908C19.905 89.2034 19.8639 89.2009 19.8513 89.2042L17.6741 94.9974C17.6741 94.9974 17.6893 95.054 17.696 95.0792C17.7028 95.1043 17.6521 95.091 17.653 95.1446L16.65 101.25C16.65 101.25 16.6601 101.288 16.6652 101.307C16.6702 101.325 16.6338 101.315 16.6393 101.361L16.5684 104.413C16.5684 104.413 16.5802 104.457 16.5886 104.488C16.597 104.519 16.5656 104.528 16.5724 104.553L18.0006 114.28L18.0242 114.368C18.0242 114.368 18.0326 114.399 18.0377 114.418C18.0427 114.437 18.0377 114.418 18.0495 114.462L34.4236 175.571C34.4236 175.571 34.4236 175.571 34.4354 175.615C34.4472 175.659 34.4354 175.615 34.4472 175.659L38.1166 184.907C38.1166 184.907 38.1167 184.907 38.1632 184.955C38.2098 185.003 38.175 184.999 38.1818 185.024L39.769 187.632C39.769 187.632 39.8004 187.624 39.8185 187.666C39.8366 187.708 39.8286 187.704 39.8337 187.723L43.7277 192.482L43.7361 192.513C43.7361 192.513 43.7801 192.502 43.8079 192.555C43.8356 192.608 43.8213 192.605 43.8281 192.63L48.5733 196.522C48.5733 196.522 48.6109 196.511 48.6319 196.54C48.6529 196.568 48.642 196.577 48.6471 196.596L51.255 198.189C51.255 198.189 51.299 198.177 51.3178 198.172C51.3367 198.167 51.3296 198.216 51.333 198.229L60.5701 201.9C60.5701 201.9 60.6015 201.892 60.6204 201.887C60.6392 201.882 60.6204 201.887 60.6305 201.924L121.749 218.505C121.749 218.505 121.749 218.505 121.8 218.491C121.85 218.478 121.8 218.491 121.841 218.521L121.879 218.511L131.683 219.927C131.683 219.927 131.727 219.916 131.752 219.909C131.777 219.902 131.762 219.947 131.821 219.938L134.864 219.864C134.864 219.864 134.901 219.854 134.92 219.849C134.939 219.843 134.92 219.849 134.979 219.867L141.082 218.851C141.113 218.843 141.132 218.838 141.164 218.829C141.195 218.821 141.201 218.819 141.239 218.809L147.02 216.64C147.02 216.64 147.02 216.64 147.061 216.595C147.103 216.55 147.099 216.585 147.118 216.58L149.803 215.119C149.803 215.119 149.795 215.088 149.848 215.06C149.901 215.032 149.892 215.048 149.917 215.042L157.687 208.869C157.687 208.869 157.687 208.869 157.709 208.822C157.73 208.776 157.709 208.822 157.753 208.811L202.426 164.092C202.426 164.092 202.426 164.092 202.416 164.054C202.406 164.017 202.448 164.046 202.46 164.043L208.63 156.243C208.63 156.243 208.619 156.199 208.653 156.176C208.687 156.153 208.697 156.164 208.707 156.128L210.163 153.446C210.163 153.446 210.163 153.446 210.15 153.396C210.136 153.345 210.187 153.386 210.191 153.351L212.364 147.566C212.373 147.538 212.379 147.509 212.382 147.48C212.382 147.48 212.382 147.48 212.413 147.472L212.405 147.44L213.397 141.371C213.397 141.371 213.387 141.334 213.382 141.315C213.377 141.296 213.382 141.315 213.37 141.271L213.46 138.214C213.46 138.214 213.448 138.17 213.443 138.151C213.438 138.132 213.431 138.107 213.424 138.082L211.968 128.248C211.968 128.248 211.968 128.248 211.956 128.204C211.944 128.16 211.956 128.204 211.944 128.16L195.698 66.9761ZM201.239 163.028L156.654 207.676L149.999 212.762L144.879 213.527L140.816 210.296L137.598 202.558L121.254 141.562L119.817 131.878L120.881 122.933L124.429 114.669L130.506 106.975L175.091 62.3274L181.745 57.2354L186.872 56.4747L190.934 59.6998L194.155 67.45L210.499 128.446L211.933 138.118L210.865 147.071L207.329 155.331L201.239 163.028ZM146.395 215.19L140.731 217.314L134.757 218.309L134 218.323L136.124 217.484C136.234 217.425 136.327 217.34 136.395 217.236C136.467 217.156 136.58 217.099 136.608 217.004L138.702 211.678C138.735 211.601 138.668 211.552 138.702 211.476C138.735 211.399 138.766 211.364 138.75 211.28L138.416 208.674L139.423 211.1C139.443 211.176 139.53 211.2 139.574 211.262C139.617 211.325 139.606 211.382 139.665 211.426L144.146 214.984C144.216 215.046 144.328 215.036 144.425 215.071C144.522 215.106 144.655 215.178 144.772 215.16L147.05 214.819L146.395 215.19ZM61.1734 200.559L52.0884 196.928L44.8678 191.536L39.4868 184.318L35.8783 175.222L19.5345 114.226L18.4615 105.9L20.3603 101.078L25.1878 99.1712L33.4832 100.258L94.417 116.625L103.533 120.248L110.732 125.632L116.113 132.85L119.723 141.952L136.067 202.948L137.143 211.26L135.246 216.088L130.423 217.987L122.109 216.933L61.1734 200.559ZM18.1773 101.548L19.1529 95.592L21.288 89.9179L21.6397 89.271L21.3087 91.5029C21.2867 91.5964 21.3593 91.6915 21.3846 91.7859C21.3905 91.9086 21.4227 92.0287 21.4789 92.138L25.0546 96.639C25.1063 96.7061 25.1707 96.6956 25.2299 96.7404C25.289 96.7852 25.2996 96.8497 25.3759 96.8832L27.7781 97.884L25.2043 97.5493C25.1125 97.5334 25.0724 97.5846 24.997 97.6048C24.9216 97.625 24.8797 97.5688 24.7997 97.597L19.4786 99.6968C19.3907 99.7203 19.3372 99.8223 19.2611 99.8899C19.1849 99.9574 19.0569 100.032 19.013 100.145L18.1754 102.27L18.1773 101.548ZM73.3622 35.0073L81.0379 28.9068L89.2933 25.3468L98.2289 24.3005L107.926 25.7459L168.859 42.1068L176.583 45.3344L179.812 49.3959L179.048 54.5341L173.952 61.1904L129.367 105.838L121.698 111.937L113.442 115.497L104.519 116.54L94.8278 115.093L33.8923 98.7192L26.163 95.4996L22.9323 91.4318L23.698 86.2999L28.7739 79.6424L73.3622 35.0073ZM180.5 47.2639L185.178 51.1057L189.011 55.7872L189.403 56.4233L187.608 54.9972C187.521 54.9302 187.421 54.8831 187.315 54.8592C187.208 54.8353 187.098 54.8352 186.992 54.859L181.365 55.6927C181.283 55.7145 181.251 55.7703 181.185 55.8014C181.12 55.8325 181.066 55.8334 180.991 55.8536L178.912 57.4418L180.496 55.366C180.541 55.3068 180.527 55.2297 180.55 55.163C180.572 55.0963 180.641 55.0778 180.653 54.9939L181.493 49.3365C181.517 49.2493 181.446 49.1605 181.42 49.0661C181.414 48.9413 181.381 48.8191 181.324 48.7077L179.893 46.9076L180.5 47.2639ZM123.105 113.723C123.105 113.723 123.124 113.792 123.074 113.833C123.024 113.873 123.005 113.851 122.993 113.908L119.368 122.388C119.378 122.425 119.388 122.463 119.397 122.494C119.405 122.526 119.346 122.555 119.339 122.604L118.251 131.759C118.261 131.796 118.269 131.828 118.279 131.866C118.289 131.903 118.249 131.928 118.254 131.973L118.696 134.955L117.58 132.147C117.57 132.109 117.529 132.107 117.507 132.073C117.484 132.038 117.486 131.997 117.478 131.966L111.965 124.58C111.951 124.53 111.888 124.547 111.86 124.514C111.831 124.481 111.839 124.439 111.831 124.407L104.439 118.88C104.439 118.88 104.376 118.896 104.338 118.853C104.299 118.809 104.319 118.784 104.256 118.774L101.499 117.679L104.444 118.117C104.481 118.107 104.513 118.098 104.55 118.088C104.588 118.078 104.614 118.125 104.653 118.121L113.784 117.023C113.821 117.013 113.853 117.004 113.897 116.993C113.941 116.981 113.96 116.976 114.004 116.964L122.46 113.35C122.498 113.34 122.498 113.293 122.533 113.27C122.567 113.247 122.602 113.251 122.639 113.241L124.966 111.398L123.105 113.723Z" fill="#3E3E3E"/>
</g>
<path style="mix-blend-mode:overlay" opacity="0.56" d="M195.698 66.9761C195.698 66.9761 195.69 66.9446 195.686 66.9321C195.683 66.9195 195.686 66.932 195.674 66.888L195.649 66.7937L192.035 57.6525C192.035 57.6525 192.025 57.6148 192.018 57.5896C192.011 57.5645 192.005 57.5393 191.998 57.5142L190.394 54.9179C190.394 54.9179 190.394 54.9179 190.382 54.8739C190.37 54.8299 190.372 54.8362 190.367 54.8173L186.445 50.0314C186.437 50 186.401 50.0432 186.375 49.9963C186.349 49.9493 186.36 49.9397 186.353 49.9145L181.578 45.9844C181.578 45.9844 181.54 45.9945 181.527 45.9979C181.515 46.0012 181.517 45.9601 181.514 45.9475L178.912 44.3532C178.912 44.3532 178.868 44.365 178.849 44.37C178.831 44.3751 178.838 44.326 178.795 44.3172L169.42 40.6085C169.42 40.6085 169.388 40.6169 169.37 40.6219C169.351 40.627 169.37 40.622 169.361 40.5905L108.313 24.1999C108.313 24.1999 108.313 24.1999 108.269 24.2117C108.225 24.2235 108.269 24.2117 108.228 24.1824L98.4117 22.7216C98.4117 22.7216 98.3678 22.7334 98.3426 22.7401C98.3175 22.7468 98.3325 22.7024 98.2743 22.7112L95.1645 22.7627C95.1645 22.7627 95.1268 22.7728 95.108 22.7779C95.0891 22.7829 95.108 22.7778 95.0577 22.7913L88.9655 23.7969C88.9278 23.807 88.9215 23.8087 88.8901 23.8171C88.8587 23.8255 88.8399 23.8306 88.8085 23.839L83.0171 26.0176C83.0171 26.0176 83.0171 26.0176 82.9668 26.0311C82.9166 26.0445 82.9291 26.0412 82.9103 26.0462L80.2361 27.4974C80.2361 27.4974 80.2047 27.5058 80.1914 27.5565C80.178 27.6073 80.1474 27.5683 80.1223 27.575L72.3517 33.7482C72.3517 33.7482 72.3517 33.7482 72.3304 33.7943C72.3091 33.8405 72.3304 33.7943 72.2801 33.8078L27.6002 78.5281C27.6002 78.5281 27.6002 78.5281 27.6103 78.5658C27.6204 78.6035 27.6103 78.5658 27.56 78.5793L21.3945 86.3712C21.3945 86.3712 21.4063 86.4152 21.4114 86.4341C21.4164 86.4529 21.3674 86.4459 21.3486 86.4509L19.8881 89.1405C19.8881 89.1405 19.8982 89.1782 19.9016 89.1908C19.905 89.2034 19.8639 89.2009 19.8513 89.2042L17.6741 94.9974C17.6741 94.9974 17.6893 95.054 17.696 95.0792C17.7028 95.1043 17.6521 95.091 17.653 95.1446L16.65 101.25C16.65 101.25 16.6601 101.288 16.6652 101.307C16.6702 101.325 16.6338 101.315 16.6393 101.361L16.5684 104.413C16.5684 104.413 16.5802 104.457 16.5886 104.488C16.597 104.519 16.5656 104.528 16.5724 104.553L18.0006 114.28L18.0242 114.368C18.0242 114.368 18.0326 114.399 18.0377 114.418C18.0427 114.437 18.0377 114.418 18.0495 114.462L34.4236 175.571C34.4236 175.571 34.4236 175.571 34.4354 175.615C34.4472 175.659 34.4354 175.615 34.4472 175.659L38.1166 184.907C38.1166 184.907 38.1167 184.907 38.1632 184.955C38.2098 185.003 38.175 184.999 38.1818 185.024L39.769 187.632C39.769 187.632 39.8004 187.624 39.8185 187.666C39.8366 187.708 39.8286 187.704 39.8337 187.723L43.7277 192.482L43.7361 192.513C43.7361 192.513 43.7801 192.502 43.8079 192.555C43.8356 192.608 43.8213 192.605 43.8281 192.63L48.5733 196.522C48.5733 196.522 48.6109 196.511 48.6319 196.54C48.6529 196.568 48.642 196.577 48.6471 196.596L51.255 198.189C51.255 198.189 51.299 198.177 51.3178 198.172C51.3367 198.167 51.3296 198.216 51.333 198.229L60.5701 201.9C60.5701 201.9 60.6015 201.892 60.6204 201.887C60.6392 201.882 60.6204 201.887 60.6305 201.924L121.749 218.505C121.749 218.505 121.749 218.505 121.8 218.491C121.85 218.478 121.8 218.491 121.841 218.521L121.879 218.511L131.683 219.927C131.683 219.927 131.727 219.916 131.752 219.909C131.777 219.902 131.762 219.947 131.821 219.938L134.864 219.864C134.864 219.864 134.901 219.854 134.92 219.849C134.939 219.843 134.92 219.849 134.979 219.867L141.082 218.851C141.113 218.843 141.132 218.838 141.164 218.829C141.195 218.821 141.201 218.819 141.239 218.809L147.02 216.64C147.02 216.64 147.02 216.64 147.061 216.595C147.103 216.55 147.099 216.585 147.118 216.58L149.803 215.119C149.803 215.119 149.795 215.088 149.848 215.06C149.901 215.032 149.892 215.048 149.917 215.042L157.687 208.869C157.687 208.869 157.687 208.869 157.709 208.822C157.73 208.776 157.709 208.822 157.753 208.811L202.426 164.092C202.426 164.092 202.426 164.092 202.416 164.054C202.406 164.017 202.448 164.046 202.46 164.043L208.63 156.243C208.63 156.243 208.619 156.199 208.653 156.176C208.687 156.153 208.697 156.164 208.707 156.128L210.163 153.446C210.163 153.446 210.163 153.446 210.15 153.396C210.136 153.345 210.187 153.386 210.191 153.351L212.364 147.566C212.373 147.538 212.379 147.509 212.382 147.48C212.382 147.48 212.382 147.48 212.413 147.472L212.405 147.44L213.397 141.371C213.397 141.371 213.387 141.334 213.382 141.315C213.377 141.296 213.382 141.315 213.37 141.271L213.46 138.214C213.46 138.214 213.448 138.17 213.443 138.151C213.438 138.132 213.431 138.107 213.424 138.082L211.968 128.248C211.968 128.248 211.968 128.248 211.956 128.204C211.944 128.16 211.956 128.204 211.944 128.16L195.698 66.9761ZM201.239 163.028L156.654 207.676L149.999 212.762L144.879 213.527L140.816 210.296L137.598 202.558L121.254 141.562L119.817 131.878L120.881 122.933L124.429 114.669L130.506 106.975L175.091 62.3274L181.745 57.2354L186.872 56.4747L190.934 59.6998L194.155 67.45L210.499 128.446L211.933 138.118L210.865 147.071L207.329 155.331L201.239 163.028ZM146.395 215.19L140.731 217.314L134.757 218.309L134 218.323L136.124 217.484C136.234 217.425 136.327 217.34 136.395 217.236C136.467 217.156 136.58 217.099 136.608 217.004L138.702 211.678C138.735 211.601 138.668 211.552 138.702 211.476C138.735 211.399 138.766 211.364 138.75 211.28L138.416 208.674L139.423 211.1C139.443 211.176 139.53 211.2 139.574 211.262C139.617 211.325 139.606 211.382 139.665 211.426L144.146 214.984C144.216 215.046 144.328 215.036 144.425 215.071C144.522 215.106 144.655 215.178 144.772 215.16L147.05 214.819L146.395 215.19ZM61.1734 200.559L52.0884 196.928L44.8678 191.536L39.4868 184.318L35.8783 175.222L19.5345 114.226L18.4615 105.9L20.3603 101.078L25.1878 99.1712L33.4832 100.258L94.417 116.625L103.533 120.248L110.732 125.632L116.113 132.85L119.723 141.952L136.067 202.948L137.143 211.26L135.246 216.088L130.423 217.987L122.109 216.933L61.1734 200.559ZM18.1773 101.548L19.1529 95.592L21.288 89.9179L21.6397 89.271L21.3087 91.5029C21.2867 91.5964 21.3593 91.6915 21.3846 91.7859C21.3905 91.9086 21.4227 92.0287 21.4789 92.138L25.0546 96.639C25.1063 96.7061 25.1707 96.6956 25.2299 96.7404C25.289 96.7852 25.2996 96.8497 25.3759 96.8832L27.7781 97.884L25.2043 97.5493C25.1125 97.5334 25.0724 97.5846 24.997 97.6048C24.9216 97.625 24.8797 97.5688 24.7997 97.597L19.4786 99.6968C19.3907 99.7203 19.3372 99.8223 19.2611 99.8899C19.1849 99.9574 19.0569 100.032 19.013 100.145L18.1754 102.27L18.1773 101.548ZM73.3622 35.0073L81.0379 28.9068L89.2933 25.3468L98.2289 24.3005L107.926 25.7459L168.859 42.1068L176.583 45.3344L179.812 49.3959L179.048 54.5341L173.952 61.1904L129.367 105.838L121.698 111.937L113.442 115.497L104.519 116.54L94.8278 115.093L33.8923 98.7192L26.163 95.4996L22.9323 91.4318L23.698 86.2999L28.7739 79.6424L73.3622 35.0073ZM180.5 47.2639L185.178 51.1057L189.011 55.7872L189.403 56.4233L187.608 54.9972C187.521 54.9302 187.421 54.8831 187.315 54.8592C187.208 54.8353 187.098 54.8352 186.992 54.859L181.365 55.6927C181.283 55.7145 181.251 55.7703 181.185 55.8014C181.12 55.8325 181.066 55.8334 180.991 55.8536L178.912 57.4418L180.496 55.366C180.541 55.3068 180.527 55.2297 180.55 55.163C180.572 55.0963 180.641 55.0778 180.653 54.9939L181.493 49.3365C181.517 49.2493 181.446 49.1605 181.42 49.0661C181.414 48.9413 181.381 48.8191 181.324 48.7077L179.893 46.9076L180.5 47.2639ZM123.105 113.723C123.105 113.723 123.124 113.792 123.074 113.833C123.024 113.873 123.005 113.851 122.993 113.908L119.368 122.388C119.378 122.425 119.388 122.463 119.397 122.494C119.405 122.526 119.346 122.555 119.339 122.604L118.251 131.759C118.261 131.796 118.269 131.828 118.279 131.866C118.289 131.903 118.249 131.928 118.254 131.973L118.696 134.955L117.58 132.147C117.57 132.109 117.529 132.107 117.507 132.073C117.484 132.038 117.486 131.997 117.478 131.966L111.965 124.58C111.951 124.53 111.888 124.547 111.86 124.514C111.831 124.481 111.839 124.439 111.831 124.407L104.439 118.88C104.439 118.88 104.376 118.896 104.338 118.853C104.299 118.809 104.319 118.784 104.256 118.774L101.499 117.679L104.444 118.117C104.481 118.107 104.513 118.098 104.55 118.088C104.588 118.078 104.614 118.125 104.653 118.121L113.784 117.023C113.821 117.013 113.853 117.004 113.897 116.993C113.941 116.981 113.96 116.976 114.004 116.964L122.46 113.35C122.498 113.34 122.498 113.293 122.533 113.27C122.567 113.247 122.602 113.251 122.639 113.241L124.966 111.398L123.105 113.723Z" fill="url(#paint13_linear_4_423)"/>
<path d="M61.6971 131.438C61.81 131.859 61.5767 132.144 61.1341 132C60.9039 131.923 60.6947 131.793 60.5226 131.622C60.3506 131.451 60.2205 131.242 60.1424 131.012C59.219 127.566 55.6514 123.999 52.2171 123.066C51.9858 122.991 51.7751 122.862 51.6019 122.691C51.4287 122.52 51.2976 122.311 51.2191 122.08C51.1029 121.646 51.3521 121.37 51.793 121.508C56.091 122.675 60.527 127.121 61.6971 131.438ZM44.548 126.779C45.9347 131.954 51.2785 137.276 56.4465 138.674C61.6144 140.073 64.67 137.03 63.2707 131.859C61.8714 126.687 56.5368 121.349 51.3689 119.951C46.2009 118.552 43.1454 121.595 44.548 126.779Z" fill="white"/>
<path d="M51.2191 122.08C51.2976 122.311 51.4287 122.52 51.6019 122.691C51.7751 122.862 51.9858 122.991 52.2171 123.066C55.6514 123.999 59.2065 127.569 60.1424 131.012C60.2205 131.242 60.3506 131.451 60.5226 131.622C60.6947 131.793 60.9039 131.923 61.1341 132C61.5699 132.119 61.8163 131.857 61.6971 131.438C60.5395 127.118 56.091 122.675 51.793 121.508C51.3572 121.389 51.1029 121.646 51.2191 122.08Z" fill="black"/>
<path d="M125.14 194.931C125.256 195.365 125.007 195.64 124.566 195.502C124.336 195.424 124.128 195.293 123.958 195.12C123.787 194.947 123.66 194.736 123.585 194.505C122.662 191.059 119.085 187.508 115.645 186.577C115.416 186.497 115.208 186.365 115.038 186.192C114.868 186.019 114.74 185.81 114.664 185.579C114.546 185.139 114.797 184.87 115.225 185.011C119.531 186.182 123.975 190.633 125.14 194.931ZM107.991 190.272C109.378 195.447 114.711 200.778 119.88 202.183C125.05 203.588 128.099 200.52 126.699 195.349C125.3 190.177 119.973 184.844 114.798 183.441C109.622 182.037 106.592 185.1 107.991 190.272Z" fill="white"/>
<path d="M114.664 185.579C114.74 185.81 114.868 186.019 115.038 186.192C115.208 186.365 115.416 186.497 115.645 186.577C119.085 187.508 122.649 191.062 123.585 194.505C123.66 194.736 123.787 194.947 123.958 195.12C124.128 195.293 124.336 195.424 124.566 195.502C125.002 195.621 125.256 195.365 125.14 194.931C123.988 190.629 119.531 186.183 115.225 185.011C114.805 184.901 114.546 185.139 114.664 185.579Z" fill="black"/>
<path d="M102.784 51.2992C102.606 51.4616 102.391 51.5789 102.159 51.6412C101.926 51.7036 101.681 51.7092 101.446 51.6577C101.01 51.5386 100.916 51.1864 101.235 50.8716C103.768 48.3396 103.038 45.5157 99.6007 44.5699C99.1649 44.4508 99.0705 44.0987 99.3901 43.7839C99.5717 43.6188 99.7902 43.4995 100.027 43.4359C100.264 43.3724 100.513 43.3665 100.753 43.4187C105.051 44.5855 105.969 48.0868 102.799 51.2816L102.784 51.2992ZM85.6348 46.6407C81.8352 50.449 82.9515 54.6655 88.1245 56.0831C93.2975 57.5007 100.561 55.541 104.361 51.7326C108.16 47.9243 107.055 43.6981 101.884 42.2868C96.7124 40.8754 89.447 42.8289 85.6348 46.6407Z" fill="white"/>
<path d="M99.3747 43.8015C99.0676 44.1129 99.162 44.4651 99.5853 44.5876C103.02 45.5208 103.749 48.3447 101.22 50.8893C100.907 51.2024 101.001 51.5545 101.431 51.6753C101.666 51.7269 101.91 51.7212 102.143 51.6588C102.376 51.5965 102.59 51.4792 102.768 51.3168C105.956 48.1376 105.021 44.6476 100.722 43.4539C100.482 43.4017 100.233 43.4077 99.9964 43.4712C99.7593 43.5347 99.5408 43.654 99.3592 43.8191" fill="black"/>
<path d="M109.375 76.4515C109.195 76.6145 108.979 76.7324 108.744 76.7953C108.509 76.8582 108.263 76.8644 108.025 76.8133C107.936 76.8056 107.851 76.7706 107.782 76.713C107.714 76.6555 107.664 76.5781 107.641 76.4915C107.618 76.4049 107.622 76.3133 107.653 76.2291C107.683 76.1449 107.739 76.0723 107.813 76.021C110.345 73.4889 109.611 70.673 106.165 69.7226C106.074 69.7189 105.986 69.686 105.915 69.6287C105.843 69.5715 105.792 69.4929 105.768 69.4044C105.745 69.316 105.75 69.2223 105.783 69.137C105.816 69.0517 105.876 68.9793 105.953 68.9303C106.133 68.7672 106.35 68.6494 106.585 68.5865C106.819 68.5236 107.066 68.5174 107.303 68.5685C111.595 69.737 112.513 73.2383 109.361 76.4217L109.375 76.4515ZM92.2388 71.7896C88.4267 75.6013 89.5304 79.8211 94.7097 81.2371C99.8889 82.653 107.132 80.692 110.952 76.8849C114.772 73.0778 113.645 68.8709 108.475 67.439C103.305 66.0072 96.0368 67.9749 92.2388 71.7896Z" fill="white"/>
<path d="M105.979 68.9504C105.901 68.9994 105.842 69.0718 105.809 69.1571C105.775 69.2424 105.77 69.3361 105.794 69.4246C105.818 69.513 105.869 69.5916 105.94 69.6489C106.012 69.7061 106.1 69.739 106.191 69.7428C109.632 70.6743 110.366 73.4902 107.838 76.0411C107.765 76.0924 107.709 76.165 107.678 76.2492C107.648 76.3334 107.644 76.425 107.667 76.5116C107.69 76.5982 107.739 76.6756 107.808 76.7331C107.877 76.7907 107.961 76.8257 108.051 76.8334C108.288 76.8844 108.535 76.8783 108.769 76.8154C109.004 76.7525 109.221 76.6346 109.401 76.4715C112.59 73.2986 111.653 69.8024 107.344 68.6184C107.106 68.5673 106.86 68.5735 106.625 68.6364C106.39 68.6993 106.174 68.8171 105.993 68.9802" fill="black"/>
<path d="M115.975 101.608C115.791 101.77 115.573 101.888 115.336 101.951C115.1 102.014 114.852 102.022 114.612 101.974C114.19 101.857 114.102 101.504 114.401 101.188C116.934 98.6555 116.177 95.8321 112.716 94.8993C112.295 94.7831 112.2 94.431 112.506 94.1132C112.686 93.9532 112.902 93.8374 113.135 93.7749C113.368 93.7124 113.613 93.7049 113.85 93.7531C118.156 94.9245 119.08 98.451 115.917 101.617L115.975 101.608ZM98.7674 96.9587C94.9661 100.761 96.059 104.99 101.232 106.408C106.405 107.825 113.681 105.862 117.481 102.054C121.281 98.2456 120.189 94.0224 115.004 92.6081C109.818 91.1939 102.569 93.1566 98.7674 96.9587Z" fill="white"/>
<path d="M112.564 94.1044C112.246 94.4254 112.34 94.7776 112.774 94.8904C116.209 95.8236 116.965 98.6471 114.459 101.179C114.141 101.5 114.23 101.854 114.67 101.965C114.91 102.013 115.158 102.005 115.394 101.942C115.631 101.879 115.849 101.761 116.033 101.599C119.222 98.4265 118.285 94.9303 113.966 93.7354C113.73 93.6872 113.485 93.6946 113.252 93.7571C113.018 93.8196 112.803 93.9355 112.622 94.0955" fill="black"/>
<path d="M170.612 128.168C170.288 128.491 169.944 128.388 169.826 127.948C168.904 124.508 166.071 123.784 163.539 126.316C163.221 126.637 162.877 126.534 162.759 126.094C162.707 125.858 162.713 125.614 162.776 125.381C162.839 125.148 162.957 124.934 163.121 124.757C166.278 121.592 169.809 122.506 170.974 126.804C171.025 127.044 171.018 127.293 170.956 127.53C170.893 127.766 170.775 127.985 170.612 128.168ZM162.695 123.193C158.895 127.001 156.916 134.285 158.346 139.448C159.777 144.612 163.967 145.726 167.762 141.926C171.557 138.126 173.538 130.822 172.107 125.658C170.677 120.495 166.484 119.394 162.695 123.193Z" fill="white"/>
<path d="M163.121 124.757C162.957 124.934 162.839 125.148 162.776 125.381C162.713 125.614 162.707 125.858 162.759 126.094C162.877 126.534 163.223 126.644 163.539 126.316C166.071 123.784 168.898 124.51 169.826 127.948C169.944 128.388 170.29 128.497 170.612 128.168C170.775 127.985 170.893 127.766 170.956 127.53C171.018 127.293 171.025 127.044 170.974 126.804C169.821 122.503 166.278 121.592 163.121 124.757Z" fill="black"/>
</g>
</svg>
