<svg width="131" height="139" viewBox="0 0 131 139" fill="none" xmlns="http://www.w3.org/2000/svg">
<defs>
<linearGradient id="paint0_linear_4_349" x1="-67.346" y1="-20.8305" x2="89.1367" y2="132.099" gradientUnits="userSpaceOnUse">
<stop stop-color="#2D2F34"/>
<stop offset="0.29" stop-color="#282A2F"/>
<stop offset="0.65" stop-color="#181B1F"/>
<stop offset="1" stop-color="#020509"/>
</linearGradient>
<linearGradient id="paint1_linear_4_349" x1="84.0987" y1="101.505" x2="22412.5" y2="29208" gradientUnits="userSpaceOnUse">
<stop stop-color="#2D2F34"/>
<stop offset="0.29" stop-color="#282A2F"/>
<stop offset="0.65" stop-color="#181B1F"/>
<stop offset="1" stop-color="#020509"/>
</linearGradient>
<linearGradient id="paint2_linear_4_349" x1="-15868.1" y1="14024" x2="19566.3" y2="20748.1" gradientUnits="userSpaceOnUse">
<stop stop-color="#2D2F34"/>
<stop offset="0.29" stop-color="#282A2F"/>
<stop offset="0.65" stop-color="#181B1F"/>
<stop offset="1" stop-color="#020509"/>
</linearGradient>
<linearGradient id="paint3_linear_4_349" x1="-48.9774" y1="8.45179" x2="173.338" y2="310.08" gradientUnits="userSpaceOnUse">
<stop stop-color="#191C20"/>
<stop offset="0.2" stop-color="#101317"/>
<stop offset="0.56" stop-color="#05080C"/>
<stop offset="1" stop-color="#020509"/>
</linearGradient>
<linearGradient id="paint4_linear_4_349" x1="-976.238" y1="-676.817" x2="8857.1" y2="7264.84" gradientUnits="userSpaceOnUse">
<stop stop-color="#191C20"/>
<stop offset="0.2" stop-color="#101317"/>
<stop offset="0.56" stop-color="#05080C"/>
<stop offset="1" stop-color="#020509"/>
</linearGradient>
<linearGradient id="paint5_linear_4_349" x1="52.5326" y1="-96.2501" x2="15.5704" y2="1002.67" gradientUnits="userSpaceOnUse">
<stop stop-color="#191C20"/>
<stop offset="0.2" stop-color="#101317"/>
<stop offset="0.56" stop-color="#05080C"/>
<stop offset="1" stop-color="#020509"/>
</linearGradient>
<linearGradient id="paint6_linear_4_349" x1="-641.166" y1="220.677" x2="1830.93" y2="2867.38" gradientUnits="userSpaceOnUse">
<stop stop-color="#191C20"/>
<stop offset="0.2" stop-color="#101317"/>
<stop offset="0.56" stop-color="#05080C"/>
<stop offset="1" stop-color="#020509"/>
</linearGradient>
<linearGradient id="paint7_linear_4_349" x1="93.5183" y1="-94.0362" x2="56.56" y2="1004.87" gradientUnits="userSpaceOnUse">
<stop stop-color="#191C20"/>
<stop offset="0.2" stop-color="#101317"/>
<stop offset="0.56" stop-color="#05080C"/>
<stop offset="1" stop-color="#020509"/>
</linearGradient>
<linearGradient id="paint8_linear_4_349" x1="-41.297" y1="-229.246" x2="2430.34" y2="2411.15" gradientUnits="userSpaceOnUse">
<stop stop-color="#191C20"/>
<stop offset="0.2" stop-color="#101317"/>
<stop offset="0.56" stop-color="#05080C"/>
<stop offset="1" stop-color="#020509"/>
</linearGradient>
<linearGradient id="paint9_linear_4_349" x1="-1411.99" y1="-1233.81" x2="9037.56" y2="15309.8" gradientUnits="userSpaceOnUse">
<stop stop-color="#191C20"/>
<stop offset="0.2" stop-color="#101317"/>
<stop offset="0.56" stop-color="#05080C"/>
<stop offset="1" stop-color="#020509"/>
</linearGradient>
<linearGradient id="paint10_linear_4_349" x1="-3260.57" y1="-243.881" x2="-272.688" y2="11507.3" gradientUnits="userSpaceOnUse">
<stop stop-color="#191C20"/>
<stop offset="0.2" stop-color="#101317"/>
<stop offset="0.56" stop-color="#05080C"/>
<stop offset="1" stop-color="#020509"/>
</linearGradient>
<linearGradient id="paint11_linear_4_349" x1="83.4161" y1="-319.171" x2="2242.78" y2="982.541" gradientUnits="userSpaceOnUse">
<stop stop-color="#191C20"/>
<stop offset="0.2" stop-color="#101317"/>
<stop offset="0.56" stop-color="#05080C"/>
<stop offset="1" stop-color="#020509"/>
</linearGradient>
<linearGradient id="paint12_linear_4_349" x1="780.452" y1="-2714.84" x2="10613.7" y2="5226.65" gradientUnits="userSpaceOnUse">
<stop stop-color="#191C20"/>
<stop offset="0.2" stop-color="#101317"/>
<stop offset="0.56" stop-color="#05080C"/>
<stop offset="1" stop-color="#020509"/>
</linearGradient>
<linearGradient id="paint13_linear_4_349" x1="7.75038" y1="-8.30604" x2="125.428" y2="150.881" gradientUnits="userSpaceOnUse">
<stop stop-color="white"/>
<stop offset="1" stop-color="#020509"/>
</linearGradient>
<clipPath id="clip0_4_349">
<rect width="109.554" height="120.079" fill="white" transform="translate(22.6711 0.337158) rotate(10.7447)"/>
</clipPath>
</defs>
<g clip-path="url(#clip0_4_349)">
<path fill-rule="evenodd" clip-rule="evenodd" d="M15.4557 40.9355L17.0756 36.0536L19.5833 33.7397L22.9955 33.9893L27.2931 36.7986L55.7986 61.3534L59.8047 65.6992L62.3393 70.5735L63.3869 75.9538L62.96 81.858L55.9464 118.818L54.328 123.693L51.8196 126.01L48.4074 125.761L44.1097 122.951L15.6035 98.4004L11.5989 94.047L9.06289 89.1803L8.01666 83.7924L8.44212 77.8958L15.4557 40.9355Z" fill="url(#paint0_linear_4_349)"/>
<path fill-rule="evenodd" clip-rule="evenodd" d="M25.0496 26.7981L29.6308 24.4797L65.1498 12.0742L70.9208 10.7736L76.4026 11.0179L81.5929 12.7988L86.4863 16.123L114.988 40.6771L118.401 44.5125L119.152 47.8465L117.232 50.6738L112.65 52.996L77.1351 65.4022L71.3648 66.699L65.8822 66.4585L60.6927 64.6738L55.7986 61.3534L27.2931 36.7986L23.8805 32.9594L23.1263 29.6247L25.0496 26.7981Z" fill="url(#paint1_linear_4_349)"/>
<path fill-rule="evenodd" clip-rule="evenodd" d="M62.96 81.858L64.7219 76.2071L67.6715 71.5854L71.8079 67.9769L77.1351 65.4022L112.65 52.996L117.686 51.9578L120.945 52.9741L122.434 56.0465L122.149 61.1817L115.136 98.142L113.375 103.785L110.424 108.415L106.289 112.015L100.961 114.598L65.4462 127L60.4106 128.038L57.1518 127.022L55.663 123.946L55.9464 118.818L62.96 81.858Z" fill="url(#paint2_linear_4_349)"/>
<path fill-rule="evenodd" clip-rule="evenodd" d="M8.19701 85.6037L9.06289 89.1803L8.01666 83.7924L8.19701 85.6037Z" fill="url(#paint3_linear_4_349)"/>
<path fill-rule="evenodd" clip-rule="evenodd" d="M29.6307 24.4797L24.3104 27.0597L22.8328 28.119L20.1679 30.6591L18.052 33.6698L17.2214 35.2853L15.4557 40.9355L17.0756 36.0536L19.5833 33.7397L22.9955 33.9893L27.2931 36.7986L23.8805 32.9594L23.1263 29.6247L25.0496 26.7981L29.6307 24.4797Z" fill="url(#paint4_linear_4_349)"/>
<path fill-rule="evenodd" clip-rule="evenodd" d="M72.7345 10.6844L70.9208 10.7736L76.4026 11.0179L72.7345 10.6844Z" fill="url(#paint5_linear_4_349)"/>
<path fill-rule="evenodd" clip-rule="evenodd" d="M10.612 92.52L11.5989 94.047L9.0629 89.1803L10.612 92.52Z" fill="url(#paint6_linear_4_349)"/>
<path fill-rule="evenodd" clip-rule="evenodd" d="M79.9342 12.0506L76.4026 11.0179L81.5929 12.7988L79.9342 12.0506Z" fill="url(#paint7_linear_4_349)"/>
<path fill-rule="evenodd" clip-rule="evenodd" d="M107.759 110.955L110.424 108.415L106.289 112.015L107.759 110.955Z" fill="url(#paint8_linear_4_349)"/>
<path fill-rule="evenodd" clip-rule="evenodd" d="M65.8822 66.4585L60.6927 64.6738L55.7986 61.3534L59.8047 65.6992L62.3392 70.5735L63.3869 75.9538L62.96 81.858L64.7219 76.2071L67.6714 71.5854L71.8116 67.9777L77.135 65.4022L71.3647 66.699L65.8822 66.4585Z" fill="url(#paint9_linear_4_349)"/>
<path fill-rule="evenodd" clip-rule="evenodd" d="M57.1518 127.022L55.6629 123.946L55.9464 118.818L54.328 123.693L51.8196 126.01L48.4074 125.761L44.1097 122.951L49.0032 126.276L50.6581 127.023L54.1934 128.057L57.8577 128.389L59.6752 128.301L65.4462 127L60.4144 128.039L57.1518 127.022Z" fill="url(#paint10_linear_4_349)"/>
<path fill-rule="evenodd" clip-rule="evenodd" d="M112.54 105.404L113.375 103.785L110.424 108.415L112.54 105.404Z" fill="url(#paint11_linear_4_349)"/>
<path fill-rule="evenodd" clip-rule="evenodd" d="M122.58 55.2782L122.395 53.47L121.529 49.8934L119.98 46.5537L119.001 45.0282L114.988 40.6771L118.401 44.5125L119.152 47.8465L117.232 50.6738L112.65 52.996L117.686 51.9578L120.945 52.9741L122.434 56.0465L122.149 61.1817L122.58 55.2782Z" fill="url(#paint12_linear_4_349)"/>
<g style="mix-blend-mode:overlay">
<path d="M122.617 61.2705C122.617 61.2705 122.617 61.2705 122.622 61.2438C122.627 61.2172 122.622 61.2438 122.627 61.2172L122.637 61.164L123.062 55.3342C123.062 55.3342 123.062 55.3342 123.069 55.2961C123.076 55.2581 123.074 55.2695 123.077 55.2543L122.888 53.4454C122.888 53.4454 122.888 53.4454 122.894 53.4188C122.899 53.3922 122.897 53.3998 122.899 53.3883L122.03 49.8073C122.03 49.8073 122.008 49.8029 122.002 49.7703C121.996 49.7378 122.008 49.7361 122.011 49.7247L120.466 46.3819C120.466 46.3819 120.443 46.3775 120.436 46.3761C120.428 46.3746 120.44 46.3533 120.442 46.3419L119.459 44.8156C119.459 44.8156 119.432 44.8106 119.421 44.8084C119.409 44.8062 119.426 44.7818 119.428 44.7704L115.334 40.3685C115.334 40.3685 115.315 40.3649 115.308 40.3634C115.3 40.362 115.311 40.3444 115.312 40.3406L86.814 15.7872L86.7836 15.7814L81.8978 12.4587C81.8978 12.4587 81.8711 12.4536 81.8559 12.4507C81.8407 12.4478 81.8603 12.4279 81.826 12.4214L80.1448 11.6256C80.1448 11.6256 80.122 11.6213 80.1106 11.6191C80.0992 11.6169 80.1106 11.6191 80.0802 11.6133L76.5532 10.5776C76.5532 10.5776 76.5266 10.5726 76.5076 10.569C76.4885 10.5653 76.4809 10.5639 76.4619 10.5603L72.7893 10.2298C72.7893 10.2298 72.7893 10.2298 72.7588 10.224C72.7284 10.2183 72.7588 10.224 72.7246 10.2175L70.9147 10.3075C70.9147 10.3075 70.8957 10.3039 70.8762 10.3238C70.8566 10.3438 70.8496 10.3188 70.8343 10.3159L65.0709 11.6179C65.0709 11.6179 65.0709 11.6179 65.0519 11.6143C65.0329 11.6107 65.0519 11.6143 65.0253 11.6092L29.5062 24.0148C29.5062 24.0148 29.5062 24.0148 29.5019 24.0376C29.4975 24.0604 29.5019 24.0376 29.4715 24.0318L24.1043 26.6305C24.1043 26.6305 24.0992 26.6571 24.0742 26.6642C24.0492 26.6713 24.0476 26.6591 24.0362 26.657L22.5585 27.7162C22.5585 27.7162 22.5542 27.7391 22.552 27.7505C22.5499 27.7619 22.5292 27.7461 22.5216 27.7447L19.856 30.2886C19.856 30.2886 19.8502 30.319 19.8473 30.3342C19.8444 30.3495 19.8207 30.3292 19.8073 30.3582L17.6907 33.3727C17.6907 33.3727 17.6907 33.3727 17.6849 33.4032C17.6792 33.4336 17.685 33.4031 17.6564 33.4292L16.8303 35.0417C16.8303 35.0417 16.8245 35.0721 16.8216 35.0873C16.8187 35.1025 16.818 35.1063 16.8151 35.1215L15.067 40.7002L15.0568 40.7534C15.0568 40.7534 15.0568 40.7534 15.0518 40.78C15.0467 40.8066 15.0518 40.78 15.0467 40.8066L8.03314 77.767C8.03314 77.767 8.03314 77.767 8.02809 77.7936C8.02304 77.8202 8.02809 77.7936 8.02304 77.8202L7.60067 83.7214C7.60067 83.7214 7.59634 83.7442 7.59417 83.7556C7.59201 83.767 7.5884 83.786 7.58623 83.7974L7.76352 85.6042C7.76352 85.6042 7.7789 85.6268 7.78054 85.6389C7.78218 85.6511 7.77621 85.6618 7.77405 85.6732L8.63214 89.2286L8.62853 89.2476C8.62492 89.2666 8.65153 89.2716 8.65625 89.2883C8.66097 89.3049 8.65048 89.3187 8.64759 89.3339L8.64398 89.3529L10.1822 92.667C10.1822 92.667 10.2051 92.6714 10.2091 92.6918C10.2131 92.7123 10.2055 92.7108 10.2033 92.7222L11.1902 94.2492C11.1902 94.2492 11.2168 94.2542 11.2282 94.2564C11.2396 94.2586 11.2239 94.2792 11.2445 94.2949L15.2453 98.6476C15.2453 98.6476 15.2682 98.652 15.2758 98.6534C15.2834 98.6549 15.2758 98.6534 15.2715 98.6763L43.7939 123.329C43.7939 123.329 43.7938 123.329 43.8205 123.334C43.8471 123.339 43.8205 123.334 43.8395 123.338L43.8623 123.342L48.7503 126.653L48.7921 126.661C48.7921 126.661 48.7921 126.661 48.822 126.69L50.4731 127.437C50.4731 127.437 50.4959 127.442 50.5074 127.444C50.5188 127.446 50.5073 127.444 50.5378 127.45L54.0769 128.484C54.0769 128.484 54.1035 128.489 54.1225 128.492C54.1415 128.496 54.1491 128.497 54.1682 128.501L57.8287 128.833C57.8287 128.833 57.8287 128.833 57.8591 128.839C57.8895 128.845 57.8819 128.843 57.8933 128.845L59.7108 128.757C59.7108 128.757 59.7108 128.757 59.7494 128.74C59.7879 128.724 59.776 128.745 59.7912 128.748L65.5546 127.446C65.5546 127.446 65.5546 127.446 65.585 127.452L101.104 115.047C101.104 115.047 101.108 115.028 101.108 115.024C101.109 115.02 101.127 115.027 101.135 115.029L106.464 112.447C106.464 112.447 106.469 112.42 106.471 112.408C106.473 112.397 106.498 112.414 106.509 112.416L107.983 111.356C107.983 111.356 107.987 111.333 107.989 111.321C107.991 111.31 108.012 111.326 108.02 111.327L110.681 108.786C110.693 108.774 110.703 108.76 110.712 108.745C110.712 108.745 110.712 108.745 110.716 108.726L110.72 108.707L112.824 105.714C112.824 105.714 112.829 105.691 112.831 105.676C112.834 105.661 112.831 105.676 112.836 105.653L113.674 104.039C113.674 104.039 113.679 104.012 113.682 103.997C113.685 103.982 113.686 103.974 113.689 103.959L115.45 98.312C115.45 98.312 115.45 98.312 115.455 98.2854C115.46 98.2588 115.455 98.2854 115.46 98.2588L122.617 61.2705ZM100.763 114.147L65.3126 126.541L60.4293 127.546L57.4865 126.629L56.1426 123.848L56.4169 118.872L63.4176 81.9802L65.1492 76.4261L68.0323 71.906L72.0633 68.3958L77.311 65.8454L112.761 53.4504L117.645 52.4425L120.591 53.3641L121.936 56.1372L121.661 61.1205L114.66 98.0123L112.929 103.563L110.045 108.087L106.011 111.592L100.763 114.147ZM57.8469 127.907L54.2639 127.581L50.7994 126.569L50.3891 126.385L51.7453 126.485C51.8138 126.498 51.8824 126.448 51.9549 126.418C52.0179 126.409 52.0784 126.387 52.1327 126.353L54.6283 124.041C54.6667 124.005 54.6434 123.961 54.6811 123.929C54.7187 123.897 54.7444 123.886 54.7607 123.842L55.251 122.359L55.1639 123.918C55.1559 123.96 55.1958 123.999 55.2038 124.04C55.2118 124.081 55.1894 124.116 55.2102 124.152L56.6936 127.215C56.7154 127.266 56.7771 127.294 56.8208 127.334C56.8634 127.392 56.9193 127.439 56.9839 127.471L58.293 127.881L57.8469 127.907ZM15.9113 98.0451L11.9779 93.7525L9.507 89.0202L8.48784 83.7597L8.90286 77.9596L15.9035 41.0677L17.4793 36.3351L19.7439 34.243L22.8263 34.4655L26.9941 37.191L55.44 61.7069L59.3924 66.0032L61.8611 70.7468L62.8848 76.0043L62.4638 81.815L55.4632 118.707L53.8912 123.44L51.6266 125.532L48.5487 125.307L44.3733 122.58L15.9113 98.0451ZM18.4446 33.9059L20.5065 30.9716L23.1181 28.4844L23.4747 28.225L22.7196 29.3387C22.6836 29.383 22.6986 29.449 22.6871 29.5098C22.6587 29.5758 22.6452 29.6472 22.6474 29.719L23.4023 33.0499C23.4127 33.0991 23.4538 33.1109 23.4701 33.1494C23.4864 33.188 23.4792 33.226 23.5114 33.2637L24.541 34.4205L23.2473 33.576C23.2015 33.5476 23.1674 33.5609 23.1218 33.5522C23.0761 33.5436 23.0681 33.5026 23.018 33.4971L19.6217 33.2466C19.5685 33.2365 19.5127 33.2811 19.4544 33.2976C19.384 33.3053 19.3162 33.3288 19.2562 33.3664L18.2585 34.2843L18.4446 33.9059ZM65.2523 12.531L70.9453 11.2472L76.2963 11.4745L81.3549 13.2225L86.1818 16.5026L114.629 41.0109L117.941 44.7364L118.619 47.7492L116.885 50.3007L112.439 52.5539L76.9901 64.9413L71.3009 66.2258L65.9575 65.9999L60.8989 64.2519L56.0758 60.9726L27.6292 36.4604L24.3171 32.7349L23.6352 29.7252L25.3729 27.1707L29.8196 24.9174L65.2523 12.531ZM119.573 46.7915L121.088 50.058L121.934 53.5558L121.981 53.9942L121.385 52.7701C121.358 52.7109 121.317 52.659 121.266 52.6185C121.215 52.578 121.155 52.5501 121.091 52.5369L117.858 51.5294C117.808 51.52 117.777 51.5416 117.733 51.5412C117.69 51.5409 117.665 51.5085 117.619 51.5196L116.09 51.8361L117.477 51.13C117.516 51.1099 117.528 51.0687 117.557 51.0388C117.586 51.0089 117.633 51.0138 117.66 50.9718L119.572 48.1627C119.605 48.1176 119.593 48.0524 119.603 47.9992C119.634 47.9312 119.648 47.8569 119.645 47.7824L119.342 46.4484L119.573 46.7915ZM71.6046 67.5325C71.6046 67.5325 71.5966 67.5743 71.5595 67.5831C71.5224 67.5918 71.5177 67.5751 71.496 67.6065L67.3603 71.2111C67.3567 71.2301 67.3524 71.2529 67.348 71.2758C67.3437 71.2986 67.3057 71.2914 67.2892 71.3158L64.3396 75.9375C64.3346 75.9641 64.3317 75.9794 64.3273 76.0022C64.323 76.025 64.295 76.0275 64.2861 76.0535L63.7525 77.7647L63.8837 75.9732C63.888 75.9503 63.8628 75.9377 63.8633 75.9141C63.8639 75.8906 63.8713 75.8723 63.8756 75.8495L62.8279 70.4692C62.833 70.4426 62.7988 70.4361 62.7879 70.4104C62.777 70.3847 62.7965 70.3648 62.8002 70.3458L60.2686 65.476C60.2686 65.476 60.2268 65.468 60.2174 65.4347C60.2079 65.4014 60.2253 65.3929 60.1947 65.3674L58.999 64.0687L60.465 65.064C60.4879 65.0684 60.5068 65.072 60.5297 65.0763C60.5525 65.0806 60.5543 65.1125 60.5764 65.1206L65.7567 66.8917C65.7795 66.896 65.8022 66.8806 65.8288 66.8857C65.8554 66.8907 65.8624 66.9157 65.8898 66.917L71.3587 67.1667C71.3816 67.171 71.398 67.1466 71.4185 67.1426C71.4389 67.1386 71.4603 67.1505 71.4832 67.1548L73.2073 66.7688L71.6046 67.5325Z" fill="#3E3E3E"/>
</g>
<path style="mix-blend-mode:overlay" opacity="0.56" d="M122.617 61.2705C122.617 61.2705 122.617 61.2705 122.622 61.2438C122.627 61.2172 122.622 61.2438 122.627 61.2172L122.637 61.164L123.062 55.3342C123.062 55.3342 123.062 55.3342 123.069 55.2961C123.076 55.2581 123.074 55.2695 123.077 55.2543L122.888 53.4454C122.888 53.4454 122.888 53.4454 122.894 53.4188C122.899 53.3922 122.897 53.3998 122.899 53.3883L122.03 49.8073C122.03 49.8073 122.008 49.8029 122.002 49.7703C121.996 49.7378 122.008 49.7361 122.011 49.7247L120.466 46.3819C120.466 46.3819 120.443 46.3775 120.436 46.3761C120.428 46.3746 120.44 46.3533 120.442 46.3419L119.459 44.8156C119.459 44.8156 119.432 44.8106 119.421 44.8084C119.409 44.8062 119.426 44.7818 119.428 44.7704L115.334 40.3685C115.334 40.3685 115.315 40.3649 115.308 40.3634C115.3 40.362 115.311 40.3444 115.312 40.3406L86.814 15.7872L86.7836 15.7814L81.8978 12.4587C81.8978 12.4587 81.8711 12.4536 81.8559 12.4507C81.8407 12.4478 81.8603 12.4279 81.826 12.4214L80.1448 11.6256C80.1448 11.6256 80.122 11.6213 80.1106 11.6191C80.0992 11.6169 80.1106 11.6191 80.0802 11.6133L76.5532 10.5776C76.5532 10.5776 76.5266 10.5726 76.5076 10.569C76.4885 10.5653 76.4809 10.5639 76.4619 10.5603L72.7893 10.2298C72.7893 10.2298 72.7893 10.2298 72.7588 10.224C72.7284 10.2183 72.7588 10.224 72.7246 10.2175L70.9147 10.3075C70.9147 10.3075 70.8957 10.3039 70.8762 10.3238C70.8566 10.3438 70.8496 10.3188 70.8343 10.3159L65.0709 11.6179C65.0709 11.6179 65.0709 11.6179 65.0519 11.6143C65.0329 11.6107 65.0519 11.6143 65.0253 11.6092L29.5062 24.0148C29.5062 24.0148 29.5062 24.0148 29.5019 24.0376C29.4975 24.0604 29.5019 24.0376 29.4715 24.0318L24.1043 26.6305C24.1043 26.6305 24.0992 26.6571 24.0742 26.6642C24.0492 26.6713 24.0476 26.6591 24.0362 26.657L22.5585 27.7162C22.5585 27.7162 22.5542 27.7391 22.552 27.7505C22.5499 27.7619 22.5292 27.7461 22.5216 27.7447L19.856 30.2886C19.856 30.2886 19.8502 30.319 19.8473 30.3342C19.8444 30.3495 19.8207 30.3292 19.8073 30.3582L17.6907 33.3727C17.6907 33.3727 17.6907 33.3727 17.6849 33.4032C17.6792 33.4336 17.685 33.4031 17.6564 33.4292L16.8303 35.0417C16.8303 35.0417 16.8245 35.0721 16.8216 35.0873C16.8187 35.1025 16.818 35.1063 16.8151 35.1215L15.067 40.7002L15.0568 40.7534C15.0568 40.7534 15.0568 40.7534 15.0518 40.78C15.0467 40.8066 15.0518 40.78 15.0467 40.8066L8.03314 77.767C8.03314 77.767 8.03314 77.767 8.02809 77.7936C8.02304 77.8202 8.02809 77.7936 8.02304 77.8202L7.60067 83.7214C7.60067 83.7214 7.59634 83.7442 7.59417 83.7556C7.59201 83.767 7.5884 83.786 7.58623 83.7974L7.76352 85.6042C7.76352 85.6042 7.7789 85.6268 7.78054 85.6389C7.78218 85.6511 7.77621 85.6618 7.77405 85.6732L8.63214 89.2286L8.62853 89.2476C8.62492 89.2666 8.65153 89.2716 8.65625 89.2883C8.66097 89.3049 8.65048 89.3187 8.64759 89.3339L8.64398 89.3529L10.1822 92.667C10.1822 92.667 10.2051 92.6714 10.2091 92.6918C10.2131 92.7123 10.2055 92.7108 10.2033 92.7222L11.1902 94.2492C11.1902 94.2492 11.2168 94.2542 11.2282 94.2564C11.2396 94.2586 11.2239 94.2792 11.2445 94.2949L15.2453 98.6476C15.2453 98.6476 15.2682 98.652 15.2758 98.6534C15.2834 98.6549 15.2758 98.6534 15.2715 98.6763L43.7939 123.329C43.7939 123.329 43.7938 123.329 43.8205 123.334C43.8471 123.339 43.8205 123.334 43.8395 123.338L43.8623 123.342L48.7503 126.653L48.7921 126.661C48.7921 126.661 48.7921 126.661 48.822 126.69L50.4731 127.437C50.4731 127.437 50.4959 127.442 50.5074 127.444C50.5188 127.446 50.5073 127.444 50.5378 127.45L54.0769 128.484C54.0769 128.484 54.1035 128.489 54.1225 128.492C54.1415 128.496 54.1491 128.497 54.1682 128.501L57.8287 128.833C57.8287 128.833 57.8287 128.833 57.8591 128.839C57.8895 128.845 57.8819 128.843 57.8933 128.845L59.7108 128.757C59.7108 128.757 59.7108 128.757 59.7494 128.74C59.7879 128.724 59.776 128.745 59.7912 128.748L65.5546 127.446C65.5546 127.446 65.5546 127.446 65.585 127.452L101.104 115.047C101.104 115.047 101.108 115.028 101.108 115.024C101.109 115.02 101.127 115.027 101.135 115.029L106.464 112.447C106.464 112.447 106.469 112.42 106.471 112.408C106.473 112.397 106.498 112.414 106.509 112.416L107.983 111.356C107.983 111.356 107.987 111.333 107.989 111.321C107.991 111.31 108.012 111.326 108.02 111.327L110.681 108.786C110.693 108.774 110.703 108.76 110.712 108.745C110.712 108.745 110.712 108.745 110.716 108.726L110.72 108.707L112.824 105.714C112.824 105.714 112.829 105.691 112.831 105.676C112.834 105.661 112.831 105.676 112.836 105.653L113.674 104.039C113.674 104.039 113.679 104.012 113.682 103.997C113.685 103.982 113.686 103.974 113.689 103.959L115.45 98.312C115.45 98.312 115.45 98.312 115.455 98.2854C115.46 98.2588 115.455 98.2854 115.46 98.2588L122.617 61.2705ZM100.763 114.147L65.3126 126.541L60.4293 127.546L57.4865 126.629L56.1426 123.848L56.4169 118.872L63.4176 81.9802L65.1492 76.4261L68.0323 71.906L72.0633 68.3958L77.311 65.8454L112.761 53.4504L117.645 52.4425L120.591 53.3641L121.936 56.1372L121.661 61.1205L114.66 98.0123L112.929 103.563L110.045 108.087L106.011 111.592L100.763 114.147ZM57.8469 127.907L54.2639 127.581L50.7994 126.569L50.3891 126.385L51.7453 126.485C51.8138 126.498 51.8824 126.448 51.9549 126.418C52.0179 126.409 52.0784 126.387 52.1327 126.353L54.6283 124.041C54.6667 124.005 54.6434 123.961 54.6811 123.929C54.7187 123.897 54.7444 123.886 54.7607 123.842L55.251 122.359L55.1639 123.918C55.1559 123.96 55.1958 123.999 55.2038 124.04C55.2118 124.081 55.1894 124.116 55.2102 124.152L56.6936 127.215C56.7154 127.266 56.7771 127.294 56.8208 127.334C56.8634 127.392 56.9193 127.439 56.9839 127.471L58.293 127.881L57.8469 127.907ZM15.9113 98.0451L11.9779 93.7525L9.507 89.0202L8.48784 83.7597L8.90286 77.9596L15.9035 41.0677L17.4793 36.3351L19.7439 34.243L22.8263 34.4655L26.9941 37.191L55.44 61.7069L59.3924 66.0032L61.8611 70.7468L62.8848 76.0043L62.4638 81.815L55.4632 118.707L53.8912 123.44L51.6266 125.532L48.5487 125.307L44.3733 122.58L15.9113 98.0451ZM18.4446 33.9059L20.5065 30.9716L23.1181 28.4844L23.4747 28.225L22.7196 29.3387C22.6836 29.383 22.6986 29.449 22.6871 29.5098C22.6587 29.5758 22.6452 29.6472 22.6474 29.719L23.4023 33.0499C23.4127 33.0991 23.4538 33.1109 23.4701 33.1494C23.4864 33.188 23.4792 33.226 23.5114 33.2637L24.541 34.4205L23.2473 33.576C23.2015 33.5476 23.1674 33.5609 23.1218 33.5522C23.0761 33.5436 23.0681 33.5026 23.018 33.4971L19.6217 33.2466C19.5685 33.2365 19.5127 33.2811 19.4544 33.2976C19.384 33.3053 19.3162 33.3288 19.2562 33.3664L18.2585 34.2843L18.4446 33.9059ZM65.2523 12.531L70.9453 11.2472L76.2963 11.4745L81.3549 13.2225L86.1818 16.5026L114.629 41.0109L117.941 44.7364L118.619 47.7492L116.885 50.3007L112.439 52.5539L76.9901 64.9413L71.3009 66.2258L65.9575 65.9999L60.8989 64.2519L56.0758 60.9726L27.6292 36.4604L24.3171 32.7349L23.6352 29.7252L25.3729 27.1707L29.8196 24.9174L65.2523 12.531ZM119.573 46.7915L121.088 50.058L121.934 53.5558L121.981 53.9942L121.385 52.7701C121.358 52.7109 121.317 52.659 121.266 52.6185C121.215 52.578 121.155 52.5501 121.091 52.5369L117.858 51.5294C117.808 51.52 117.777 51.5416 117.733 51.5412C117.69 51.5409 117.665 51.5085 117.619 51.5196L116.09 51.8361L117.477 51.13C117.516 51.1099 117.528 51.0687 117.557 51.0388C117.586 51.0089 117.633 51.0138 117.66 50.9718L119.572 48.1627C119.605 48.1176 119.593 48.0524 119.603 47.9992C119.634 47.9312 119.648 47.8569 119.645 47.7824L119.342 46.4484L119.573 46.7915ZM71.6046 67.5325C71.6046 67.5325 71.5966 67.5743 71.5595 67.5831C71.5224 67.5918 71.5177 67.5751 71.496 67.6065L67.3603 71.2111C67.3567 71.2301 67.3524 71.2529 67.348 71.2758C67.3437 71.2986 67.3057 71.2914 67.2892 71.3158L64.3396 75.9375C64.3346 75.9641 64.3317 75.9794 64.3273 76.0022C64.323 76.025 64.295 76.0275 64.2861 76.0535L63.7525 77.7647L63.8837 75.9732C63.888 75.9503 63.8628 75.9377 63.8633 75.9141C63.8639 75.8906 63.8713 75.8723 63.8756 75.8495L62.8279 70.4692C62.833 70.4426 62.7988 70.4361 62.7879 70.4104C62.777 70.3847 62.7965 70.3648 62.8002 70.3458L60.2686 65.476C60.2686 65.476 60.2268 65.468 60.2174 65.4347C60.2079 65.4014 60.2253 65.3929 60.1947 65.3674L58.999 64.0687L60.465 65.064C60.4879 65.0684 60.5068 65.072 60.5297 65.0763C60.5525 65.0806 60.5543 65.1125 60.5764 65.1206L65.7567 66.8917C65.7795 66.896 65.8022 66.8806 65.8288 66.8857C65.8554 66.8907 65.8624 66.9157 65.8898 66.917L71.3587 67.1667C71.3816 67.171 71.398 67.1466 71.4185 67.1426C71.4389 67.1386 71.4603 67.1505 71.4832 67.1548L73.2073 66.7688L71.6046 67.5325Z" fill="url(#paint13_linear_4_349)"/>
<path d="M45.0774 101.365C45.1871 101.468 45.2706 101.596 45.3211 101.738C45.3716 101.88 45.3877 102.032 45.3679 102.181C44.9572 104.345 45.9762 107.281 47.6487 108.725C47.7573 108.829 47.8402 108.957 47.8906 109.098C47.941 109.24 47.9577 109.391 47.9391 109.541C47.8872 109.814 47.6768 109.885 47.4663 109.707C45.3887 107.906 44.108 104.231 44.6128 101.529C44.6648 101.255 44.8676 101.184 45.0774 101.365ZM47.2808 110.684C49.7818 112.849 52.3051 111.969 52.9101 108.719C53.515 105.468 51.9993 101.059 49.4847 98.9036C46.9702 96.7479 44.4604 97.6192 43.8555 100.869C43.2505 104.12 44.7662 108.529 47.2808 110.684Z" fill="white"/>
<path d="M47.4663 109.707C47.6761 109.889 47.8872 109.814 47.9391 109.541C47.9577 109.391 47.941 109.24 47.8906 109.098C47.8402 108.957 47.7573 108.829 47.6487 108.725C45.9839 107.282 44.9648 104.346 45.3679 102.181C45.3877 102.032 45.3717 101.88 45.3211 101.738C45.2706 101.596 45.1871 101.468 45.0774 101.365C44.8676 101.184 44.6648 101.255 44.6129 101.529C44.1004 104.23 45.3735 107.903 47.4663 109.707Z" fill="black"/>
<path d="M35.9394 75.2057C36.0469 75.3096 36.1291 75.4369 36.1796 75.5776C36.23 75.7184 36.2475 75.8689 36.2306 76.0174C35.8199 78.1815 36.8389 81.1173 38.5075 82.5608C38.6169 82.6641 38.7003 82.7919 38.7508 82.9337C38.8013 83.0755 38.8175 83.2272 38.798 83.3764C38.746 83.6502 38.5357 83.7207 38.3251 83.5428C36.2475 81.7419 34.9685 78.0791 35.4755 75.3659C35.526 75.0996 35.7379 75.0216 35.9394 75.2057ZM38.1434 84.521C40.6468 86.6942 43.1625 85.8122 43.7727 82.5552C44.3829 79.2981 42.857 74.9225 40.3415 72.7509C37.826 70.5793 35.3299 71.4611 34.7205 74.7143C34.111 77.9676 35.6348 82.3546 38.1434 84.521Z" fill="white"/>
<path d="M38.3251 83.5428C38.5349 83.7245 38.746 83.6502 38.798 83.3764C38.8174 83.2272 38.8013 83.0755 38.7508 82.9337C38.7003 82.7919 38.6169 82.6641 38.5075 82.5608C36.8465 81.1187 35.8237 78.1822 36.2306 76.0175C36.2475 75.8689 36.23 75.7184 36.1795 75.5776C36.129 75.4369 36.0469 75.3096 35.9394 75.2057C35.7364 75.0293 35.526 75.0997 35.4755 75.3659C34.9609 78.0776 36.2361 81.7397 38.3251 83.5428Z" fill="black"/>
<path d="M20.9401 80.4527C21.047 80.5562 21.128 80.6834 21.1766 80.8241C21.2252 80.9647 21.24 81.1148 21.2199 81.2623C20.8099 83.4225 21.8275 86.3659 23.5234 87.8107C23.6316 87.9136 23.7138 88.0407 23.7631 88.1816C23.8124 88.3225 23.8275 88.4732 23.807 88.621C23.7551 88.8949 23.5447 88.9653 23.3411 88.7927C21.2566 86.9865 19.9798 83.3123 20.4846 80.6105C20.5366 80.3367 20.7431 80.2655 20.9553 80.4555L20.9401 80.4527ZM23.1549 89.7739C25.6521 91.9382 28.1692 91.0486 28.778 87.7991C29.3867 84.5497 27.8637 80.1589 25.3558 77.9887C22.8479 75.8185 20.3345 76.7088 19.7257 79.9582C19.117 83.2077 20.6365 87.6175 23.1549 89.7739Z" fill="white"/>
<path d="M23.341 88.7927C23.544 88.9691 23.755 88.8949 23.807 88.621C23.8274 88.4731 23.8124 88.3225 23.7631 88.1816C23.7138 88.0407 23.6316 87.9136 23.5234 87.8107C21.8617 86.3724 20.8327 83.4268 21.2198 81.2622C21.24 81.1148 21.2251 80.9647 21.1765 80.824C21.1279 80.6834 21.0469 80.5562 20.94 80.4526C20.7264 80.2702 20.5213 80.3338 20.4693 80.6076C19.9569 83.3079 21.2299 86.9815 23.3258 88.7898" fill="black"/>
<path d="M50.95 69.9608C51.0599 70.0693 51.1429 70.2019 51.1925 70.3481C51.2421 70.4944 51.2568 70.6501 51.2355 70.803C50.8255 72.9633 51.846 75.8915 53.5146 77.335C53.6246 77.4395 53.7082 77.5686 53.7585 77.7118C53.8087 77.8549 53.8242 78.0079 53.8036 78.1582C53.7531 78.4245 53.5413 78.5025 53.3329 78.3132C51.2546 76.5161 49.9763 72.8495 50.4812 70.1477C50.5331 69.8738 50.7359 69.802 50.9471 69.9761L50.95 69.9608ZM53.1505 79.2952C55.6477 81.4594 58.1735 80.5872 58.7784 77.337C59.3833 74.0868 57.8676 69.6777 55.3493 67.5213C52.8309 65.3649 50.3301 66.23 49.7192 69.4909C49.1083 72.7517 50.6343 77.1273 53.1505 79.2952Z" fill="white"/>
<path d="M53.332 78.2972C53.5411 78.4827 53.756 78.4092 53.8027 78.1423C53.8233 77.992 53.8078 77.8389 53.7575 77.6958C53.7073 77.5526 53.6237 77.4235 53.5137 77.3191C51.8527 75.877 50.8284 72.9481 51.2345 70.7871C51.2558 70.6342 51.2411 70.4784 51.1916 70.3322C51.142 70.186 51.059 70.0533 50.9491 69.9449C50.7393 69.7632 50.5351 69.8427 50.4831 70.1165C49.9707 72.8169 51.2452 76.4828 53.3349 78.282" fill="black"/>
<path d="M26.8051 49.0468C26.9131 49.1513 26.9949 49.2799 27.044 49.422C27.093 49.5641 27.1078 49.7158 27.0872 49.8647C26.6766 52.0288 27.6963 54.9608 29.3922 56.4056C29.499 56.511 29.58 56.6397 29.629 56.7815C29.6779 56.9234 29.6934 57.0746 29.6744 57.2235C29.6239 57.4897 29.4121 57.5678 29.2098 57.3875C27.1254 55.5814 25.8426 51.9178 26.3474 49.216C26.3993 48.9422 26.6097 48.8718 26.8202 49.0497L26.8051 49.0468ZM29.0236 58.3688C31.5247 60.5337 34.0397 59.6555 34.6446 56.4054C35.2495 53.1552 33.7339 48.7461 31.2262 46.5956C28.7185 44.4452 26.2032 45.3036 25.5969 48.5614C24.9905 51.8192 26.5127 56.194 29.0236 58.3688Z" fill="white"/>
<path d="M29.1946 57.3847C29.3976 57.5611 29.6086 57.4869 29.6592 57.2206C29.6782 57.0718 29.6627 56.9205 29.6137 56.7787C29.5648 56.6368 29.4838 56.5081 29.377 56.4027C27.7115 54.9637 26.6842 52.0303 27.072 49.8618C27.0926 49.7129 27.0778 49.5612 27.0287 49.4191C26.9797 49.277 26.8979 49.1485 26.7898 49.0439C26.58 48.8622 26.3689 48.9364 26.317 49.2103C25.8045 51.9106 27.0797 55.5727 29.1794 57.3818" fill="black"/>
<path d="M68.8733 103.603C69.1306 103.514 69.3013 103.653 69.2494 103.927C69.2147 104.073 69.1461 104.209 69.049 104.323C68.952 104.437 68.8293 104.527 68.6909 104.585C66.5836 105.308 64.56 107.667 64.1501 109.827C64.1146 109.973 64.0453 110.109 63.9476 110.223C63.8499 110.337 63.7267 110.427 63.5879 110.485C63.3261 110.577 63.1531 110.43 63.2043 110.16C63.7174 107.456 66.2455 104.515 68.8582 103.6L68.8733 103.603ZM66.8418 114.392C69.9773 113.297 73.0105 109.771 73.6193 106.521C74.228 103.272 72.1805 101.52 69.042 102.611C65.9035 103.702 62.8642 107.239 62.2593 110.489C61.6543 113.739 63.698 115.49 66.8418 114.392Z" fill="white"/>
<path d="M63.6031 110.488C63.7419 110.43 63.8652 110.34 63.9629 110.226C64.0605 110.112 64.1299 109.976 64.1653 109.83C64.5752 107.67 66.5989 105.311 68.7062 104.588C68.8446 104.53 68.9673 104.44 69.0643 104.326C69.1613 104.211 69.2299 104.076 69.2646 103.93C69.3165 103.656 69.1466 103.513 68.8886 103.606C66.2722 104.52 63.7403 107.46 63.2348 110.166C63.1835 110.436 63.3566 110.583 63.6184 110.491" fill="black"/>
<path d="M86.9508 82.6121C87.2171 82.5168 87.3902 82.6639 87.3397 82.9302C87.3038 83.0776 87.2333 83.2143 87.1341 83.3291C87.0349 83.4439 86.9098 83.5334 86.7692 83.5903C84.6611 84.3172 82.6389 86.6679 82.2518 88.8325C82.2182 88.9833 82.1488 89.1237 82.0496 89.242C81.9503 89.3603 81.8241 89.453 81.6815 89.5124C81.4243 89.6015 81.2512 89.4544 81.3032 89.1805C81.8156 86.4802 84.3444 83.536 86.9479 82.6273L86.9508 82.6121ZM84.9354 93.4199C88.0828 92.3032 91.1146 88.7846 91.731 85.5366C92.3473 82.2886 90.2922 80.5353 87.147 81.6406C84.0018 82.746 80.9569 86.2503 80.361 89.4943C79.7652 92.7383 81.7998 94.4956 84.9383 93.4047" fill="white"/>
<path d="M81.6845 89.4972C81.827 89.4378 81.9533 89.3451 82.0525 89.2268C82.1518 89.1085 82.2211 88.968 82.2548 88.8173C82.6647 86.6571 84.6869 84.3063 86.7721 83.575C86.9128 83.5182 87.0379 83.4286 87.1371 83.3139C87.2363 83.1991 87.3067 83.0624 87.3426 82.915C87.3932 82.6487 87.2208 82.4978 86.9538 82.5969C84.3464 83.5048 81.8138 86.4483 81.309 89.1501C81.2571 89.4239 81.4308 89.5672 81.6874 89.4819" fill="black"/>
<path d="M105.041 61.6154C105.307 61.524 105.477 61.6666 105.425 61.9404C105.389 62.0863 105.319 62.2215 105.221 62.3351C105.123 62.4487 104.999 62.5373 104.86 62.5936C102.752 63.3205 100.728 65.6789 100.34 67.8473C100.303 67.993 100.232 68.128 100.133 68.2413C100.034 68.3547 99.9104 68.4432 99.771 68.4998C99.5054 68.5912 99.3445 68.4425 99.3951 68.1763C99.9089 65.4683 102.437 62.5279 105.041 61.6154ZM103.025 72.4073C106.16 71.312 109.201 67.7872 109.81 64.5378C110.419 61.2883 108.36 59.5343 105.224 60.6335C102.088 61.7327 99.0481 65.2498 98.4372 68.5107C97.8263 71.7715 99.8873 73.5141 103.025 72.4073Z" fill="white"/>
<path d="M99.7711 68.4998C99.9104 68.4432 100.034 68.3546 100.133 68.2413C100.232 68.128 100.303 67.993 100.34 67.8473C100.751 65.6832 102.774 63.3248 104.86 62.5936C104.999 62.5373 105.123 62.4487 105.221 62.3351C105.319 62.2215 105.389 62.0863 105.425 61.9404C105.477 61.6666 105.307 61.524 105.041 61.6154C102.433 62.5272 99.9013 65.4669 99.3951 68.1762C99.3446 68.4425 99.5055 68.5912 99.7711 68.4998Z" fill="black"/>
<path d="M65.3309 45.6715C65.4755 45.6282 65.6284 45.6202 65.7767 45.6483C65.9249 45.6765 66.0643 45.7399 66.1829 45.8332C67.8446 47.2715 70.9222 47.8515 72.9907 47.1251C73.1346 47.0816 73.2869 47.0735 73.4346 47.1015C73.5822 47.1296 73.721 47.1928 73.8389 47.286C74.0487 47.4677 74.0083 47.6807 73.7465 47.7728C71.1384 48.6846 67.3192 47.9638 65.2424 46.1591C65.1933 46.1318 65.154 46.0897 65.1302 46.0389C65.1064 45.988 65.0992 45.931 65.1097 45.8758C65.1202 45.8206 65.1477 45.7702 65.1885 45.7316C65.2293 45.693 65.2813 45.6683 65.3369 45.6608L65.3309 45.6715ZM74.5023 48.4206C77.6377 47.3252 78.1629 44.6824 75.6656 42.5182C73.1684 40.354 68.5855 39.4843 65.45 40.5797C62.3146 41.6751 61.7963 44.3231 64.2935 46.4873C66.7907 48.6515 71.3668 49.516 74.5015 48.4244" fill="white"/>
<path d="M73.7413 47.7797C74.0069 47.6883 74.0473 47.4753 73.8337 47.2929C73.7157 47.1997 73.577 47.1364 73.4294 47.1084C73.2817 47.0804 73.1294 47.0885 72.9856 47.1319C70.8775 47.8588 67.8341 47.2853 66.1777 45.8401C66.059 45.7468 65.9197 45.6834 65.7714 45.6552C65.6232 45.6271 65.4703 45.635 65.3257 45.6784C65.2701 45.6858 65.2182 45.7106 65.1774 45.7492C65.1366 45.7878 65.109 45.8382 65.0985 45.8934C65.0881 45.9486 65.0953 46.0056 65.1191 46.0565C65.1429 46.1073 65.1821 46.1494 65.2312 46.1766C67.3087 47.9775 71.128 48.6983 73.7353 47.7904" fill="black"/>
</g>
</svg>
