<svg width="55" height="57" viewBox="0 0 55 57" fill="none" xmlns="http://www.w3.org/2000/svg">
<defs>
<linearGradient id="paint0_linear_4_385" x1="-29.1983" y1="33.9353" x2="48.3483" y2="39.2031" gradientUnits="userSpaceOnUse">
<stop stop-color="#2D2F34"/>
<stop offset="0.29" stop-color="#282A2F"/>
<stop offset="0.65" stop-color="#181B1F"/>
<stop offset="1" stop-color="#020509"/>
</linearGradient>
<linearGradient id="paint1_linear_4_385" x1="39.8963" y1="32.6637" x2="12801.5" y2="2752.62" gradientUnits="userSpaceOnUse">
<stop stop-color="#2D2F34"/>
<stop offset="0.29" stop-color="#282A2F"/>
<stop offset="0.65" stop-color="#181B1F"/>
<stop offset="1" stop-color="#020509"/>
</linearGradient>
<linearGradient id="paint2_linear_4_385" x1="-1064.37" y1="7495.15" x2="10058.9" y2="1211.03" gradientUnits="userSpaceOnUse">
<stop stop-color="#2D2F34"/>
<stop offset="0.29" stop-color="#282A2F"/>
<stop offset="0.65" stop-color="#181B1F"/>
<stop offset="1" stop-color="#020509"/>
</linearGradient>
<linearGradient id="paint3_linear_4_385" x1="-17.4923" y1="37.7284" x2="112.327" y2="68.0142" gradientUnits="userSpaceOnUse">
<stop stop-color="#191C20"/>
<stop offset="0.2" stop-color="#101317"/>
<stop offset="0.56" stop-color="#05080C"/>
<stop offset="1" stop-color="#020509"/>
</linearGradient>
<linearGradient id="paint4_linear_4_385" x1="-425.857" y1="62.9468" x2="4059.17" y2="-55.0116" gradientUnits="userSpaceOnUse">
<stop stop-color="#191C20"/>
<stop offset="0.2" stop-color="#101317"/>
<stop offset="0.56" stop-color="#05080C"/>
<stop offset="1" stop-color="#020509"/>
</linearGradient>
<linearGradient id="paint5_linear_4_385" x1="-14.1739" y1="-14.1604" x2="229.778" y2="294.024" gradientUnits="userSpaceOnUse">
<stop stop-color="#191C20"/>
<stop offset="0.2" stop-color="#101317"/>
<stop offset="0.56" stop-color="#05080C"/>
<stop offset="1" stop-color="#020509"/>
</linearGradient>
<linearGradient id="paint6_linear_4_385" x1="-128.635" y1="231.486" x2="1150.16" y2="376.938" gradientUnits="userSpaceOnUse">
<stop stop-color="#191C20"/>
<stop offset="0.2" stop-color="#101317"/>
<stop offset="0.56" stop-color="#05080C"/>
<stop offset="1" stop-color="#020509"/>
</linearGradient>
<linearGradient id="paint7_linear_4_385" x1="-2.58935" y1="-22.9498" x2="241.359" y2="285.231" gradientUnits="userSpaceOnUse">
<stop stop-color="#191C20"/>
<stop offset="0.2" stop-color="#101317"/>
<stop offset="0.56" stop-color="#05080C"/>
<stop offset="1" stop-color="#020509"/>
</linearGradient>
<linearGradient id="paint8_linear_4_385" x1="-70.1193" y1="-28.9937" x2="1207.01" y2="114.86" gradientUnits="userSpaceOnUse">
<stop stop-color="#191C20"/>
<stop offset="0.2" stop-color="#101317"/>
<stop offset="0.56" stop-color="#05080C"/>
<stop offset="1" stop-color="#020509"/>
</linearGradient>
<linearGradient id="paint9_linear_4_385" x1="-671.87" y1="10.5681" x2="5980.78" y2="2075.67" gradientUnits="userSpaceOnUse">
<stop stop-color="#191C20"/>
<stop offset="0.2" stop-color="#101317"/>
<stop offset="0.56" stop-color="#05080C"/>
<stop offset="1" stop-color="#020509"/>
</linearGradient>
<linearGradient id="paint10_linear_4_385" x1="-943.409" y1="704.908" x2="2588.03" y2="3207.07" gradientUnits="userSpaceOnUse">
<stop stop-color="#191C20"/>
<stop offset="0.2" stop-color="#101317"/>
<stop offset="0.56" stop-color="#05080C"/>
<stop offset="1" stop-color="#020509"/>
</linearGradient>
<linearGradient id="paint11_linear_4_385" x1="-57.1739" y1="-82.1947" x2="825.216" y2="-226.702" gradientUnits="userSpaceOnUse">
<stop stop-color="#191C20"/>
<stop offset="0.2" stop-color="#101317"/>
<stop offset="0.56" stop-color="#05080C"/>
<stop offset="1" stop-color="#020509"/>
</linearGradient>
<linearGradient id="paint12_linear_4_385" x1="-420.546" y1="-896.906" x2="4064.48" y2="-1014.87" gradientUnits="userSpaceOnUse">
<stop stop-color="#191C20"/>
<stop offset="0.2" stop-color="#101317"/>
<stop offset="0.56" stop-color="#05080C"/>
<stop offset="1" stop-color="#020509"/>
</linearGradient>
<linearGradient id="paint13_linear_4_385" x1="-6.02097" y1="20.1449" x2="62.5829" y2="36.0477" gradientUnits="userSpaceOnUse">
<stop stop-color="white"/>
<stop offset="1" stop-color="#020509"/>
</linearGradient>
<clipPath id="clip0_4_385">
<rect width="38.8064" height="42.9347" fill="white" transform="translate(0 19.0882) rotate(-29.4645)"/>
</clipPath>
</defs>
<g clip-path="url(#clip0_4_385)">
<path fill-rule="evenodd" clip-rule="evenodd" d="M7.39964 31.8403L6.7131 30.1344L6.85786 28.9271L7.83734 28.2132L9.64556 27.996L23.0027 28.1745L25.086 28.4442L26.8934 29.1957L28.4155 30.4263L29.6598 32.1382L36.2762 43.8495L36.9614 45.553L36.8173 46.7615L35.8378 47.4754L34.0296 47.6926L20.6731 47.5153L18.5884 47.2432L16.7824 46.4941L15.259 45.2611L14.016 43.5516L7.39964 31.8403Z" fill="url(#paint0_linear_4_385)"/>
<path fill-rule="evenodd" clip-rule="evenodd" d="M6.73516 25.7771L7.44034 24.0926L14.1812 12.5597L15.441 10.8814L16.9785 9.69162L18.7911 8.98873L20.8789 8.7758L34.2349 8.95492L36.0405 9.22096L37.011 9.96036L37.1434 11.1733L36.4401 12.8583L29.7005 24.3905L28.4399 26.0677L26.9031 27.2586L25.0899 27.9603L23.0028 28.1744L9.64557 27.996L7.83812 27.7294L6.86758 26.99L6.73516 25.7771Z" fill="url(#paint1_linear_4_385)"/>
<path fill-rule="evenodd" clip-rule="evenodd" d="M29.6598 32.1382L28.8345 30.1896L28.5672 28.2501L28.8551 26.3148L29.7005 24.3905L36.4401 12.8583L37.5617 11.4202L38.6763 10.9511L39.7863 11.4495L40.8919 12.9187L47.5083 24.63L48.3322 26.5762L48.6009 28.5181L48.3128 30.4503L47.4676 32.3776L40.7273 43.9086L39.6069 45.346L38.4911 45.8159L37.3804 45.3162L36.2762 43.8495L29.6598 32.1382Z" fill="url(#paint2_linear_4_385)"/>
<path fill-rule="evenodd" clip-rule="evenodd" d="M15.7248 45.7148L16.7824 46.4941L15.259 45.261L15.7248 45.7148Z" fill="url(#paint3_linear_4_385)"/>
<path fill-rule="evenodd" clip-rule="evenodd" d="M7.44033 24.0926L6.59686 26.0174L6.44153 26.6457L6.3064 27.9509L6.42799 29.259L6.57558 29.891L7.39965 31.8403L6.71311 30.1344L6.85787 28.9271L7.83735 28.2132L9.64556 27.996L7.8393 27.7288L6.86758 26.99L6.73635 25.7765L7.44033 24.0926Z" fill="url(#paint4_linear_4_385)"/>
<path fill-rule="evenodd" clip-rule="evenodd" d="M15.9105 10.4412L15.441 10.8814L16.9785 9.69163L15.9105 10.4412Z" fill="url(#paint5_linear_4_385)"/>
<path fill-rule="evenodd" clip-rule="evenodd" d="M17.9701 47.052L18.5884 47.2432L16.7824 46.4941L17.9701 47.052Z" fill="url(#paint6_linear_4_385)"/>
<path fill-rule="evenodd" clip-rule="evenodd" d="M18.1706 9.16444L16.9785 9.69165L18.7911 8.98876L18.1706 9.16444Z" fill="url(#paint7_linear_4_385)"/>
<path fill-rule="evenodd" clip-rule="evenodd" d="M48.4658 29.8233L48.6009 28.5181L48.3128 30.4503L48.4658 29.8233Z" fill="url(#paint8_linear_4_385)"/>
<path fill-rule="evenodd" clip-rule="evenodd" d="M26.9031 27.2587L25.0899 27.9603L23.0027 28.1745L25.086 28.4442L26.8934 29.1957L28.4155 30.4263L29.6598 32.1382L28.8345 30.1896L28.5672 28.25L28.8551 26.3148L29.7005 24.3906L28.4399 26.0677L26.9031 27.2587Z" fill="url(#paint9_linear_4_385)"/>
<path fill-rule="evenodd" clip-rule="evenodd" d="M38.4911 45.8158L37.3804 45.3162L36.2762 43.8495L36.9613 45.553L36.8173 46.7615L35.8378 47.4754L34.0296 47.6926L36.1174 47.4796L36.7367 47.3046L37.9299 46.7767L38.9967 46.0278L39.4674 45.587L40.7273 43.9086L39.6069 45.346L38.4911 45.8158Z" fill="url(#paint10_linear_4_385)"/>
<path fill-rule="evenodd" clip-rule="evenodd" d="M48.4793 27.2101L48.3322 26.5762L48.6009 28.5181L48.4793 27.2101Z" fill="url(#paint11_linear_4_385)"/>
<path fill-rule="evenodd" clip-rule="evenodd" d="M39.6488 11.2061L39.1825 10.7542L38.1249 9.97495L36.9372 9.41706L36.3212 9.22451L34.2349 8.95493L36.0405 9.22097L37.011 9.96037L37.1434 11.1733L36.4401 12.8583L37.5617 11.4202L38.6763 10.9511L39.7864 11.4495L40.8919 12.9186L39.6488 11.2061Z" fill="url(#paint12_linear_4_385)"/>
<g style="mix-blend-mode:overlay">
<path d="M41.0388 12.8357C41.0388 12.8357 41.0388 12.8357 41.034 12.8272C41.0293 12.8188 41.034 12.8273 41.0293 12.8188L41.0197 12.8019L39.7919 11.111C39.7919 11.111 39.7919 11.111 39.7851 11.0989C39.7783 11.0869 39.7804 11.0905 39.7776 11.0856L39.2958 10.6314C39.2958 10.6314 39.2958 10.6314 39.2838 10.627C39.2719 10.6226 39.2798 10.6197 39.2784 10.6173L38.2191 9.84064C38.2191 9.84064 38.2107 9.84537 38.2029 9.83708C38.195 9.82879 38.1967 9.82624 38.194 9.82141L37.0063 9.26353L36.998 9.26825C36.998 9.26825 36.9939 9.26102 36.9918 9.25741L36.3759 9.06485C36.3759 9.06485 36.3676 9.06957 36.364 9.0716C36.3604 9.07362 36.3592 9.06317 36.3507 9.0648L34.2643 8.7952C34.2643 8.7952 34.2584 8.79858 34.256 8.79993C34.2536 8.80128 34.256 8.79994 34.2519 8.7927L20.8971 8.61292L20.8887 8.61764C20.8887 8.61764 20.8887 8.61764 20.8816 8.62168L18.7962 8.83326L18.7819 8.84135C18.7819 8.84135 18.7718 8.8375 18.7663 8.83899L18.1477 9.01521C18.1477 9.01521 18.1406 9.01925 18.137 9.02128C18.1334 9.0233 18.131 9.02465 18.1274 9.02667L16.9347 9.55266C16.9287 9.55604 16.9263 9.55739 16.9204 9.56076C16.9144 9.56413 16.912 9.56548 16.906 9.56885L15.8375 10.3204C15.8375 10.3204 15.8375 10.3204 15.828 10.3258C15.8184 10.3311 15.822 10.3291 15.8172 10.3318L15.3494 10.7694C15.3435 10.7728 15.3475 10.78 15.3434 10.7839C15.3393 10.7878 15.3339 10.7893 15.3291 10.792L14.0716 12.469L14.0656 12.4724L14.0418 12.4859L7.30095 24.0188C7.30095 24.0188 7.30095 24.0188 7.29906 24.0294C7.29718 24.04 7.29906 24.0294 7.2907 24.0341L6.44724 25.9589C6.44724 25.9589 6.45201 25.9673 6.4462 25.9738C6.4404 25.9802 6.43785 25.9785 6.43426 25.9805L6.27893 26.6088C6.27893 26.6088 6.28301 26.616 6.28437 26.6184C6.28573 26.6209 6.27721 26.6225 6.27482 26.6238L6.13747 27.9335C6.13747 27.9335 6.1436 27.9443 6.14632 27.9492C6.14904 27.954 6.13796 27.9539 6.14102 27.9649L6.26331 29.2741C6.26331 29.2741 6.26671 29.2801 6.26875 29.2838C6.27079 29.2874 6.26278 29.2871 6.26703 29.2975L6.41394 29.9283C6.41394 29.9283 6.41939 29.9379 6.42211 29.9427C6.42484 29.9475 6.42211 29.9427 6.42227 29.9569L7.23579 31.882L7.24532 31.8988C7.24532 31.8988 7.24532 31.8988 7.25008 31.9073C7.25485 31.9157 7.25009 31.9073 7.25485 31.9157L13.8712 43.6271C13.8712 43.6271 13.8712 43.6271 13.876 43.6355C13.8808 43.6439 13.876 43.6355 13.8808 43.6439L15.1244 45.3546C15.1244 45.3546 15.1344 45.3584 15.1365 45.3621C15.1385 45.3657 15.1413 45.3705 15.144 45.3753L15.6091 45.8279C15.6091 45.8279 15.6151 45.8245 15.6218 45.8335C15.6284 45.8425 15.6258 45.8407 15.6279 45.8444L16.6797 46.6189C16.6831 46.6249 16.6915 46.6202 16.6966 46.6237C16.7017 46.6272 16.702 46.6333 16.7047 46.6381L17.8836 47.1915C17.8836 47.1915 17.8908 47.1875 17.8931 47.1861C17.8955 47.1848 17.8965 47.1921 17.8986 47.1957L18.5169 47.3869C18.5169 47.3869 18.5264 47.3816 18.53 47.3795C18.5336 47.3775 18.5341 47.3868 18.5421 47.387L20.6268 47.6591L20.6351 47.6544C20.6351 47.6544 20.6385 47.6604 20.6459 47.6595L34.0291 47.8645C34.0291 47.8645 34.0351 47.8612 34.0375 47.8598C34.0398 47.8585 34.0375 47.8598 34.0434 47.8564L34.0506 47.8524L36.128 47.6406C36.128 47.6406 36.1375 47.6352 36.1411 47.6332C36.1447 47.6311 36.1471 47.6298 36.1571 47.6336L36.7741 47.46C36.7741 47.46 36.7812 47.4559 36.7848 47.4539C36.7884 47.4519 36.7908 47.4505 36.7944 47.4485L37.9888 46.92C37.9888 46.92 37.9984 46.9146 38.0031 46.9119C38.0079 46.9092 38.0115 46.9071 38.0175 46.9038L39.0842 46.1548C39.0842 46.1548 39.0842 46.1548 39.0938 46.1494C39.1033 46.144 39.0998 46.1461 39.1045 46.1434L39.5741 45.7032C39.5741 45.7032 39.5741 45.7032 39.5807 45.6899C39.5874 45.6766 39.5891 45.6852 39.5951 45.6818L40.8526 44.0048C40.8526 44.0048 40.8526 44.0048 40.8597 44.0008C40.8669 43.9967 40.8597 44.0008 40.8681 43.9961L47.6065 32.4645C47.6065 32.4645 47.6031 32.4585 47.6017 32.4561L47.6101 32.4514L48.4553 30.524C48.4553 30.524 48.4505 30.5156 48.4556 30.5079C48.4607 30.5002 48.464 30.5032 48.4676 30.5012L48.6205 29.8742C48.6205 29.8742 48.6164 29.867 48.6144 29.8634L48.6227 29.8587L48.7579 28.5534L48.7569 28.5349C48.7569 28.5349 48.7569 28.5349 48.7535 28.5289L48.6329 27.2282C48.6329 27.2282 48.6281 27.2198 48.6261 27.2162C48.624 27.2126 48.6261 27.2162 48.6291 27.2049L48.4828 26.5722C48.4828 26.5722 48.478 26.5638 48.4753 26.559C48.4725 26.5542 48.4712 26.5517 48.4685 26.5469L47.6439 24.5995C47.6439 24.5995 47.6439 24.5995 47.6391 24.5911C47.6343 24.5826 47.6391 24.5911 47.6343 24.5826L41.0388 12.8357ZM47.3162 32.2963L40.5916 43.8105L39.5032 45.2043L38.4981 45.6275L37.4934 45.1761L36.4217 43.753L29.8176 32.0634L29.0057 30.1469L28.7457 28.251L29.0259 26.3662L29.8554 24.4668L36.58 12.9526L37.6676 11.5575L38.6758 11.1342L39.678 11.5839L40.7499 13.01L47.354 24.6997L48.1702 26.6184L48.4313 28.5217L48.1497 30.4041L47.3162 32.2963ZM38.8886 45.8949L37.8455 46.6273L36.6763 47.1448L36.523 47.1885L36.9125 46.9049C36.9318 46.8864 36.9464 46.8634 36.955 46.8379C36.9691 46.8209 36.98 46.8013 36.9869 46.7802L37.1299 45.5754C37.1308 45.5574 37.1157 45.5501 37.1172 45.5333C37.1187 45.5165 37.1244 45.507 37.1186 45.4912L36.9095 44.9734L37.2452 45.4197C37.2526 45.4329 37.2724 45.4345 37.2852 45.4431C37.298 45.4518 37.2988 45.4672 37.3126 45.4722L38.4177 45.9702C38.4354 45.9793 38.4584 45.9726 38.4794 45.9735C38.5047 45.9798 38.5311 45.9796 38.5563 45.973L39.005 45.7831L38.8886 45.8949ZM20.6804 47.3443L18.629 47.0724L16.8719 46.3514L15.3839 45.1476L14.1615 43.4662L7.55739 31.7766L6.89211 30.1223L7.02229 29.0313L7.90641 28.3856L9.66143 28.1746L22.9929 28.3549L25.0502 28.6234L26.8097 29.3542L28.2971 30.5568L29.5215 32.2418L36.1256 43.9314L36.7909 45.5857L36.6607 46.6767L35.7771 47.3206L34.0221 47.5315L20.6804 47.3443ZM6.5944 29.2301L6.47635 27.9535L6.60873 26.6768L6.64653 26.5235L6.69777 27.0017C6.69878 27.0202 6.71751 27.0367 6.72773 27.0547C6.73489 27.0799 6.74797 27.1031 6.76586 27.1222L7.7369 27.8597C7.75104 27.8708 7.76485 27.8646 7.77934 27.8707C7.79382 27.8769 7.79825 27.8903 7.81563 27.8932L8.36022 27.9734L7.81619 28.0391C7.79846 28.0412 7.79112 28.0533 7.77798 28.0607C7.76485 28.0681 7.75088 28.0601 7.73724 28.0694L6.76066 28.7801C6.74395 28.7896 6.73915 28.8145 6.72652 28.8312C6.71046 28.8506 6.69793 28.8728 6.68947 28.8966L6.63245 29.3756L6.5944 29.2301ZM14.3219 12.6583L15.5633 11.0031L17.0616 9.83865L18.831 9.15697L20.8907 8.94721L34.2214 9.12628L35.9743 9.38551L36.8505 10.0526L36.9704 11.1486L36.2878 12.7838L29.5618 24.2956L28.3215 25.9502L26.8245 27.1139L25.0551 27.7956L22.9966 28.0047L9.66515 27.8244L7.91224 27.5652L7.03421 26.8975L6.91617 25.8021L7.59881 24.1669L14.3219 12.6583ZM36.8789 9.57877L38.0388 10.1237L39.0746 10.8867L39.187 10.9964L38.7443 10.7982C38.7232 10.789 38.7003 10.7846 38.6773 10.7855C38.6543 10.7863 38.6319 10.7924 38.6117 10.8032L37.5049 11.2695C37.4906 11.2776 37.4858 11.2914 37.474 11.3013C37.4623 11.3111 37.4479 11.3081 37.4382 11.3215L37.0923 11.749L37.3057 11.2374C37.3116 11.2229 37.3035 11.2084 37.3052 11.1948C37.3069 11.1811 37.3199 11.1706 37.3177 11.1527L37.1909 9.95257C37.1842 9.93372 37.1743 9.91617 37.1616 9.90074C37.1542 9.87513 37.1409 9.85159 37.1228 9.83205L36.7338 9.5367L36.8789 9.57877ZM28.7001 26.2466C28.7001 26.2466 28.7076 26.2599 28.6995 26.2708C28.6915 26.2817 28.6864 26.2782 28.6871 26.2905L28.4004 28.2251C28.4004 28.2251 28.4079 28.2383 28.4119 28.2456C28.416 28.2528 28.4041 28.2596 28.4053 28.27L28.6726 30.2095C28.6774 30.218 28.6801 30.2228 28.6842 30.23C28.6882 30.2372 28.6801 30.245 28.6836 30.2542L28.9335 30.8443L28.5564 30.3244C28.5523 30.3172 28.5426 30.3195 28.5373 30.313C28.532 30.3064 28.5298 30.2997 28.5257 30.2925L27.0036 29.0619C26.9989 29.0534 26.9881 29.0595 26.9793 29.055C26.9704 29.0504 26.9711 29.0405 26.9677 29.0345L25.1603 28.283C25.1603 28.283 25.1484 28.2897 25.1382 28.2828C25.1279 28.2758 25.1314 28.2707 25.1172 28.2708L24.4939 28.1905L25.1192 28.1266C25.1276 28.1219 25.1323 28.1192 25.1395 28.1151C25.1467 28.1111 25.1557 28.1187 25.1635 28.1158L26.9712 27.4126C26.9795 27.4078 26.9855 27.4045 26.9927 27.4004C26.9998 27.3964 27.0087 27.4009 27.0141 27.3883L28.5494 26.203C28.5566 26.1989 28.5554 26.1885 28.56 26.1827C28.5646 26.1769 28.5743 26.1746 28.5815 26.1705L28.9573 25.6705L28.7001 26.2466Z" fill="#3E3E3E"/>
</g>
<path style="mix-blend-mode:overlay" opacity="0.56" d="M41.0388 12.8357C41.0388 12.8357 41.0388 12.8357 41.034 12.8272C41.0293 12.8188 41.034 12.8273 41.0293 12.8188L41.0197 12.8019L39.7919 11.111C39.7919 11.111 39.7919 11.111 39.7851 11.0989C39.7783 11.0869 39.7804 11.0905 39.7776 11.0856L39.2958 10.6314C39.2958 10.6314 39.2958 10.6314 39.2838 10.627C39.2719 10.6226 39.2798 10.6197 39.2784 10.6173L38.2191 9.84064C38.2191 9.84064 38.2107 9.84537 38.2029 9.83708C38.195 9.82879 38.1967 9.82624 38.194 9.82141L37.0063 9.26353L36.998 9.26825C36.998 9.26825 36.9939 9.26102 36.9918 9.25741L36.3759 9.06485C36.3759 9.06485 36.3676 9.06957 36.364 9.0716C36.3604 9.07362 36.3592 9.06317 36.3507 9.0648L34.2643 8.7952C34.2643 8.7952 34.2584 8.79858 34.256 8.79993C34.2536 8.80128 34.256 8.79994 34.2519 8.7927L20.8971 8.61292L20.8887 8.61764C20.8887 8.61764 20.8887 8.61764 20.8816 8.62168L18.7962 8.83326L18.7819 8.84135C18.7819 8.84135 18.7718 8.8375 18.7663 8.83899L18.1477 9.01521C18.1477 9.01521 18.1406 9.01925 18.137 9.02128C18.1334 9.0233 18.131 9.02465 18.1274 9.02667L16.9347 9.55266C16.9287 9.55604 16.9263 9.55739 16.9204 9.56076C16.9144 9.56413 16.912 9.56548 16.906 9.56885L15.8375 10.3204C15.8375 10.3204 15.8375 10.3204 15.828 10.3258C15.8184 10.3311 15.822 10.3291 15.8172 10.3318L15.3494 10.7694C15.3435 10.7728 15.3475 10.78 15.3434 10.7839C15.3393 10.7878 15.3339 10.7893 15.3291 10.792L14.0716 12.469L14.0656 12.4724L14.0418 12.4859L7.30095 24.0188C7.30095 24.0188 7.30095 24.0188 7.29906 24.0294C7.29718 24.04 7.29906 24.0294 7.2907 24.0341L6.44724 25.9589C6.44724 25.9589 6.45201 25.9673 6.4462 25.9738C6.4404 25.9802 6.43785 25.9785 6.43426 25.9805L6.27893 26.6088C6.27893 26.6088 6.28301 26.616 6.28437 26.6184C6.28573 26.6209 6.27721 26.6225 6.27482 26.6238L6.13747 27.9335C6.13747 27.9335 6.1436 27.9443 6.14632 27.9492C6.14904 27.954 6.13796 27.9539 6.14102 27.9649L6.26331 29.2741C6.26331 29.2741 6.26671 29.2801 6.26875 29.2838C6.27079 29.2874 6.26278 29.2871 6.26703 29.2975L6.41394 29.9283C6.41394 29.9283 6.41939 29.9379 6.42211 29.9427C6.42484 29.9475 6.42211 29.9427 6.42227 29.9569L7.23579 31.882L7.24532 31.8988C7.24532 31.8988 7.24532 31.8988 7.25008 31.9073C7.25485 31.9157 7.25009 31.9073 7.25485 31.9157L13.8712 43.6271C13.8712 43.6271 13.8712 43.6271 13.876 43.6355C13.8808 43.6439 13.876 43.6355 13.8808 43.6439L15.1244 45.3546C15.1244 45.3546 15.1344 45.3584 15.1365 45.3621C15.1385 45.3657 15.1413 45.3705 15.144 45.3753L15.6091 45.8279C15.6091 45.8279 15.6151 45.8245 15.6218 45.8335C15.6284 45.8425 15.6258 45.8407 15.6279 45.8444L16.6797 46.6189C16.6831 46.6249 16.6915 46.6202 16.6966 46.6237C16.7017 46.6272 16.702 46.6333 16.7047 46.6381L17.8836 47.1915C17.8836 47.1915 17.8908 47.1875 17.8931 47.1861C17.8955 47.1848 17.8965 47.1921 17.8986 47.1957L18.5169 47.3869C18.5169 47.3869 18.5264 47.3816 18.53 47.3795C18.5336 47.3775 18.5341 47.3868 18.5421 47.387L20.6268 47.6591L20.6351 47.6544C20.6351 47.6544 20.6385 47.6604 20.6459 47.6595L34.0291 47.8645C34.0291 47.8645 34.0351 47.8612 34.0375 47.8598C34.0398 47.8585 34.0375 47.8598 34.0434 47.8564L34.0506 47.8524L36.128 47.6406C36.128 47.6406 36.1375 47.6352 36.1411 47.6332C36.1447 47.6311 36.1471 47.6298 36.1571 47.6336L36.7741 47.46C36.7741 47.46 36.7812 47.4559 36.7848 47.4539C36.7884 47.4519 36.7908 47.4505 36.7944 47.4485L37.9888 46.92C37.9888 46.92 37.9984 46.9146 38.0031 46.9119C38.0079 46.9092 38.0115 46.9071 38.0175 46.9038L39.0842 46.1548C39.0842 46.1548 39.0842 46.1548 39.0938 46.1494C39.1033 46.144 39.0998 46.1461 39.1045 46.1434L39.5741 45.7032C39.5741 45.7032 39.5741 45.7032 39.5807 45.6899C39.5874 45.6766 39.5891 45.6852 39.5951 45.6818L40.8526 44.0048C40.8526 44.0048 40.8526 44.0048 40.8597 44.0008C40.8669 43.9967 40.8597 44.0008 40.8681 43.9961L47.6065 32.4645C47.6065 32.4645 47.6031 32.4585 47.6017 32.4561L47.6101 32.4514L48.4553 30.524C48.4553 30.524 48.4505 30.5156 48.4556 30.5079C48.4607 30.5002 48.464 30.5032 48.4676 30.5012L48.6205 29.8742C48.6205 29.8742 48.6164 29.867 48.6144 29.8634L48.6227 29.8587L48.7579 28.5534L48.7569 28.5349C48.7569 28.5349 48.7569 28.5349 48.7535 28.5289L48.6329 27.2282C48.6329 27.2282 48.6281 27.2198 48.6261 27.2162C48.624 27.2126 48.6261 27.2162 48.6291 27.2049L48.4828 26.5722C48.4828 26.5722 48.478 26.5638 48.4753 26.559C48.4725 26.5542 48.4712 26.5517 48.4685 26.5469L47.6439 24.5995C47.6439 24.5995 47.6439 24.5995 47.6391 24.5911C47.6343 24.5826 47.6391 24.5911 47.6343 24.5826L41.0388 12.8357ZM47.3162 32.2963L40.5916 43.8105L39.5032 45.2043L38.4981 45.6275L37.4934 45.1761L36.4217 43.753L29.8176 32.0634L29.0057 30.1469L28.7457 28.251L29.0259 26.3662L29.8554 24.4668L36.58 12.9526L37.6676 11.5575L38.6758 11.1342L39.678 11.5839L40.7499 13.01L47.354 24.6997L48.1702 26.6184L48.4313 28.5217L48.1497 30.4041L47.3162 32.2963ZM38.8886 45.8949L37.8455 46.6273L36.6763 47.1448L36.523 47.1885L36.9125 46.9049C36.9318 46.8864 36.9464 46.8634 36.955 46.8379C36.9691 46.8209 36.98 46.8013 36.9869 46.7802L37.1299 45.5754C37.1308 45.5574 37.1157 45.5501 37.1172 45.5333C37.1187 45.5165 37.1244 45.507 37.1186 45.4912L36.9095 44.9734L37.2452 45.4197C37.2526 45.4329 37.2724 45.4345 37.2852 45.4431C37.298 45.4518 37.2988 45.4672 37.3126 45.4722L38.4177 45.9702C38.4354 45.9793 38.4584 45.9726 38.4794 45.9735C38.5047 45.9798 38.5311 45.9796 38.5563 45.973L39.005 45.7831L38.8886 45.8949ZM20.6804 47.3443L18.629 47.0724L16.8719 46.3514L15.3839 45.1476L14.1615 43.4662L7.55739 31.7766L6.89211 30.1223L7.02229 29.0313L7.90641 28.3856L9.66143 28.1746L22.9929 28.3549L25.0502 28.6234L26.8097 29.3542L28.2971 30.5568L29.5215 32.2418L36.1256 43.9314L36.7909 45.5857L36.6607 46.6767L35.7771 47.3206L34.0221 47.5315L20.6804 47.3443ZM6.5944 29.2301L6.47635 27.9535L6.60873 26.6768L6.64653 26.5235L6.69777 27.0017C6.69878 27.0202 6.71751 27.0367 6.72773 27.0547C6.73489 27.0799 6.74797 27.1031 6.76586 27.1222L7.7369 27.8597C7.75104 27.8708 7.76485 27.8646 7.77934 27.8707C7.79382 27.8769 7.79825 27.8903 7.81563 27.8932L8.36022 27.9734L7.81619 28.0391C7.79846 28.0412 7.79112 28.0533 7.77798 28.0607C7.76485 28.0681 7.75088 28.0601 7.73724 28.0694L6.76066 28.7801C6.74395 28.7896 6.73915 28.8145 6.72652 28.8312C6.71046 28.8506 6.69793 28.8728 6.68947 28.8966L6.63245 29.3756L6.5944 29.2301ZM14.3219 12.6583L15.5633 11.0031L17.0616 9.83865L18.831 9.15697L20.8907 8.94721L34.2214 9.12628L35.9743 9.38551L36.8505 10.0526L36.9704 11.1486L36.2878 12.7838L29.5618 24.2956L28.3215 25.9502L26.8245 27.1139L25.0551 27.7956L22.9966 28.0047L9.66515 27.8244L7.91224 27.5652L7.03421 26.8975L6.91617 25.8021L7.59881 24.1669L14.3219 12.6583ZM36.8789 9.57877L38.0388 10.1237L39.0746 10.8867L39.187 10.9964L38.7443 10.7982C38.7232 10.789 38.7003 10.7846 38.6773 10.7855C38.6543 10.7863 38.6319 10.7924 38.6117 10.8032L37.5049 11.2695C37.4906 11.2776 37.4858 11.2914 37.474 11.3013C37.4623 11.3111 37.4479 11.3081 37.4382 11.3215L37.0923 11.749L37.3057 11.2374C37.3116 11.2229 37.3035 11.2084 37.3052 11.1948C37.3069 11.1811 37.3199 11.1706 37.3177 11.1527L37.1909 9.95257C37.1842 9.93372 37.1743 9.91617 37.1616 9.90074C37.1542 9.87513 37.1409 9.85159 37.1228 9.83205L36.7338 9.5367L36.8789 9.57877ZM28.7001 26.2466C28.7001 26.2466 28.7076 26.2599 28.6995 26.2708C28.6915 26.2817 28.6864 26.2782 28.6871 26.2905L28.4004 28.2251C28.4004 28.2251 28.4079 28.2383 28.4119 28.2456C28.416 28.2528 28.4041 28.2596 28.4053 28.27L28.6726 30.2095C28.6774 30.218 28.6801 30.2228 28.6842 30.23C28.6882 30.2372 28.6801 30.245 28.6836 30.2542L28.9335 30.8443L28.5564 30.3244C28.5523 30.3172 28.5426 30.3195 28.5373 30.313C28.532 30.3064 28.5298 30.2997 28.5257 30.2925L27.0036 29.0619C26.9989 29.0534 26.9881 29.0595 26.9793 29.055C26.9704 29.0504 26.9711 29.0405 26.9677 29.0345L25.1603 28.283C25.1603 28.283 25.1484 28.2897 25.1382 28.2828C25.1279 28.2758 25.1314 28.2707 25.1172 28.2708L24.4939 28.1905L25.1192 28.1266C25.1276 28.1219 25.1323 28.1192 25.1395 28.1151C25.1467 28.1111 25.1557 28.1187 25.1635 28.1158L26.9712 27.4126C26.9795 27.4078 26.9855 27.4045 26.9927 27.4004C26.9998 27.3964 27.0087 27.4009 27.0141 27.3883L28.5494 26.203C28.5566 26.1989 28.5554 26.1885 28.56 26.1827C28.5646 26.1769 28.5743 26.1746 28.5815 26.1705L28.9573 25.6705L28.7001 26.2466Z" fill="url(#paint13_linear_4_385)"/>
<path d="M20.9884 13.9792C20.8776 13.9783 20.8332 13.908 20.8904 13.8057C21.337 13.0463 20.9853 12.4182 20.1019 12.4102C19.9905 12.408 19.9467 12.3389 20.0032 12.2354C20.0369 12.1851 20.0818 12.1434 20.1344 12.1137C20.1871 12.0839 20.246 12.067 20.3065 12.0641C21.4145 12.074 21.848 12.8609 21.2916 13.8079C21.2594 13.8583 21.2154 13.9 21.1634 13.9294C21.1114 13.9587 21.053 13.9749 20.9932 13.9766L20.9884 13.9792ZM20.5069 11.722C19.1832 11.7067 17.5607 12.6233 16.8906 13.765C16.2205 14.9067 16.749 15.8449 18.0732 15.8583C19.3974 15.8717 21.0182 14.9576 21.6895 13.8152C22.3608 12.6729 21.8311 11.7353 20.5069 11.722Z" fill="white"/>
<path d="M20.3068 12.0703C20.2463 12.0731 20.1874 12.0901 20.1348 12.1198C20.0822 12.1495 20.0372 12.1912 20.0036 12.2416C19.946 12.3377 19.9905 12.408 20.1023 12.4163C20.9833 12.4257 21.3349 13.0538 20.8907 13.8119C20.8332 13.9079 20.8776 13.9782 20.9887 13.9854C21.0486 13.9838 21.107 13.9676 21.159 13.9382C21.2109 13.9088 21.255 13.8672 21.2872 13.8168C21.8446 12.866 21.4094 12.0817 20.302 12.073" fill="black"/>
<path d="M24.1448 19.5662C24.0339 19.5652 23.9931 19.4929 24.0467 19.3926C24.4933 18.6332 24.1417 18.0052 23.2583 17.9971C23.1468 17.9949 23.1026 17.9166 23.1596 17.8224C23.1932 17.772 23.2382 17.7303 23.2908 17.7006C23.3434 17.6708 23.4023 17.6539 23.4628 17.651C24.5709 17.6609 25.0114 18.4406 24.448 19.3948C24.4147 19.4442 24.3704 19.4851 24.3187 19.5144C24.2669 19.5436 24.209 19.5604 24.1495 19.5635L24.1448 19.5662ZM23.6633 17.3089C22.3353 17.2944 20.72 18.207 20.047 19.3519C19.374 20.4968 19.9033 21.4282 21.2289 21.444C22.5545 21.4598 24.1685 20.5448 24.8404 19.4037C25.5124 18.2625 24.9851 17.3236 23.6585 17.3116" fill="white"/>
<path d="M23.4604 17.6524C23.3999 17.6552 23.341 17.6722 23.2884 17.7019C23.2358 17.7317 23.1909 17.7734 23.1572 17.8237C23.1026 17.9166 23.1441 17.9901 23.2559 17.9985C24.1369 18.0079 24.4886 18.6359 24.0443 19.394C23.9897 19.4869 24.0312 19.5604 24.1424 19.5675C24.2019 19.5645 24.2597 19.5477 24.3115 19.5184C24.3633 19.4892 24.4075 19.4483 24.4408 19.3989C25.0042 18.4447 24.5631 17.6638 23.4557 17.6551" fill="black"/>
<path d="M33.7836 14.1191C33.6746 14.1186 33.6307 14.0465 33.6862 13.9468C34.1328 13.1873 33.7781 12.5594 32.8964 12.5488C32.7875 12.5483 32.7436 12.4762 32.7991 12.3765C32.8326 12.3266 32.8772 12.2853 32.9294 12.2558C32.9816 12.2263 33.04 12.2095 33.0999 12.2065C34.208 12.2164 34.6434 13.0038 34.0858 13.9515C34.0531 14.0018 34.0088 14.0434 33.9567 14.0728C33.9046 14.1023 33.8461 14.1187 33.7861 14.1208L33.7836 14.1191ZM33.2992 11.865C31.975 11.8516 30.3567 12.7675 29.6841 13.9074C29.0114 15.0473 29.5394 15.9875 30.866 15.9995C32.1926 16.0115 33.8115 15.0969 34.4835 13.9558C35.1555 12.8146 34.6282 11.8757 33.3002 11.8613" fill="white"/>
<path d="M33.0981 12.206C33.0381 12.2089 32.9797 12.2258 32.9275 12.2553C32.8753 12.2848 32.8307 12.3261 32.7972 12.376C32.7403 12.4733 32.7829 12.543 32.8946 12.5483C33.7762 12.5589 34.1309 13.1868 33.6843 13.9462C33.6268 14.0423 33.67 14.1133 33.7817 14.1186C33.8416 14.1165 33.9001 14.1 33.9522 14.0706C34.0044 14.0411 34.0486 13.9995 34.0813 13.9493C34.6447 12.9951 34.2036 12.2142 33.0955 12.2043" fill="black"/>
<path d="M14.5041 25.0127C14.3933 25.0117 14.3524 24.9394 14.4047 24.8368C14.8525 24.0766 14.4998 23.4524 13.6176 23.4436C13.5061 23.4415 13.4619 23.3631 13.5182 23.2677C13.5517 23.2178 13.5963 23.1765 13.6485 23.147C13.7007 23.1176 13.7591 23.1007 13.8191 23.0977C14.9212 23.111 15.3617 23.8907 14.8036 24.8403C14.7705 24.8907 14.7261 24.9323 14.6738 24.9619C14.6215 24.9914 14.5628 25.008 14.5027 25.0103L14.5041 25.0127ZM14.0224 22.7523C12.6975 22.7378 11.0779 23.6512 10.4073 24.7947C9.73669 25.9383 10.2676 26.8752 11.5906 26.8892C12.9136 26.9033 14.5351 25.9904 15.2081 24.8455C15.8811 23.7006 15.3468 22.7688 14.0262 22.7534" fill="white"/>
<path d="M13.8185 23.0996C13.7585 23.1026 13.7002 23.1194 13.648 23.1489C13.5958 23.1784 13.5512 23.2197 13.5177 23.2696C13.4613 23.365 13.5022 23.4373 13.6171 23.4455C14.4993 23.4543 14.8519 24.0785 14.4041 24.8387C14.3485 24.9353 14.3927 25.0136 14.5035 25.0146C14.5637 25.0123 14.6223 24.9957 14.6746 24.9661C14.7269 24.9366 14.7714 24.8949 14.8044 24.8446C15.3618 23.8938 14.9213 23.1141 13.8199 23.102" fill="black"/>
<path d="M27.2953 25.1484C27.1876 25.1473 27.146 25.0738 27.1973 24.9749C27.6444 24.2136 27.2875 23.5901 26.4082 23.5782C26.3004 23.577 26.2589 23.5035 26.3101 23.4046C26.3434 23.3552 26.3877 23.3143 26.4395 23.2851C26.4912 23.2559 26.5491 23.239 26.6086 23.236C27.7167 23.2459 28.1578 24.0268 27.5938 24.9798C27.5601 25.0302 27.5152 25.0718 27.4626 25.1016C27.4099 25.1313 27.351 25.1483 27.2905 25.1511L27.2953 25.1484ZM26.8036 22.8953C25.4794 22.882 23.864 23.7945 23.1921 24.9357C22.5201 26.0768 23.0474 27.0157 24.3747 27.029C25.702 27.0422 27.3173 26.1296 27.991 24.9859C28.6646 23.8422 28.1339 22.9084 26.8084 22.8926" fill="white"/>
<path d="M26.611 23.2346C26.5515 23.2377 26.4936 23.2545 26.4419 23.2837C26.3901 23.313 26.3458 23.3539 26.3125 23.4033C26.2562 23.4987 26.297 23.571 26.4106 23.5768C27.2922 23.5874 27.6492 24.2109 27.1997 24.9735C27.1433 25.069 27.1842 25.1413 27.2977 25.1471C27.3582 25.1442 27.4171 25.1273 27.4697 25.0975C27.5224 25.0678 27.5673 25.0261 27.6009 24.9758C28.1643 24.0216 27.7238 23.2418 26.6158 23.2319" fill="black"/>
<path d="M39.7678 19.7856C39.74 19.7317 39.7254 19.6721 39.7252 19.6116C39.7251 19.5511 39.7393 19.4916 39.7668 19.438C40.2146 18.6779 40.2249 17.4305 39.7837 16.6496C39.7564 16.5954 39.7422 16.5356 39.7422 16.4751C39.7422 16.4146 39.7565 16.355 39.7838 16.3013C39.8414 16.2052 39.9307 16.2072 39.9865 16.3061C40.5312 17.2701 40.5249 18.8396 39.9656 19.7899C39.9092 19.8853 39.8237 19.8844 39.7678 19.7856ZM40.1887 15.9613C39.5296 14.7948 38.4487 14.7743 37.7767 15.9155C37.1047 17.0566 37.0966 18.9323 37.7557 20.0989C38.4147 21.2654 39.4956 21.2859 40.1664 20.1454C40.8372 19.005 40.8477 17.1279 40.1887 15.9613Z" fill="white"/>
<path d="M39.9829 16.3081C39.9271 16.2093 39.8378 16.2073 39.7802 16.3034C39.7529 16.3571 39.7386 16.4166 39.7386 16.4771C39.7386 16.5376 39.7528 16.5974 39.7801 16.6516C40.2192 17.4289 40.211 18.6799 39.7632 19.44C39.7357 19.4936 39.7215 19.5531 39.7216 19.6136C39.7218 19.6741 39.7364 19.7338 39.7642 19.7876C39.8201 19.8864 39.9056 19.8874 39.962 19.7919C40.5254 18.8378 40.531 17.2782 39.9829 16.3081Z" fill="black"/>
<path d="M46.1357 31.057C46.1087 31.0033 46.0947 30.9441 46.0947 30.8841C46.0948 30.8241 46.1089 30.7651 46.136 30.7119C46.5838 29.9518 46.5941 28.7043 46.1516 27.921C46.1247 27.8673 46.111 27.808 46.1113 27.7481C46.1117 27.6882 46.1262 27.6294 46.1537 27.5764C46.2106 27.4791 46.2999 27.4811 46.3537 27.5763C46.9038 28.55 46.8948 30.1147 46.3348 31.0638C46.2791 31.1604 46.1908 31.1547 46.1357 31.057ZM46.5565 27.2328C45.8975 26.0662 44.8179 26.0482 44.1466 27.1905C43.4753 28.3329 43.4638 30.2026 44.1228 31.3691C44.7819 32.5357 45.8635 32.5573 46.5336 31.4157C47.2037 30.274 47.2176 28.403 46.5565 27.2328Z" fill="white"/>
<path d="M46.3501 27.5783C46.2963 27.4831 46.207 27.4811 46.1501 27.5784C46.1226 27.6314 46.1081 27.6902 46.1077 27.7501C46.1073 27.8101 46.1211 27.8693 46.148 27.9231C46.5871 28.7004 46.5802 29.9538 46.1324 30.7139C46.1053 30.7672 46.0912 30.8262 46.0911 30.8861C46.0911 30.9461 46.1051 31.0054 46.1321 31.0591C46.1872 31.1567 46.2755 31.1624 46.3312 31.0658C46.8946 30.1116 46.9002 28.5521 46.3501 27.5783Z" fill="black"/>
<path d="M33.2796 30.8149C33.2522 30.7602 33.2381 30.6999 33.2385 30.6389C33.2388 30.578 33.2535 30.518 33.2814 30.4641C33.7292 29.704 33.7359 28.4586 33.2954 27.6789C33.2682 27.624 33.2542 27.5636 33.2547 27.5024C33.2553 27.4413 33.2703 27.3813 33.2985 27.3274C33.3531 27.2346 33.4424 27.2366 33.4983 27.3354C34.0429 28.2995 34.0383 29.8664 33.4802 30.816C33.4239 30.9114 33.3354 30.9137 33.2796 30.8149ZM33.7002 26.9876C33.0412 25.821 31.9613 25.7968 31.29 26.9391C30.6187 28.0815 30.608 29.9555 31.2677 31.1232C31.9275 32.291 33.006 32.3128 33.679 31.1679C34.352 30.023 34.3606 28.1565 33.7002 26.9876Z" fill="white"/>
<path d="M33.4982 27.3354C33.4424 27.2366 33.3531 27.2346 33.2985 27.3274C33.2702 27.3814 33.2553 27.4413 33.2547 27.5025C33.2542 27.5636 33.2682 27.6241 33.2954 27.6789C33.7346 28.4562 33.7292 29.704 33.2814 30.4641C33.2535 30.5181 33.2388 30.578 33.2384 30.639C33.2381 30.6999 33.2522 30.7602 33.2796 30.8149C33.3354 30.9137 33.4239 30.9115 33.4802 30.816C34.0376 29.8652 34.0463 28.3055 33.4982 27.3354Z" fill="black"/>
<path d="M39.6474 42.0864C39.6209 42.0318 39.6074 41.972 39.6079 41.9115C39.6085 41.851 39.6231 41.7916 39.6506 41.738C40.0984 40.9779 40.1052 39.7325 39.6633 38.9504C39.6367 38.8957 39.6233 38.8356 39.624 38.775C39.6248 38.7143 39.6398 38.6548 39.6677 38.6013C39.7223 38.5084 39.8116 38.5104 39.8654 38.6056C40.4155 39.5794 40.4075 41.1403 39.8494 42.0899C39.7931 42.1853 39.7026 42.184 39.6474 42.0864ZM40.0694 38.2615C39.4104 37.0949 38.3325 37.0743 37.6606 38.2154C36.9886 39.3566 36.9772 41.2294 37.6363 42.3959C38.2953 43.5625 39.3752 43.5867 40.0482 42.4418C40.7212 41.2969 40.7305 39.4316 40.0694 38.2615Z" fill="white"/>
<path d="M39.8661 38.6068C39.8123 38.5116 39.723 38.5096 39.6684 38.6025C39.6405 38.6561 39.6255 38.7155 39.6247 38.7762C39.624 38.8368 39.6374 38.8969 39.664 38.9516C40.1031 39.7289 40.0991 40.9791 39.6513 41.7392C39.6238 41.7928 39.6092 41.8522 39.6086 41.9127C39.6081 41.9732 39.6216 42.0331 39.6481 42.0876C39.7033 42.1852 39.7938 42.1865 39.8501 42.0911C40.4075 41.1403 40.4162 39.5806 39.8661 38.6068Z" fill="black"/>
<path d="M20.2267 35.8475C20.2826 35.9463 20.2361 36.0202 20.1241 36.0199C19.2431 36.0105 18.8853 36.6371 19.3237 37.4132C19.3796 37.512 19.3319 37.5866 19.2211 37.5856C19.1615 37.5824 19.1033 37.5647 19.0517 37.5341C19.0001 37.5034 18.9566 37.4607 18.9248 37.4096C18.3802 36.4456 18.8239 35.6559 19.9253 35.668C19.986 35.6718 20.0449 35.6901 20.0973 35.7213C20.1498 35.7525 20.1941 35.7957 20.2267 35.8475ZM18.5253 37.4049C19.1843 38.5714 20.7914 39.5315 22.1156 39.5448C23.4398 39.5582 23.9808 38.623 23.3218 37.4565C22.6627 36.2899 21.0507 35.3295 19.7265 35.3161C18.4023 35.3027 17.8662 36.2383 18.5253 37.4049Z" fill="white"/>
<path d="M18.9248 37.4097C18.9566 37.4607 19.0001 37.5034 19.0517 37.5341C19.1033 37.5647 19.1615 37.5824 19.2211 37.5856C19.3319 37.5866 19.3796 37.512 19.3237 37.4132C18.8853 36.6371 19.2431 36.0105 20.1241 36.0199C20.2361 36.0202 20.2826 35.9463 20.2267 35.8475C20.1941 35.7957 20.1497 35.7525 20.0973 35.7213C20.0449 35.6901 19.986 35.6718 19.9253 35.668C18.8232 35.6547 18.3768 36.4395 18.9248 37.4097Z" fill="black"/>
</g>
</svg>
