<svg width="217" height="30" viewBox="0 0 217 30" fill="none" xmlns="http://www.w3.org/2000/svg">
<defs>
<linearGradient id="paint0_linear_5_1597" x1="-2" y1="18.9767" x2="196.138" y2="79.9514" gradientUnits="userSpaceOnUse">
<stop stop-color="white"/>
<stop offset="1" stop-color="#7B7B7B"/>
</linearGradient>
</defs>
<path d="M10.6636 29.3876C7.5373 29.3876 5.01821 28.4703 3.10628 26.6359C1.22019 24.7757 0.277148 22.0111 0.277148 18.3423C0.277148 16.1203 0.600108 13.9759 1.24603 11.9089C1.91779 9.81614 2.91251 7.94297 4.23019 6.28941C5.5737 4.63585 7.26602 3.33109 9.30713 2.37513C11.3482 1.39333 13.7381 0.902427 16.4769 0.902427C18.0787 0.902427 19.616 1.07037 21.0887 1.40625C22.5614 1.74212 23.8533 2.24594 24.9643 2.9177L22.1739 8.76975C21.3729 8.30468 20.4816 7.90421 19.4998 7.56833C18.5438 7.23245 17.5103 7.06451 16.3993 7.06451C14.7716 7.06451 13.4023 7.43915 12.2913 8.18842C11.2061 8.93769 10.3277 9.89365 9.65592 11.0563C8.98417 12.1931 8.49327 13.4075 8.18322 14.6993C7.89902 15.9653 7.75692 17.1409 7.75692 18.226C7.75692 19.9571 8.09279 21.2231 8.76455 22.0241C9.46215 22.825 10.4439 23.2255 11.71 23.2255C12.2267 23.2255 12.653 23.2125 12.9889 23.1867C13.3248 23.135 13.7381 23.0575 14.229 22.9542L15.1979 18.5748H10.8573L12.1363 12.8003H23.6853L20.5074 27.8373C19.1897 28.2507 17.7299 28.6124 16.1281 28.9225C14.552 29.2325 12.7305 29.3876 10.6636 29.3876ZM23.0746 29L37.1428 1.32873H46.6766L49.0019 29H41.7934L41.5997 23.8068H33.1122L30.7482 29H23.0746ZM35.8251 17.916H41.3671L41.0958 9.97116C41.07 9.35108 41.0442 8.74391 41.0183 8.14966C41.0183 7.52958 41.0312 6.94825 41.0571 6.40568H40.9408C40.5533 7.56833 40.1011 8.70515 39.5844 9.81614L35.8251 17.916ZM52.1714 29L58.0234 1.32873H67.8285V20.9777H67.9835L77.0135 1.32873H86.9736L81.044 29H74.4169L76.6259 18.6136C77.0393 16.6758 77.401 15.0998 77.7111 13.8854C78.0211 12.6453 78.2795 11.6506 78.4862 10.9013C78.7187 10.152 78.8737 9.57069 78.9513 9.1573H78.7962L69.6887 29H62.674V9.1573H62.519C62.209 11.1209 61.9248 12.9166 61.6664 14.5443C61.408 16.172 61.1497 17.6059 60.8913 18.8461L58.7598 29H52.1714ZM87.4069 29L93.2589 1.32873H109.691L108.451 7.3358H99.421L98.5296 11.6764H106.94L105.583 17.6835H97.1732L96.0881 22.9154H105.118L103.839 29H87.4069ZM131.212 29.3876C127.698 29.3876 125.049 28.4187 123.267 26.4809C121.484 24.5173 120.593 21.9336 120.593 18.7299C120.593 16.5854 120.89 14.4668 121.484 12.374C122.104 10.2554 123.021 8.33052 124.236 6.59945C125.476 4.86838 127.039 3.48611 128.925 2.45264C130.811 1.41916 133.033 0.902427 135.591 0.902427C139.001 0.902427 141.585 1.87131 143.342 3.80907C145.099 5.74684 145.977 8.33052 145.977 11.5601C145.977 13.7046 145.68 15.8361 145.086 17.9547C144.518 20.0475 143.626 21.9595 142.412 23.6905C141.197 25.4216 139.66 26.8039 137.8 27.8373C135.966 28.8708 133.769 29.3876 131.212 29.3876ZM131.87 23.2642C133.111 23.2642 134.234 22.7346 135.242 21.6753C136.25 20.6159 137.038 19.2078 137.606 17.4509C138.2 15.694 138.498 13.7563 138.498 11.6376C138.498 10.1908 138.187 9.06687 137.567 8.26593C136.973 7.43915 136.108 7.02576 134.971 7.02576C133.937 7.02576 132.994 7.37456 132.142 8.07215C131.289 8.74391 130.553 9.6482 129.933 10.785C129.338 11.896 128.873 13.1491 128.537 14.5443C128.227 15.9136 128.072 17.2959 128.072 18.6911C128.072 21.7398 129.338 23.2642 131.87 23.2642ZM151.618 29L149.641 1.32873H156.888L157.353 15.2806C157.379 15.9524 157.379 16.7404 157.353 17.6447C157.353 18.5232 157.328 19.3887 157.276 20.2413C157.25 21.0939 157.186 21.7786 157.082 22.2953H157.237C157.47 21.2877 157.78 20.2284 158.167 19.1174C158.555 17.9806 158.878 17.128 159.136 16.5596L165.763 1.32873H173.592L159.873 29H151.618ZM171.351 29L177.203 1.32873H193.636L192.396 7.3358H183.366L182.474 11.6764H190.884L189.528 17.6835H181.118L180.033 22.9154H189.063L187.784 29H171.351ZM193.113 29L198.965 1.32873H206.29C209.468 1.32873 211.897 1.96174 213.576 3.22774C215.281 4.49375 216.134 6.39276 216.134 8.92477C216.134 10.6042 215.85 12.0123 215.281 13.1491C214.739 14.2859 214.054 15.1902 213.227 15.862C212.401 16.5337 211.587 17.0505 210.786 17.4122L215.785 29H207.724L204.042 18.9236H202.647L200.516 29H193.113ZM204.817 13.3041C205.799 13.3041 206.691 13.007 207.492 12.4127C208.318 11.8185 208.732 10.8109 208.732 9.38983C208.732 8.71807 208.538 8.14966 208.15 7.6846C207.789 7.21954 207.13 6.987 206.174 6.987H205.166L203.849 13.3041H204.817Z" fill="url(#paint0_linear_5_1597)"/>
</svg>
