<svg width="98" height="39" viewBox="0 0 98 39" fill="none" xmlns="http://www.w3.org/2000/svg">
<path d="M9.4023 0H98L88.5977 39H0L9.4023 0Z" fill="white"/>
<path d="M37.9662 26.18C36.3342 26.18 35.1042 25.73 34.2762 24.83C33.4482 23.918 33.0342 22.718 33.0342 21.23C33.0342 20.234 33.1722 19.25 33.4482 18.278C33.7362 17.294 34.1622 16.4 34.7262 15.596C35.3022 14.792 36.0282 14.15 36.9042 13.67C37.7802 13.19 38.8122 12.95 40.0002 12.95C41.5842 12.95 42.7842 13.4 43.6002 14.3C44.4162 15.2 44.8242 16.4 44.8242 17.9C44.8242 18.896 44.6862 19.886 44.4102 20.87C44.1462 21.842 43.7322 22.73 43.1682 23.534C42.6042 24.338 41.8902 24.98 41.0262 25.46C40.1742 25.94 39.1542 26.18 37.9662 26.18ZM38.2722 23.336C38.8482 23.336 39.3702 23.09 39.8382 22.598C40.3062 22.106 40.6722 21.452 40.9362 20.636C41.2122 19.82 41.3502 18.92 41.3502 17.936C41.3502 17.264 41.2062 16.742 40.9182 16.37C40.6422 15.986 40.2402 15.794 39.7122 15.794C39.2322 15.794 38.7942 15.956 38.3982 16.28C38.0022 16.592 37.6602 17.012 37.3722 17.54C37.0962 18.056 36.8802 18.638 36.7242 19.286C36.5802 19.922 36.5082 20.564 36.5082 21.212C36.5082 22.628 37.0962 23.336 38.2722 23.336ZM45.6757 26L48.3937 13.148H55.9717L55.3777 15.938H51.2377L50.7337 18.386H54.5677L53.9557 21.194H50.1037L49.1137 26H45.6757ZM55.9237 26L58.6417 13.148H66.2197L65.6257 15.938H61.4857L60.9817 18.386H64.8157L64.2037 21.194H60.3517L59.3617 26H55.9237Z" fill="#96130E"/>
</svg>
