<svg width="34" height="15" viewBox="0 0 34 15" fill="none" xmlns="http://www.w3.org/2000/svg">
<path d="M4.96621 14.18C3.33421 14.18 2.10421 13.73 1.27621 12.83C0.448211 11.918 0.034211 10.718 0.034211 9.23C0.034211 8.234 0.172211 7.25 0.448211 6.278C0.736211 5.294 1.16221 4.4 1.72621 3.596C2.30221 2.792 3.02821 2.15 3.90421 1.67C4.78021 1.19 5.81221 0.95 7.00021 0.95C8.58421 0.95 9.78421 1.4 10.6002 2.3C11.4162 3.2 11.8242 4.4 11.8242 5.9C11.8242 6.896 11.6862 7.886 11.4102 8.87C11.1462 9.842 10.7322 10.73 10.1682 11.534C9.60421 12.338 8.89021 12.98 8.02621 13.46C7.17421 13.94 6.15421 14.18 4.96621 14.18ZM5.27221 11.336C5.84821 11.336 6.37021 11.09 6.83821 10.598C7.30621 10.106 7.67221 9.452 7.93621 8.636C8.21221 7.82 8.35021 6.92 8.35021 5.936C8.35021 5.264 8.20621 4.742 7.91821 4.37C7.64221 3.986 7.24021 3.794 6.71221 3.794C6.23221 3.794 5.79421 3.956 5.39821 4.28C5.00221 4.592 4.66021 5.012 4.37221 5.54C4.09621 6.056 3.88021 6.638 3.72421 7.286C3.58021 7.922 3.50821 8.564 3.50821 9.212C3.50821 10.628 4.09621 11.336 5.27221 11.336ZM12.6757 14L15.3937 1.148H22.9717L22.3777 3.938H18.2377L17.7337 6.386H21.5677L20.9557 9.194H17.1037L16.1137 14H12.6757ZM22.9237 14L25.6417 1.148H33.2197L32.6257 3.938H28.4857L27.9817 6.386H31.8157L31.2037 9.194H27.3517L26.3617 14H22.9237Z" fill="white"/>
</svg>
