<svg width="98" height="39" viewBox="0 0 98 39" fill="none" xmlns="http://www.w3.org/2000/svg">
<path d="M9.4023 0H98L88.5977 39H0L9.4023 0Z" fill="white"/>
<path d="M41.1039 26.18C39.4719 26.18 38.2419 25.73 37.4139 24.83C36.5859 23.918 36.1719 22.718 36.1719 21.23C36.1719 20.234 36.3099 19.25 36.5859 18.278C36.8739 17.294 37.2999 16.4 37.8639 15.596C38.4399 14.792 39.1659 14.15 40.0419 13.67C40.9179 13.19 41.9499 12.95 43.1379 12.95C44.7219 12.95 45.9219 13.4 46.7379 14.3C47.5539 15.2 47.9619 16.4 47.9619 17.9C47.9619 18.896 47.8239 19.886 47.5479 20.87C47.2839 21.842 46.8699 22.73 46.3059 23.534C45.7419 24.338 45.0279 24.98 44.1639 25.46C43.3119 25.94 42.2919 26.18 41.1039 26.18ZM41.4099 23.336C41.9859 23.336 42.5079 23.09 42.9759 22.598C43.4439 22.106 43.8099 21.452 44.0739 20.636C44.3499 19.82 44.4879 18.92 44.4879 17.936C44.4879 17.264 44.3439 16.742 44.0559 16.37C43.7799 15.986 43.3779 15.794 42.8499 15.794C42.3699 15.794 41.9319 15.956 41.5359 16.28C41.1399 16.592 40.7979 17.012 40.5099 17.54C40.2339 18.056 40.0179 18.638 39.8619 19.286C39.7179 19.922 39.6459 20.564 39.6459 21.212C39.6459 22.628 40.2339 23.336 41.4099 23.336ZM48.8134 26L51.5314 13.148H55.5274L58.0474 21.788H58.1194C58.1554 21.524 58.1974 21.194 58.2454 20.798C58.3054 20.402 58.3654 20 58.4254 19.592C58.4974 19.184 58.5634 18.83 58.6234 18.53L59.7754 13.148H62.8354L60.1174 26H56.1214L53.5834 16.964H53.5114C53.4994 17.084 53.4754 17.288 53.4394 17.576C53.4154 17.852 53.3794 18.176 53.3314 18.548C53.2954 18.908 53.2474 19.274 53.1874 19.646C53.1274 20.018 53.0674 20.348 53.0074 20.636L51.8734 26H48.8134Z" fill="#96130E"/>
</svg>
