<svg width="27" height="15" viewBox="0 0 27 15" fill="none" xmlns="http://www.w3.org/2000/svg">
<path d="M5.10391 14.18C3.47191 14.18 2.24191 13.73 1.41391 12.83C0.585906 11.918 0.171906 10.718 0.171906 9.23C0.171906 8.234 0.309906 7.25 0.585906 6.278C0.873906 5.294 1.29991 4.4 1.86391 3.596C2.43991 2.792 3.16591 2.15 4.04191 1.67C4.91791 1.19 5.94991 0.95 7.13791 0.95C8.72191 0.95 9.92191 1.4 10.7379 2.3C11.5539 3.2 11.9619 4.4 11.9619 5.9C11.9619 6.896 11.8239 7.886 11.5479 8.87C11.2839 9.842 10.8699 10.73 10.3059 11.534C9.74191 12.338 9.02791 12.98 8.16391 13.46C7.31191 13.94 6.29191 14.18 5.10391 14.18ZM5.40991 11.336C5.98591 11.336 6.50791 11.09 6.97591 10.598C7.44391 10.106 7.80991 9.452 8.07391 8.636C8.34991 7.82 8.48791 6.92 8.48791 5.936C8.48791 5.264 8.34391 4.742 8.05591 4.37C7.77991 3.986 7.37791 3.794 6.84991 3.794C6.36991 3.794 5.93191 3.956 5.53591 4.28C5.13991 4.592 4.79791 5.012 4.50991 5.54C4.23391 6.056 4.01791 6.638 3.86191 7.286C3.71791 7.922 3.64591 8.564 3.64591 9.212C3.64591 10.628 4.23391 11.336 5.40991 11.336ZM12.8134 14L15.5314 1.148H19.5274L22.0474 9.788H22.1194C22.1554 9.524 22.1974 9.194 22.2454 8.798C22.3054 8.402 22.3654 8 22.4254 7.592C22.4974 7.184 22.5634 6.83 22.6234 6.53L23.7754 1.148H26.8354L24.1174 14H20.1214L17.5834 4.964H17.5114C17.4994 5.084 17.4754 5.288 17.4394 5.576C17.4154 5.852 17.3794 6.176 17.3314 6.548C17.2954 6.908 17.2474 7.274 17.1874 7.646C17.1274 8.018 17.0674 8.348 17.0074 8.636L15.8734 14H12.8134Z" fill="white"/>
</svg>
