<svg width="63" height="47" viewBox="0 0 63 47" fill="none" xmlns="http://www.w3.org/2000/svg">
<path d="M8.28947 0H63L54.7105 47H0L8.28947 0Z" fill="#2D3034"/>
<defs>
<linearGradient id="paint0_linear_4_300" x1="19" y1="26.0833" x2="43.5132" y2="27.9007" gradientUnits="userSpaceOnUse">
<stop stop-color="white"/>
<stop offset="1" stop-color="#7B7B7B"/>
</linearGradient>
</defs>
<path fill-rule="evenodd" clip-rule="evenodd" d="M33.4841 11H29.119L28.4314 15.126C28.1819 15.2196 27.9379 15.3244 27.6999 15.4396L24.0642 13.2582L20.9776 16.3448L23.4797 19.8477C23.394 20.0464 23.3155 20.2488 23.2445 20.4547L19 21.5159V25.881L23.4218 26.6179C23.4787 26.7565 23.5391 26.8932 23.6029 27.0281L21.2582 30.9359L24.3448 34.0224L28.0958 31.3431C28.1834 31.3803 28.2717 31.416 28.3608 31.4503L29.119 36H33.4841L34.6197 31.4578C34.7153 31.4212 34.8102 31.383 34.9042 31.3431L38.6552 34.0224L41.7418 30.9358L39.3972 27.0281C39.4609 26.8932 39.5213 26.7565 39.5782 26.6179L44 25.881V21.5159L39.7555 20.4547C39.6845 20.2488 39.606 20.0464 39.5203 19.8477L42.0224 16.3448L38.9358 13.2582L35.3001 15.4396C35.0435 15.3154 34.78 15.2034 34.5102 15.1043L33.4841 11ZM31.5 26.873C33.4724 26.873 35.0714 25.274 35.0714 23.3016C35.0714 21.3291 33.4724 19.7302 31.5 19.7302C29.5276 19.7302 27.9286 21.3291 27.9286 23.3016C27.9286 25.274 29.5276 26.873 31.5 26.873Z" fill="url(#paint0_linear_4_300)"/>
</svg>
