<svg width="205" height="116" viewBox="0 0 205 116" fill="none" xmlns="http://www.w3.org/2000/svg">
<defs>
<linearGradient id="paint0_linear_4_301" x1="-17" y1="71.5" x2="213.5" y2="98.5" gradientUnits="userSpaceOnUse">
<stop stop-color="white"/>
<stop offset="1" stop-color="#7B7B7B"/>
</linearGradient>
</defs>
<path d="M10.3482 40.55C8.40491 40.55 6.55324 40.33 4.79324 39.89C3.03324 39.4133 1.51158 38.7717 0.228242 37.965V28.56C1.65824 29.44 3.34491 30.2283 5.28824 30.925C7.23158 31.585 9.02824 31.915 10.6782 31.915C13.3549 31.915 14.6932 30.8517 14.6932 28.725C14.6932 27.735 14.2532 26.8367 13.3732 26.03C12.5299 25.2233 11.5032 24.325 10.2932 23.335C8.49658 21.8317 7.04824 20.2367 5.94824 18.55C4.84824 16.8267 4.29824 14.7733 4.29824 12.39C4.29824 10.0067 4.88491 7.89833 6.05824 6.065C7.23158 4.23166 8.86324 2.80166 10.9532 1.775C13.0432 0.711664 15.4632 0.179998 18.2132 0.179998C20.3399 0.179998 22.3932 0.436665 24.3732 0.949998C26.3532 1.42666 28.1499 2.12333 29.7632 3.04L26.1332 11.015C24.8866 10.3917 23.5666 9.84166 22.1732 9.365C20.8166 8.88833 19.5332 8.65 18.3232 8.65C16.8566 8.65 15.8849 8.99833 15.4082 9.695C14.9682 10.355 14.7482 10.9967 14.7482 11.62C14.7482 12.4267 15.0416 13.2333 15.6282 14.04C16.2149 14.81 17.3699 15.8367 19.0932 17.12C21.2566 18.7333 22.8332 20.4017 23.8232 22.125C24.8132 23.8117 25.3082 25.755 25.3082 27.955C25.3082 31.8417 24.0066 34.9217 21.4032 37.195C18.8366 39.4317 15.1516 40.55 10.3482 40.55ZM45.5951 40.55C42.8817 40.55 40.5351 40.055 38.5551 39.065C36.6117 38.075 35.1267 36.7367 34.1001 35.05C33.0734 33.3267 32.5601 31.365 32.5601 29.165C32.5601 28.615 32.5784 28.0283 32.6151 27.405C32.6884 26.745 32.7801 26.1217 32.8901 25.535L38.2251 0.729997H48.7301L43.5051 25.26C43.3951 25.7733 43.3034 26.305 43.2301 26.855C43.1567 27.3683 43.1201 27.8633 43.1201 28.34C43.1201 29.4033 43.4134 30.2467 44.0001 30.87C44.5867 31.4567 45.4484 31.75 46.5851 31.75C48.1617 31.75 49.4084 31.2183 50.3251 30.155C51.2417 29.0917 51.9751 27.2767 52.5251 24.71L57.6401 0.729997H68.1451L62.8101 25.755C62.1501 28.945 61.1417 31.64 59.7851 33.84C58.4284 36.04 56.5951 37.7083 54.2851 38.845C52.0117 39.9817 49.1151 40.55 45.5951 40.55ZM68.6495 40L76.9545 0.729997H90.8695V28.615H91.0895L103.905 0.729997H118.04L109.625 40H100.22L103.355 25.26C103.941 22.51 104.455 20.2733 104.895 18.55C105.335 16.79 105.701 15.3783 105.995 14.315C106.325 13.2517 106.545 12.4267 106.655 11.84H106.435L93.5095 40H83.5545V11.84H83.3345C82.8945 14.6267 82.4912 17.175 82.1245 19.485C81.7579 21.795 81.3912 23.83 81.0245 25.59L77.9995 40H68.6495ZM149.937 40.55C144.95 40.55 141.192 39.175 138.662 36.425C136.132 33.6383 134.867 29.9717 134.867 25.425C134.867 22.3817 135.288 19.375 136.132 16.405C137.012 13.3983 138.313 10.6667 140.037 8.21C141.797 5.75333 144.015 3.79166 146.692 2.325C149.368 0.858331 152.522 0.124999 156.152 0.124999C160.992 0.124999 164.658 1.5 167.152 4.25C169.645 7 170.892 10.6667 170.892 15.25C170.892 18.2933 170.47 21.3183 169.627 24.325C168.82 27.295 167.555 30.0083 165.832 32.465C164.108 34.9217 161.927 36.8833 159.287 38.35C156.683 39.8167 153.567 40.55 149.937 40.55ZM150.872 31.86C152.632 31.86 154.227 31.1083 155.657 29.605C157.087 28.1017 158.205 26.1033 159.012 23.61C159.855 21.1167 160.277 18.3667 160.277 15.36C160.277 13.3067 159.837 11.7117 158.957 10.575C158.113 9.40167 156.885 8.815 155.272 8.815C153.805 8.815 152.467 9.31 151.257 10.3C150.047 11.2533 149.002 12.5367 148.122 14.15C147.278 15.7267 146.618 17.505 146.142 19.485C145.702 21.4283 145.482 23.39 145.482 25.37C145.482 29.6967 147.278 31.86 150.872 31.86ZM173.493 40L181.798 0.729997H204.953L203.138 9.255H190.488L188.948 16.735H200.663L198.793 25.315H187.023L183.998 40H173.493ZM39.1085 115L47.4135 75.73H58.5785C63.3819 75.73 67.1769 76.995 69.9635 79.525C72.7502 82.055 74.1435 85.74 74.1435 90.58C74.1435 95.64 73.2452 100.003 71.4485 103.67C69.6885 107.3 67.1402 110.105 63.8035 112.085C60.4669 114.028 56.4518 115 51.7585 115H39.1085ZM53.3535 106.31C55.3702 106.31 57.1302 105.687 58.6335 104.44C60.1735 103.157 61.3652 101.378 62.2085 99.105C63.0885 96.795 63.5285 94.1367 63.5285 91.13C63.5285 88.8933 63.0335 87.2067 62.0435 86.07C61.0902 84.8967 59.7518 84.31 58.0285 84.31H56.1035L51.4835 106.31H53.3535ZM73.8462 115L75.1112 109.005L80.2812 106.86L85.1212 84.09L80.8312 81.78L82.0962 75.73H102.281L101.016 81.78L95.6262 84.09L90.7862 106.86L95.1312 109.005L93.8662 115H73.8462ZM116.569 115.55C113.306 115.55 110.592 114.908 108.429 113.625C106.266 112.342 104.652 110.563 103.589 108.29C102.562 105.98 102.049 103.303 102.049 100.26C102.049 97.9133 102.306 95.5483 102.819 93.165C103.332 90.7817 104.102 88.5083 105.129 86.345C106.192 84.1817 107.549 82.2567 109.199 80.57C110.849 78.8833 112.811 77.5633 115.084 76.61C117.357 75.62 119.961 75.125 122.894 75.125C125.497 75.125 127.844 75.4367 129.934 76.06C132.024 76.6833 133.986 77.545 135.819 78.645L131.859 86.84C130.172 85.85 128.632 85.1167 127.239 84.64C125.846 84.1267 124.397 83.87 122.894 83.87C121.317 83.87 119.887 84.31 118.604 85.19C117.357 86.07 116.276 87.2617 115.359 88.765C114.479 90.2683 113.801 91.9733 113.324 93.88C112.884 95.75 112.664 97.6933 112.664 99.71C112.664 102.093 113.159 103.89 114.149 105.1C115.176 106.273 116.624 106.86 118.494 106.86C120.107 106.86 121.666 106.658 123.169 106.255C124.709 105.852 126.451 105.247 128.394 104.44V113.13C126.487 113.973 124.544 114.597 122.564 115C120.621 115.367 118.622 115.55 116.569 115.55ZM134.768 115L143.073 75.73H166.393L164.633 84.255H151.818L150.553 90.415H162.488L160.563 98.94H148.628L147.088 106.365H159.903L158.088 115H134.768Z" fill="url(#paint0_linear_4_301)"/>
</svg>
