<svg width="118" height="17" viewBox="0 0 118 17" fill="none" xmlns="http://www.w3.org/2000/svg">
<defs>
<linearGradient id="paint0_linear_4_489" x1="-7.63401e-07" y1="10.1" x2="106.453" y2="40.8793" gradientUnits="userSpaceOnUse">
<stop stop-color="white"/>
<stop offset="1" stop-color="#7B7B7B"/>
</linearGradient>
</defs>
<path d="M0.564891 16L3.88689 0.291999H8.08889L5.49289 12.568H10.6189L9.89289 16H0.564891ZM10.5165 16L18.5025 0.291999H23.9145L25.2345 16H21.1425L21.0325 13.052H16.2145L14.8725 16H10.5165ZM17.7545 9.708H20.9005L20.7465 5.198C20.7318 4.846 20.7171 4.50133 20.7025 4.164C20.7025 3.812 20.7098 3.482 20.7245 3.174H20.6585C20.4385 3.834 20.1818 4.47933 19.8885 5.11L17.7545 9.708ZM27.0336 16L30.3556 0.291999H35.2396L38.3196 10.852H38.4076C38.4516 10.5293 38.503 10.126 38.5616 9.642C38.635 9.158 38.7083 8.66667 38.7816 8.168C38.8696 7.66933 38.9503 7.23667 39.0236 6.87L40.4316 0.291999H44.1716L40.8496 16H35.9656L32.8636 4.956H32.7756C32.761 5.10267 32.7316 5.352 32.6876 5.704C32.6583 6.04133 32.6143 6.43733 32.5556 6.892C32.5116 7.332 32.453 7.77933 32.3796 8.234C32.3063 8.68867 32.233 9.092 32.1596 9.444L30.7736 16H27.0336ZM51.0805 16.22C49.3058 16.22 47.8758 15.6993 46.7905 14.658C45.7198 13.602 45.1845 12.0327 45.1845 9.95C45.1845 8.68867 45.3678 7.47133 45.7345 6.298C46.1158 5.11 46.6805 4.04667 47.4285 3.108C48.1912 2.16933 49.1518 1.42867 50.3105 0.885999C51.4692 0.328666 52.8258 0.0499995 54.3805 0.0499995C55.2898 0.0499995 56.1625 0.145333 56.9985 0.336C57.8345 0.526666 58.5678 0.812666 59.1985 1.194L57.6145 4.516C57.1598 4.252 56.6538 4.02467 56.0965 3.834C55.5538 3.64333 54.9672 3.548 54.3365 3.548C53.4125 3.548 52.6352 3.76067 52.0045 4.186C51.3885 4.61133 50.8898 5.154 50.5085 5.814C50.1272 6.45933 49.8485 7.14867 49.6725 7.882C49.5112 8.60067 49.4305 9.268 49.4305 9.884C49.4305 10.8667 49.6212 11.5853 50.0025 12.04C50.3985 12.4947 50.9558 12.722 51.6745 12.722C51.9678 12.722 52.2098 12.7147 52.4005 12.7C52.5912 12.6707 52.8258 12.6267 53.1045 12.568L53.6545 10.082H51.1905L51.9165 6.804H58.4725L56.6685 15.34C55.9205 15.5747 55.0918 15.78 54.1825 15.956C53.2878 16.132 52.2538 16.22 51.0805 16.22ZM65.9798 16.22C64.8945 16.22 63.9558 16.022 63.1638 15.626C62.3865 15.23 61.7925 14.6947 61.3818 14.02C60.9712 13.3307 60.7658 12.546 60.7658 11.666C60.7658 11.446 60.7732 11.2113 60.7878 10.962C60.8172 10.698 60.8538 10.4487 60.8978 10.214L63.0318 0.291999H67.2338L65.1438 10.104C65.0998 10.3093 65.0632 10.522 65.0338 10.742C65.0045 10.9473 64.9898 11.1453 64.9898 11.336C64.9898 11.7613 65.1072 12.0987 65.3418 12.348C65.5765 12.5827 65.9212 12.7 66.3758 12.7C67.0065 12.7 67.5052 12.4873 67.8718 12.062C68.2385 11.6367 68.5318 10.9107 68.7518 9.884L70.7978 0.291999H74.9998L72.8658 10.302C72.6018 11.578 72.1985 12.656 71.6558 13.536C71.1132 14.416 70.3798 15.0833 69.4558 15.538C68.5465 15.9927 67.3878 16.22 65.9798 16.22ZM73.3368 16L81.3228 0.291999H86.7348L88.0548 16H83.9628L83.8528 13.052H79.0348L77.6928 16H73.3368ZM80.5748 9.708H83.7208L83.5668 5.198C83.5521 4.846 83.5374 4.50133 83.5228 4.164C83.5228 3.812 83.5301 3.482 83.5448 3.174H83.4788C83.2588 3.834 83.0021 4.47933 82.7088 5.11L80.5748 9.708ZM96.0903 16.22C94.3156 16.22 92.8856 15.6993 91.8003 14.658C90.7296 13.602 90.1943 12.0327 90.1943 9.95C90.1943 8.68867 90.3776 7.47133 90.7443 6.298C91.1256 5.11 91.6903 4.04667 92.4383 3.108C93.2009 2.16933 94.1616 1.42867 95.3203 0.885999C96.4789 0.328666 97.8356 0.0499995 99.3903 0.0499995C100.3 0.0499995 101.172 0.145333 102.008 0.336C102.844 0.526666 103.578 0.812666 104.208 1.194L102.624 4.516C102.17 4.252 101.664 4.02467 101.106 3.834C100.564 3.64333 99.9769 3.548 99.3463 3.548C98.4223 3.548 97.6449 3.76067 97.0143 4.186C96.3983 4.61133 95.8996 5.154 95.5183 5.814C95.1369 6.45933 94.8583 7.14867 94.6823 7.882C94.5209 8.60067 94.4403 9.268 94.4403 9.884C94.4403 10.8667 94.6309 11.5853 95.0123 12.04C95.4083 12.4947 95.9656 12.722 96.6843 12.722C96.9776 12.722 97.2196 12.7147 97.4103 12.7C97.6009 12.6707 97.8356 12.6267 98.1143 12.568L98.6643 10.082H96.2003L96.9263 6.804H103.482L101.678 15.34C100.93 15.5747 100.102 15.78 99.1923 15.956C98.2976 16.132 97.2636 16.22 96.0903 16.22ZM104.786 16L108.108 0.291999H117.436L116.732 3.702H111.606L111.1 6.166H115.874L115.104 9.576H110.33L109.714 12.546H114.84L114.114 16H104.786Z" fill="url(#paint0_linear_4_489)"/>
</svg>
