<svg width="22" height="21" viewBox="0 0 22 21" fill="none" xmlns="http://www.w3.org/2000/svg">
<defs>
<linearGradient id="paint0_linear_5_2368" x1="-1.43545e-07" y1="13.1" x2="21.6263" y2="14.2758" gradientUnits="userSpaceOnUse">
<stop stop-color="white"/>
<stop offset="1" stop-color="#7B7B7B"/>
</linearGradient>
</defs>
<path d="M6.974 4.018C6.226 3.072 4.62 1.664 3.432 0.696L1.76 2.258C2.926 3.336 4.488 4.876 5.17 5.866L6.974 4.018ZM17.248 15.128V17.922H11.044V15.128H17.248ZM8.558 16.624C8.36 16.096 8.118 15.26 8.03 14.666L5.874 16.118V7.098H0.814V9.606H3.432V16.338C3.432 17.306 2.86 18.032 2.42 18.362C2.86 18.89 3.52 20.012 3.74 20.628C4.114 20.144 4.796 19.594 8.558 16.976V20.914H11.044V20.188H17.248V20.848H19.866V12.884H8.558V16.624ZM16.588 7.252C16.544 7.912 16.478 8.594 16.412 9.254H13.156C13.31 8.616 13.464 7.956 13.618 7.252H16.588ZM18.898 9.254C19.03 7.934 19.162 6.46 19.206 5.052L17.38 4.942L16.962 5.03H14.058C14.19 4.458 14.3 3.908 14.388 3.358H20.526V1.07H7.722V3.358H11.77C11.66 3.908 11.55 4.458 11.44 5.03H8.47V7.252H10.978C10.824 7.956 10.648 8.616 10.494 9.254H6.974V11.608H21.252V9.254H18.898Z" fill="url(#paint0_linear_5_2368)"/>
</svg>
