<svg width="67" height="17" viewBox="0 0 67 17" fill="none" xmlns="http://www.w3.org/2000/svg">
<defs>
<linearGradient id="paint0_linear_5_1914" x1="2" y1="10.1" x2="62.643" y2="19.5414" gradientUnits="userSpaceOnUse">
<stop stop-color="white"/>
<stop offset="1" stop-color="#7B7B7B"/>
</linearGradient>
</defs>
<path d="M6.03807 8.96C5.59807 8.57867 5.23874 8.13133 4.96007 7.618C4.69607 7.10467 4.56407 6.43 4.56407 5.594C4.56407 4.55267 4.79874 3.636 5.26807 2.844C5.75207 2.03733 6.45607 1.414 7.38007 0.973999C8.31874 0.519332 9.46274 0.291999 10.8121 0.291999H16.5321L13.1881 16H8.98607L10.2181 10.28H9.47007L5.64207 16H0.62607L6.03807 8.96ZM10.2181 7.09H10.8781L11.6481 3.504H10.6581C10.0714 3.504 9.6094 3.702 9.27207 4.098C8.93474 4.494 8.76607 4.97067 8.76607 5.528C8.76607 6.07067 8.9054 6.46667 9.18407 6.716C9.46274 6.96533 9.8074 7.09 10.2181 7.09ZM21.6452 16.22C20.6038 16.22 19.6285 16.1467 18.7192 16C17.8245 15.8533 17.1425 15.6407 16.6732 15.362V11.864C17.2745 12.1867 17.9712 12.436 18.7632 12.612C19.5698 12.788 20.3472 12.876 21.0952 12.876C21.6525 12.876 22.1585 12.832 22.6132 12.744C23.0678 12.6413 23.4345 12.458 23.7132 12.194C23.9918 11.9153 24.1312 11.5047 24.1312 10.962C24.1312 10.3607 23.8745 9.96467 23.3612 9.774C22.8478 9.56867 22.2098 9.466 21.4472 9.466H20.1492L20.8752 6.122H22.2832C23.3832 6.122 24.1532 5.99 24.5932 5.726C25.0332 5.462 25.2532 5.088 25.2532 4.604C25.2532 4.26667 25.1212 3.988 24.8572 3.768C24.6078 3.53333 24.1825 3.416 23.5812 3.416C22.9652 3.416 22.3638 3.53333 21.7772 3.768C21.2052 4.00267 20.6185 4.33267 20.0172 4.758L18.4992 1.788C19.3205 1.27467 20.2152 0.863999 21.1832 0.556C22.1512 0.233333 23.3025 0.0719992 24.6372 0.0719992C26.2505 0.0719992 27.4825 0.431333 28.3332 1.15C29.1985 1.86867 29.6312 2.76333 29.6312 3.834C29.6312 4.99267 29.2572 5.902 28.5092 6.562C27.7612 7.222 26.7858 7.60333 25.5832 7.706V7.794C26.4045 7.98467 27.0718 8.35867 27.5852 8.916C28.1132 9.47333 28.3772 10.2287 28.3772 11.182C28.3772 12.722 27.8418 13.9467 26.7712 14.856C25.7005 15.7653 23.9918 16.22 21.6452 16.22ZM30.2963 16L33.5963 0.291999H37.7983L36.5883 6.122H36.8963C38.1137 6.122 39.111 6.32 39.8883 6.716C40.6803 7.09733 41.267 7.62533 41.6483 8.3C42.0443 8.97467 42.2423 9.73733 42.2423 10.588C42.2423 12.1867 41.707 13.492 40.6363 14.504C39.5803 15.5013 37.9817 16 35.8403 16H30.2963ZM43.2763 16L46.5983 0.291999H50.8003L47.4783 16H43.2763ZM36.0603 12.722C36.691 12.722 37.175 12.5533 37.5123 12.216C37.8497 11.864 38.0183 11.3947 38.0183 10.808C38.0183 10.4413 37.901 10.1187 37.6663 9.84C37.4317 9.54667 37.0797 9.4 36.6103 9.4H35.8843L35.2243 12.722H36.0603ZM51.0502 16L54.3722 0.291999H58.5742L57.0122 7.64L61.9402 0.291999H66.6262L61.0382 8.08L63.4362 16H58.8162L56.8802 8.278L55.2522 16H51.0502Z" fill="url(#paint0_linear_5_1914)"/>
</svg>
