<svg width="76" height="17" viewBox="0 0 76 17" fill="none" xmlns="http://www.w3.org/2000/svg">
<defs>
<linearGradient id="paint0_linear_4_476" x1="-5.02409e-07" y1="10.1" x2="73.263" y2="24.0409" gradientUnits="userSpaceOnUse">
<stop stop-color="white"/>
<stop offset="1" stop-color="#7B7B7B"/>
</linearGradient>
</defs>
<path d="M4.95043 16.22C4.1731 16.22 3.43243 16.132 2.72843 15.956C2.02443 15.7653 1.41576 15.5087 0.90243 15.186V11.424C1.47443 11.776 2.1491 12.0913 2.92643 12.37C3.70376 12.634 4.42243 12.766 5.08243 12.766C6.1531 12.766 6.68843 12.3407 6.68843 11.49C6.68843 11.094 6.51243 10.7347 6.16043 10.412C5.8231 10.0893 5.41243 9.73 4.92843 9.334C4.20976 8.73267 3.63043 8.09467 3.19043 7.42C2.75043 6.73067 2.53043 5.90933 2.53043 4.956C2.53043 4.00267 2.7651 3.15933 3.23443 2.426C3.70376 1.69267 4.35643 1.12067 5.19243 0.709999C6.02843 0.284666 6.99643 0.0719992 8.09643 0.0719992C8.9471 0.0719992 9.76843 0.174666 10.5604 0.379999C11.3524 0.570666 12.0711 0.849333 12.7164 1.216L11.2644 4.406C10.7658 4.15667 10.2378 3.93667 9.68043 3.746C9.13776 3.55533 8.62443 3.46 8.14043 3.46C7.55376 3.46 7.1651 3.59933 6.97443 3.878C6.79843 4.142 6.71043 4.39867 6.71043 4.648C6.71043 4.97067 6.82776 5.29333 7.06243 5.616C7.2971 5.924 7.7591 6.33467 8.44843 6.848C9.31376 7.49333 9.94443 8.16067 10.3404 8.85C10.7364 9.52467 10.9344 10.302 10.9344 11.182C10.9344 12.7367 10.4138 13.9687 9.37243 14.878C8.34576 15.7727 6.87176 16.22 4.95043 16.22ZM19.6432 16.22C17.6485 16.22 16.1452 15.67 15.1332 14.57C14.1212 13.4553 13.6152 11.9887 13.6152 10.17C13.6152 8.95267 13.7838 7.75 14.1212 6.562C14.4732 5.35933 14.9938 4.26667 15.6832 3.284C16.3872 2.30133 17.2745 1.51667 18.3452 0.929999C19.4158 0.343333 20.6772 0.0499995 22.1292 0.0499995C24.0652 0.0499995 25.5318 0.599999 26.5292 1.7C27.5265 2.8 28.0252 4.26667 28.0252 6.1C28.0252 7.31733 27.8565 8.52733 27.5192 9.73C27.1965 10.918 26.6905 12.0033 26.0012 12.986C25.3118 13.9687 24.4392 14.7533 23.3832 15.34C22.3418 15.9267 21.0952 16.22 19.6432 16.22ZM20.0172 12.744C20.7212 12.744 21.3592 12.4433 21.9312 11.842C22.5032 11.2407 22.9505 10.4413 23.2732 9.444C23.6105 8.44667 23.7792 7.34667 23.7792 6.144C23.7792 5.32267 23.6032 4.68467 23.2512 4.23C22.9138 3.76067 22.4225 3.526 21.7772 3.526C21.1905 3.526 20.6552 3.724 20.1712 4.12C19.6872 4.50133 19.2692 5.01467 18.9172 5.66C18.5798 6.29067 18.3158 7.002 18.1252 7.794C17.9492 8.57133 17.8612 9.356 17.8612 10.148C17.8612 11.8787 18.5798 12.744 20.0172 12.744ZM35.2699 16.22C34.1845 16.22 33.2459 16.022 32.4539 15.626C31.6765 15.23 31.0825 14.6947 30.6719 14.02C30.2612 13.3307 30.0559 12.546 30.0559 11.666C30.0559 11.446 30.0632 11.2113 30.0779 10.962C30.1072 10.698 30.1439 10.4487 30.1879 10.214L32.3219 0.291999H36.5239L34.4339 10.104C34.3899 10.3093 34.3532 10.522 34.3239 10.742C34.2945 10.9473 34.2799 11.1453 34.2799 11.336C34.2799 11.7613 34.3972 12.0987 34.6319 12.348C34.8665 12.5827 35.2112 12.7 35.6659 12.7C36.2965 12.7 36.7952 12.4873 37.1619 12.062C37.5285 11.6367 37.8219 10.9107 38.0419 9.884L40.0879 0.291999H44.2899L42.1559 10.302C41.8919 11.578 41.4885 12.656 40.9459 13.536C40.4032 14.416 39.6699 15.0833 38.7459 15.538C37.8365 15.9927 36.6779 16.22 35.2699 16.22ZM44.4916 16L47.8136 0.291999H52.6976L55.7776 10.852H55.8656C55.9096 10.5293 55.961 10.126 56.0196 9.642C56.093 9.158 56.1663 8.66667 56.2396 8.168C56.3276 7.66933 56.4083 7.23667 56.4816 6.87L57.8896 0.291999H61.6296L58.3076 16H53.4236L50.3216 4.956H50.2336C50.219 5.10267 50.1896 5.352 50.1456 5.704C50.1163 6.04133 50.0723 6.43733 50.0136 6.892C49.9696 7.332 49.911 7.77933 49.8376 8.234C49.7643 8.68867 49.691 9.092 49.6176 9.444L48.2316 16H44.4916ZM61.8725 16L65.1945 0.291999H69.6605C71.5818 0.291999 73.0998 0.797999 74.2145 1.81C75.3292 2.822 75.8865 4.296 75.8865 6.232C75.8865 8.256 75.5272 10.0013 74.8085 11.468C74.1045 12.92 73.0852 14.042 71.7505 14.834C70.4158 15.6113 68.8098 16 66.9325 16H61.8725ZM67.5705 12.524C68.3772 12.524 69.0812 12.2747 69.6825 11.776C70.2985 11.2627 70.7752 10.5513 71.1125 9.642C71.4645 8.718 71.6405 7.65467 71.6405 6.452C71.6405 5.55733 71.4425 4.88267 71.0465 4.428C70.6652 3.95867 70.1298 3.724 69.4405 3.724H68.6705L66.8225 12.524H67.5705Z" fill="url(#paint0_linear_4_476)"/>
</svg>
