<svg width="58" height="17" viewBox="0 0 58 17" fill="none" xmlns="http://www.w3.org/2000/svg">
<defs>
<linearGradient id="paint0_linear_5_1912" x1="-3.65388e-07" y1="10.1" x2="54.1739" y2="17.5971" gradientUnits="userSpaceOnUse">
<stop stop-color="white"/>
<stop offset="1" stop-color="#7B7B7B"/>
</linearGradient>
</defs>
<path d="M5.5319 16.22C4.49057 16.22 3.51523 16.1467 2.6059 16C1.71123 15.8533 1.02923 15.6407 0.559898 15.362V11.864C1.16123 12.1867 1.8579 12.436 2.6499 12.612C3.45657 12.788 4.2339 12.876 4.9819 12.876C5.53923 12.876 6.04523 12.832 6.4999 12.744C6.95457 12.6413 7.32123 12.458 7.5999 12.194C7.87857 11.9153 8.0179 11.5047 8.0179 10.962C8.0179 10.3607 7.76123 9.96467 7.2479 9.774C6.73457 9.56867 6.09657 9.466 5.3339 9.466H4.0359L4.7619 6.122H6.1699C7.2699 6.122 8.0399 5.99 8.4799 5.726C8.9199 5.462 9.1399 5.088 9.1399 4.604C9.1399 4.26667 9.0079 3.988 8.7439 3.768C8.49457 3.53333 8.06923 3.416 7.4679 3.416C6.8519 3.416 6.25057 3.53333 5.6639 3.768C5.0919 4.00267 4.50523 4.33267 3.9039 4.758L2.3859 1.788C3.20723 1.27467 4.1019 0.863999 5.0699 0.556C6.0379 0.233333 7.18923 0.0719992 8.5239 0.0719992C10.1372 0.0719992 11.3692 0.431333 12.2199 1.15C13.0852 1.86867 13.5179 2.76333 13.5179 3.834C13.5179 4.99267 13.1439 5.902 12.3959 6.562C11.6479 7.222 10.6726 7.60333 9.4699 7.706V7.794C10.2912 7.98467 10.9586 8.35867 11.4719 8.916C11.9999 9.47333 12.2639 10.2287 12.2639 11.182C12.2639 12.722 11.7286 13.9467 10.6579 14.856C9.58723 15.7653 7.87857 16.22 5.5319 16.22ZM14.1831 16L17.5051 0.291999H22.7411C24.4277 0.291999 25.6377 0.614666 26.3711 1.26C27.1044 1.90533 27.4711 2.72667 27.4711 3.724C27.4711 4.79467 27.1924 5.66 26.6351 6.32C26.0924 6.98 25.3077 7.464 24.2811 7.772V7.86C24.9117 8.06533 25.4104 8.432 25.7771 8.96C26.1584 9.47333 26.3491 10.104 26.3491 10.852C26.3491 12.0693 26.0631 13.0593 25.4911 13.822C24.9337 14.5847 24.1784 15.142 23.2251 15.494C22.2864 15.8313 21.2304 16 20.0571 16H14.1831ZM21.2011 6.32C21.9344 6.32 22.4331 6.15867 22.6971 5.836C22.9757 5.51333 23.1151 5.10267 23.1151 4.604C23.1151 3.87067 22.6604 3.504 21.7511 3.504H21.0691L20.4311 6.32H21.2011ZM19.9691 12.722C20.6144 12.722 21.1351 12.546 21.5311 12.194C21.9271 11.8273 22.1251 11.3947 22.1251 10.896C22.1251 10.3973 22.0077 10.0307 21.7731 9.796C21.5384 9.54667 21.1204 9.422 20.5191 9.422H19.7931L19.0891 12.722H19.9691ZM30.7884 16.22C30.4217 16.22 30.0331 16.1907 29.6224 16.132C29.2117 16.0733 28.8377 16 28.5004 15.912V12.612C28.7644 12.6707 29.0431 12.7293 29.3364 12.788C29.6297 12.8467 29.9671 12.876 30.3484 12.876C31.0377 12.876 31.5217 12.7733 31.8004 12.568C32.0791 12.348 32.3357 11.9887 32.5704 11.49L29.5564 0.291999H33.8464L35.0124 6.056C35.0857 6.364 35.1517 6.68667 35.2104 7.024C35.2837 7.36133 35.3351 7.66933 35.3644 7.948C35.5697 7.34667 35.8117 6.738 36.0904 6.122L38.8184 0.291999H43.4604L36.6184 12.458C36.1344 13.3233 35.6284 14.0347 35.1004 14.592C34.5724 15.1493 33.9637 15.56 33.2744 15.824C32.5997 16.088 31.7711 16.22 30.7884 16.22ZM41.8764 16L45.1984 0.291999H49.4004L47.8384 7.64L52.7664 0.291999H57.4524L51.8644 8.08L54.2624 16H49.6424L47.7064 8.278L46.0784 16H41.8764Z" fill="url(#paint0_linear_5_1912)"/>
</svg>
