<svg width="43" height="22" viewBox="0 0 43 22" fill="none" xmlns="http://www.w3.org/2000/svg">
<defs>
<linearGradient id="paint0_linear_5_2366" x1="-2.87091e-07" y1="13.1" x2="42.8735" y2="17.7618" gradientUnits="userSpaceOnUse">
<stop stop-color="white"/>
<stop offset="1" stop-color="#7B7B7B"/>
</linearGradient>
</defs>
<path d="M9.702 11.124V13.434H5.676C5.72 12.84 5.742 12.29 5.742 11.762V11.124H9.702ZM16.632 13.434H12.254V11.124H16.632V13.434ZM19.25 8.99H3.146V11.718C3.146 13.962 2.882 17.042 0.484 19.242C1.034 19.594 2.112 20.54 2.53 21.046C4.114 19.55 4.928 17.592 5.346 15.634H16.632V16.8H19.25V8.99ZM20.57 4.238V2.016H12.276V0.365999H9.636V2.016H1.408V4.238H9.636V5.58H2.794V7.78H19.58V5.58H12.276V4.238H20.57ZM37.378 12.972V14.468H28.886V12.972H37.378ZM28.886 18.01V16.448H37.378V18.01H28.886ZM26.268 20.892H28.886V20.188H37.378V20.87H40.128V10.816H26.268V20.892ZM36.256 4.458C36.036 5.294 35.64 6.306 35.31 7.01L35.86 7.142H30.272L30.932 6.988C30.8 6.284 30.404 5.272 29.942 4.458H36.256ZM38.082 7.142C38.456 6.46 38.852 5.558 39.292 4.656L38.346 4.458H41.844V2.148H34.32V0.365999H31.57V2.148H24.376V4.458H28.072L27.17 4.634C27.566 5.382 27.94 6.372 28.116 7.142H23.166V9.474H42.856V7.142H38.082Z" fill="url(#paint0_linear_5_2366)"/>
</svg>
