<svg width="261" height="78" viewBox="0 0 261 78" fill="none" xmlns="http://www.w3.org/2000/svg">
<path d="M15 0H261L246 78H0L15 0Z" fill="#96130E"/>
<path d="M83.9219 53.37C82.6146 53.37 81.3689 53.222 80.1849 52.926C79.0009 52.6053 77.9772 52.1737 77.1139 51.631V45.304C78.0759 45.896 79.2106 46.4263 80.5179 46.895C81.8252 47.339 83.0339 47.561 84.1439 47.561C85.9446 47.561 86.8449 46.8457 86.8449 45.415C86.8449 44.749 86.5489 44.1447 85.9569 43.602C85.3896 43.0593 84.6989 42.455 83.8849 41.789C82.6762 40.7777 81.7019 39.7047 80.9619 38.57C80.2219 37.4107 79.8519 36.0293 79.8519 34.426C79.8519 32.8227 80.2466 31.4043 81.0359 30.171C81.8252 28.9377 82.9229 27.9757 84.3289 27.285C85.7349 26.5697 87.3629 26.212 89.2129 26.212C90.6436 26.212 92.0249 26.3847 93.3569 26.73C94.6889 27.0507 95.8976 27.5193 96.9829 28.136L94.5409 33.501C93.7022 33.0817 92.8142 32.7117 91.8769 32.391C90.9642 32.0703 90.1009 31.91 89.2869 31.91C88.3002 31.91 87.6466 32.1443 87.3259 32.613C87.0299 33.057 86.8819 33.4887 86.8819 33.908C86.8819 34.4507 87.0792 34.9933 87.4739 35.536C87.8686 36.054 88.6456 36.7447 89.8049 37.608C91.2602 38.6933 92.3209 39.8157 92.9869 40.975C93.6529 42.1097 93.9859 43.417 93.9859 44.897C93.9859 47.5117 93.1102 49.5837 91.3589 51.113C89.6322 52.6177 87.1532 53.37 83.9219 53.37ZM100.862 53L105.154 32.428H99.4194L100.677 26.582H119.251L117.956 32.428H112.221L107.929 53H100.862ZM112.997 53L126.428 26.582H135.53L137.75 53H130.868L130.683 48.042H122.58L120.323 53H112.997ZM125.17 42.418H130.461L130.202 34.833C130.177 34.241 130.152 33.6613 130.128 33.094C130.128 32.502 130.14 31.947 130.165 31.429H130.054C129.684 32.539 129.252 33.6243 128.759 34.685L125.17 42.418ZM140.776 53L146.363 26.582H153.356C156.39 26.582 158.708 27.1863 160.312 28.395C161.94 29.6037 162.754 31.4167 162.754 33.834C162.754 35.4373 162.482 36.7817 161.94 37.867C161.422 38.9523 160.768 39.8157 159.979 40.457C159.189 41.0983 158.412 41.5917 157.648 41.937L162.421 53H154.725L151.21 43.38H149.878L147.843 53H140.776ZM151.95 38.015C152.887 38.015 153.738 37.7313 154.503 37.164C155.292 36.5967 155.687 35.6347 155.687 34.278C155.687 33.6367 155.502 33.094 155.132 32.65C154.786 32.206 154.157 31.984 153.245 31.984H152.283L151.025 38.015H151.95ZM168.503 53L172.795 32.428H167.06L168.318 26.582H186.892L185.597 32.428H179.862L175.57 53H168.503Z" fill="white"/>
</svg>
