<svg width="43" height="21" viewBox="0 0 43 21" fill="none" xmlns="http://www.w3.org/2000/svg">
<defs>
<linearGradient id="paint0_linear_5_2367" x1="-2.87091e-07" y1="13.1" x2="42.8735" y2="17.7618" gradientUnits="userSpaceOnUse">
<stop stop-color="white"/>
<stop offset="1" stop-color="#7B7B7B"/>
</linearGradient>
</defs>
<path d="M7.348 9.584L5.566 10.09V6.922H7.568V4.524H5.566V0.388H3.19V4.524H0.88V6.922H3.19V10.728C2.2 10.97 1.276 11.212 0.528 11.366L1.1 13.874C1.738 13.698 2.464 13.5 3.19 13.28V18.142C3.19 18.428 3.08 18.516 2.816 18.516C2.552 18.538 1.782 18.538 0.99 18.494C1.298 19.198 1.584 20.276 1.65 20.914C3.102 20.936 4.026 20.848 4.708 20.43C5.368 20.012 5.566 19.352 5.566 18.142V12.576C6.27 12.378 6.974 12.158 7.678 11.938L7.348 9.584ZM13.816 11.3H14.74C15.092 13.544 15.598 15.502 16.39 17.086C15.532 17.262 14.652 17.438 13.816 17.592V11.3ZM19.448 11.718C18.964 12.29 18.26 13.016 17.556 13.654C17.336 12.906 17.138 12.114 17.006 11.3H21.01V9.1H10.78C10.802 8.638 10.802 8.176 10.802 7.758V3.556H20.68V1.312H8.382V7.758C8.382 11.234 8.184 16.052 5.94 19.374C6.49 19.638 7.546 20.408 7.92 20.87C9.702 18.296 10.428 14.578 10.67 11.3H11.506V18.01C10.89 18.098 10.34 18.208 9.834 18.274L10.34 20.496C12.21 20.1 14.542 19.638 16.764 19.132L16.588 17.482C17.38 18.934 18.458 20.078 19.954 20.87C20.306 20.21 21.01 19.22 21.56 18.736C20.108 18.098 19.074 16.976 18.326 15.546C19.228 14.908 20.24 14.094 21.164 13.368L19.448 11.718ZM20.086 7.34V5.206H11.66V7.34H20.086ZM32.428 2.06H23.826V4.37H32.428V2.06ZM38.126 5.118C38.148 3.71 38.17 2.258 38.17 0.761999H35.574C35.574 2.258 35.574 3.732 35.552 5.118H33.088V7.626H35.464C35.31 11.102 34.826 14.138 33.55 16.536C33.154 15.018 32.274 12.686 31.504 10.904L29.414 11.476C29.744 12.312 30.074 13.258 30.404 14.204L26.664 15.084C27.39 13.368 28.05 11.388 28.512 9.518H32.824V7.142H23.122V9.518H25.828C25.344 11.85 24.574 14.072 24.288 14.732C23.936 15.524 23.628 16.03 23.21 16.184C23.518 16.822 23.914 18.01 24.046 18.516C24.684 18.12 25.63 17.79 31.064 16.382C31.174 16.756 31.262 17.13 31.328 17.416L33.418 16.778C32.956 17.526 32.406 18.252 31.768 18.89C32.406 19.308 33.286 20.232 33.704 20.892C36.806 17.812 37.73 13.148 38.038 7.626H40.304C40.106 14.512 39.886 17.152 39.402 17.768C39.182 18.076 38.962 18.142 38.588 18.142C38.126 18.142 37.18 18.142 36.146 18.054C36.586 18.78 36.872 19.858 36.916 20.606C38.06 20.65 39.182 20.65 39.864 20.54C40.656 20.386 41.162 20.166 41.69 19.396C42.416 18.384 42.658 15.172 42.878 6.306C42.878 5.976 42.9 5.118 42.9 5.118H38.126Z" fill="url(#paint0_linear_5_2367)"/>
</svg>
