<svg width="122" height="21" viewBox="0 0 122 21" fill="none" xmlns="http://www.w3.org/2000/svg">
<defs>
<linearGradient id="paint0_linear_5_1913" x1="-7.895e-07" y1="10.1" x2="109.505" y2="42.8441" gradientUnits="userSpaceOnUse">
<stop stop-color="white"/>
<stop offset="1" stop-color="#7B7B7B"/>
</linearGradient>
</defs>
<path d="M0.405711 16L3.72771 0.291999H8.96371C10.6504 0.291999 11.8604 0.614666 12.5937 1.26C13.327 1.90533 13.6937 2.72667 13.6937 3.724C13.6937 4.79467 13.415 5.66 12.8577 6.32C12.315 6.98 11.5304 7.464 10.5037 7.772V7.86C11.1344 8.06533 11.633 8.432 11.9997 8.96C12.381 9.47333 12.5717 10.104 12.5717 10.852C12.5717 12.0693 12.2857 13.0593 11.7137 13.822C11.1564 14.5847 10.401 15.142 9.44771 15.494C8.50904 15.8313 7.45304 16 6.27971 16H0.405711ZM7.42371 6.32C8.15704 6.32 8.65571 6.15867 8.91971 5.836C9.19838 5.51333 9.33771 5.10267 9.33771 4.604C9.33771 3.87067 8.88304 3.504 7.97371 3.504H7.29171L6.65371 6.32H7.42371ZM6.19171 12.722C6.83704 12.722 7.35771 12.546 7.75371 12.194C8.14971 11.8273 8.34771 11.3947 8.34771 10.896C8.34771 10.3973 8.23038 10.0307 7.99571 9.796C7.76104 9.54667 7.34304 9.422 6.74171 9.422H6.01571L5.31171 12.722H6.19171ZM14.3491 16L17.6711 0.291999H21.4991L20.0911 6.87C19.9884 7.41267 19.8491 8.014 19.6731 8.674C19.5117 9.31933 19.3284 9.994 19.1231 10.698H19.2111L26.3391 0.291999H31.5971L28.2751 16H24.4471L25.8111 9.488C25.9284 8.88667 26.0604 8.26333 26.2071 7.618C26.3684 6.958 26.5664 6.21 26.8011 5.374H26.7131L19.6071 16H14.3491ZM31.8374 16L35.1374 0.291999H44.4214L43.6954 3.724H38.6134L38.1294 6.122H38.4374C39.6547 6.122 40.652 6.32 41.4294 6.716C42.2214 7.09733 42.808 7.62533 43.1894 8.3C43.5854 8.97467 43.7834 9.73733 43.7834 10.588C43.7834 12.1867 43.248 13.492 42.1774 14.504C41.1214 15.5013 39.5227 16 37.3814 16H31.8374ZM37.6014 12.722C38.232 12.722 38.716 12.5533 39.0534 12.216C39.3907 11.864 39.5594 11.3947 39.5594 10.808C39.5594 10.4413 39.442 10.1187 39.2074 9.84C38.9727 9.54667 38.6207 9.4 38.1514 9.4H37.4254L36.7654 12.722H37.6014ZM45.2436 16L48.5656 0.291999H52.5696C53.9629 0.291999 55.0776 0.504666 55.9136 0.929999C56.7643 1.34067 57.3803 1.90533 57.7616 2.624C58.1429 3.328 58.3336 4.12 58.3336 5C58.3336 6.24667 58.0403 7.30267 57.4536 8.168C56.8816 9.03333 56.0749 9.686 55.0336 10.126C54.0069 10.566 52.8116 10.786 51.4476 10.786H50.5236L49.4456 16H45.2436ZM51.9536 7.354C52.6136 7.354 53.1416 7.14133 53.5376 6.716C53.9336 6.29067 54.1316 5.76267 54.1316 5.132C54.1316 4.76533 54.0143 4.44267 53.7796 4.164C53.5596 3.87067 53.1929 3.724 52.6796 3.724H52.0416L51.2716 7.354H51.9536ZM56.2049 16L64.1909 0.291999H69.6029L70.9229 16H66.8309L66.7209 13.052H61.9029L60.5609 16H56.2049ZM63.4429 9.708H66.5889L66.4349 5.198C66.4203 4.846 66.4056 4.50133 66.3909 4.164C66.3909 3.812 66.3983 3.482 66.4129 3.174H66.3469C66.1269 3.834 65.8703 4.47933 65.5769 5.11L63.4429 9.708ZM82.3361 20.906L83.4141 16H72.7221L76.0441 0.291999H80.2461L77.6501 12.524H81.3901L83.9861 0.291999H88.1881L85.5481 12.722H88.1881L86.4281 20.906H82.3361ZM89.5229 16L92.8449 0.291999H96.6729L95.2649 6.87C95.1622 7.41267 95.0229 8.014 94.8469 8.674C94.6856 9.31933 94.5022 9.994 94.2969 10.698H94.3849L101.513 0.291999H106.771L103.449 16H99.6209L100.985 9.488C101.102 8.88667 101.234 8.26333 101.381 7.618C101.542 6.958 101.74 6.21 101.975 5.374H101.887L94.7809 16H89.5229ZM110.575 8.96C110.135 8.57867 109.776 8.13133 109.497 7.618C109.233 7.10467 109.101 6.43 109.101 5.594C109.101 4.55267 109.336 3.636 109.805 2.844C110.289 2.03733 110.993 1.414 111.917 0.973999C112.856 0.519332 114 0.291999 115.349 0.291999H121.069L117.725 16H113.523L114.755 10.28H114.007L110.179 16H105.163L110.575 8.96ZM114.755 7.09H115.415L116.185 3.504H115.195C114.609 3.504 114.147 3.702 113.809 4.098C113.472 4.494 113.303 4.97067 113.303 5.528C113.303 6.07067 113.443 6.46667 113.721 6.716C114 6.96533 114.345 7.09 114.755 7.09Z" fill="url(#paint0_linear_5_1913)"/>
</svg>
