<svg width="119" height="17" viewBox="0 0 119 17" fill="none" xmlns="http://www.w3.org/2000/svg">
<defs>
<linearGradient id="paint0_linear_4_484" x1="-2" y1="10.1" x2="107.505" y2="42.8441" gradientUnits="userSpaceOnUse">
<stop stop-color="white"/>
<stop offset="1" stop-color="#7B7B7B"/>
</linearGradient>
</defs>
<path d="M1.18991 16L0.0679142 0.291999H4.18191L4.44591 8.212C4.46058 8.59333 4.46058 9.04067 4.44591 9.554C4.44591 10.0527 4.43125 10.544 4.40191 11.028C4.38725 11.512 4.35058 11.9007 4.29191 12.194H4.37991C4.51191 11.622 4.68791 11.0207 4.90791 10.39C5.12791 9.74467 5.31125 9.26067 5.45791 8.938L9.21991 0.291999H13.6639L5.87591 16H1.18991ZM11.248 16L11.754 13.602L13.822 12.744L15.758 3.636L14.042 2.712L14.548 0.291999H22.622L22.116 2.712L19.96 3.636L18.024 12.744L19.762 13.602L19.256 16H11.248ZM21.7592 16L25.0812 0.291999H30.3172C32.0039 0.291999 33.2139 0.614666 33.9472 1.26C34.6806 1.90533 35.0472 2.72667 35.0472 3.724C35.0472 4.79467 34.7686 5.66 34.2112 6.32C33.6686 6.98 32.8839 7.464 31.8572 7.772V7.86C32.4879 8.06533 32.9866 8.432 33.3532 8.96C33.7346 9.47333 33.9252 10.104 33.9252 10.852C33.9252 12.0693 33.6392 13.0593 33.0672 13.822C32.5099 14.5847 31.7546 15.142 30.8012 15.494C29.8626 15.8313 28.8066 16 27.6332 16H21.7592ZM28.7772 6.32C29.5106 6.32 30.0092 6.15867 30.2732 5.836C30.5519 5.51333 30.6912 5.10267 30.6912 4.604C30.6912 3.87067 30.2366 3.504 29.3272 3.504H28.6452L28.0072 6.32H28.7772ZM27.5452 12.722C28.1906 12.722 28.7112 12.546 29.1072 12.194C29.5032 11.8273 29.7012 11.3947 29.7012 10.896C29.7012 10.3973 29.5839 10.0307 29.3492 9.796C29.1146 9.54667 28.6966 9.422 28.0952 9.422H27.3692L26.6652 12.722H27.5452ZM35.7026 16L39.0246 0.291999H43.1826C44.9866 0.291999 46.3653 0.651332 47.3186 1.37C48.2866 2.08867 48.7706 3.16667 48.7706 4.604C48.7706 5.55733 48.6093 6.35667 48.2866 7.002C47.9786 7.64733 47.5899 8.16067 47.1206 8.542C46.6513 8.92333 46.1893 9.21667 45.7346 9.422L48.5726 16H43.9966L41.9066 10.28H41.1146L39.9046 16H35.7026ZM42.3466 7.09C42.9039 7.09 43.4099 6.92133 43.8646 6.584C44.3339 6.24667 44.5686 5.67467 44.5686 4.868C44.5686 4.48667 44.4586 4.164 44.2386 3.9C44.0333 3.636 43.6593 3.504 43.1166 3.504H42.5446L41.7966 7.09H42.3466ZM48.3612 16L56.3472 0.291999H61.7592L63.0792 16H58.9872L58.8772 13.052H54.0592L52.7172 16H48.3612ZM55.5992 9.708H58.7452L58.5912 5.198C58.5765 4.846 58.5618 4.50133 58.5472 4.164C58.5472 3.812 58.5545 3.482 58.5692 3.174H58.5032C58.2832 3.834 58.0265 4.47933 57.7332 5.11L55.5992 9.708ZM65.9607 16L68.5127 3.768H65.1027L65.8507 0.291999H76.8947L76.1247 3.768H72.7147L70.1627 16H65.9607ZM74.7773 16L75.2833 13.602L77.3513 12.744L79.2873 3.636L77.5713 2.712L78.0773 0.291999H86.1513L85.6453 2.712L83.4893 3.636L81.5533 12.744L83.2913 13.602L82.7853 16H74.7773ZM92.0865 16.22C90.0919 16.22 88.5885 15.67 87.5765 14.57C86.5645 13.4553 86.0585 11.9887 86.0585 10.17C86.0585 8.95267 86.2272 7.75 86.5645 6.562C86.9165 5.35933 87.4372 4.26667 88.1265 3.284C88.8305 2.30133 89.7179 1.51667 90.7885 0.929999C91.8592 0.343333 93.1205 0.0499995 94.5725 0.0499995C96.5085 0.0499995 97.9752 0.599999 98.9725 1.7C99.9699 2.8 100.469 4.26667 100.469 6.1C100.469 7.31733 100.3 8.52733 99.9625 9.73C99.6399 10.918 99.1339 12.0033 98.4445 12.986C97.7552 13.9687 96.8825 14.7533 95.8265 15.34C94.7852 15.9267 93.5385 16.22 92.0865 16.22ZM92.4605 12.744C93.1645 12.744 93.8025 12.4433 94.3745 11.842C94.9465 11.2407 95.3939 10.4413 95.7165 9.444C96.0539 8.44667 96.2225 7.34667 96.2225 6.144C96.2225 5.32267 96.0465 4.68467 95.6945 4.23C95.3572 3.76067 94.8659 3.526 94.2205 3.526C93.6339 3.526 93.0985 3.724 92.6145 4.12C92.1305 4.50133 91.7125 5.01467 91.3605 5.66C91.0232 6.29067 90.7592 7.002 90.5685 7.794C90.3925 8.57133 90.3045 9.356 90.3045 10.148C90.3045 11.8787 91.0232 12.744 92.4605 12.744ZM101.509 16L104.831 0.291999H109.715L112.795 10.852H112.883C112.927 10.5293 112.979 10.126 113.037 9.642C113.111 9.158 113.184 8.66667 113.257 8.168C113.345 7.66933 113.426 7.23667 113.499 6.87L114.907 0.291999H118.647L115.325 16H110.441L107.339 4.956H107.251C107.237 5.10267 107.207 5.352 107.163 5.704C107.134 6.04133 107.09 6.43733 107.031 6.892C106.987 7.332 106.929 7.77933 106.855 8.234C106.782 8.68867 106.709 9.092 106.635 9.444L105.249 16H101.509Z" fill="url(#paint0_linear_4_484)"/>
</svg>
